G75*
G70*
%OFA0B0*%
%FSLAX24Y24*%
%IPPOS*%
%LPD*%
%AMOC8*
5,1,8,0,0,1.08239X$1,22.5*
%
%ADD10C,0.0000*%
%ADD11C,0.0740*%
%ADD12R,0.0740X0.0740*%
%ADD13C,0.0630*%
%ADD14R,0.0600X0.0600*%
%ADD15C,0.0600*%
%ADD16C,0.0515*%
%ADD17C,0.0515*%
%ADD18C,0.0160*%
%ADD19R,0.0356X0.0356*%
%ADD20R,0.0317X0.0317*%
%ADD21C,0.0200*%
D10*
X004166Y003416D02*
X020701Y003416D01*
X020071Y004990D02*
X020073Y005040D01*
X020079Y005090D01*
X020089Y005139D01*
X020103Y005187D01*
X020120Y005234D01*
X020141Y005279D01*
X020166Y005323D01*
X020194Y005364D01*
X020226Y005403D01*
X020260Y005440D01*
X020297Y005474D01*
X020337Y005504D01*
X020379Y005531D01*
X020423Y005555D01*
X020469Y005576D01*
X020516Y005592D01*
X020564Y005605D01*
X020614Y005614D01*
X020663Y005619D01*
X020714Y005620D01*
X020764Y005617D01*
X020813Y005610D01*
X020862Y005599D01*
X020910Y005584D01*
X020956Y005566D01*
X021001Y005544D01*
X021044Y005518D01*
X021085Y005489D01*
X021124Y005457D01*
X021160Y005422D01*
X021192Y005384D01*
X021222Y005344D01*
X021249Y005301D01*
X021272Y005257D01*
X021291Y005211D01*
X021307Y005163D01*
X021319Y005114D01*
X021327Y005065D01*
X021331Y005015D01*
X021331Y004965D01*
X021327Y004915D01*
X021319Y004866D01*
X021307Y004817D01*
X021291Y004769D01*
X021272Y004723D01*
X021249Y004679D01*
X021222Y004636D01*
X021192Y004596D01*
X021160Y004558D01*
X021124Y004523D01*
X021085Y004491D01*
X021044Y004462D01*
X021001Y004436D01*
X020956Y004414D01*
X020910Y004396D01*
X020862Y004381D01*
X020813Y004370D01*
X020764Y004363D01*
X020714Y004360D01*
X020663Y004361D01*
X020614Y004366D01*
X020564Y004375D01*
X020516Y004388D01*
X020469Y004404D01*
X020423Y004425D01*
X020379Y004449D01*
X020337Y004476D01*
X020297Y004506D01*
X020260Y004540D01*
X020226Y004577D01*
X020194Y004616D01*
X020166Y004657D01*
X020141Y004701D01*
X020120Y004746D01*
X020103Y004793D01*
X020089Y004841D01*
X020079Y004890D01*
X020073Y004940D01*
X020071Y004990D01*
X020701Y003415D02*
X020778Y003417D01*
X020855Y003423D01*
X020932Y003432D01*
X021008Y003445D01*
X021084Y003462D01*
X021158Y003483D01*
X021232Y003507D01*
X021304Y003535D01*
X021374Y003566D01*
X021443Y003601D01*
X021511Y003639D01*
X021576Y003680D01*
X021639Y003725D01*
X021700Y003773D01*
X021759Y003823D01*
X021815Y003876D01*
X021868Y003932D01*
X021918Y003991D01*
X021966Y004052D01*
X022011Y004115D01*
X022052Y004180D01*
X022090Y004248D01*
X022125Y004317D01*
X022156Y004387D01*
X022184Y004459D01*
X022208Y004533D01*
X022229Y004607D01*
X022246Y004683D01*
X022259Y004759D01*
X022268Y004836D01*
X022274Y004913D01*
X022276Y004990D01*
X022276Y021526D01*
X020071Y021526D02*
X020073Y021576D01*
X020079Y021626D01*
X020089Y021675D01*
X020103Y021723D01*
X020120Y021770D01*
X020141Y021815D01*
X020166Y021859D01*
X020194Y021900D01*
X020226Y021939D01*
X020260Y021976D01*
X020297Y022010D01*
X020337Y022040D01*
X020379Y022067D01*
X020423Y022091D01*
X020469Y022112D01*
X020516Y022128D01*
X020564Y022141D01*
X020614Y022150D01*
X020663Y022155D01*
X020714Y022156D01*
X020764Y022153D01*
X020813Y022146D01*
X020862Y022135D01*
X020910Y022120D01*
X020956Y022102D01*
X021001Y022080D01*
X021044Y022054D01*
X021085Y022025D01*
X021124Y021993D01*
X021160Y021958D01*
X021192Y021920D01*
X021222Y021880D01*
X021249Y021837D01*
X021272Y021793D01*
X021291Y021747D01*
X021307Y021699D01*
X021319Y021650D01*
X021327Y021601D01*
X021331Y021551D01*
X021331Y021501D01*
X021327Y021451D01*
X021319Y021402D01*
X021307Y021353D01*
X021291Y021305D01*
X021272Y021259D01*
X021249Y021215D01*
X021222Y021172D01*
X021192Y021132D01*
X021160Y021094D01*
X021124Y021059D01*
X021085Y021027D01*
X021044Y020998D01*
X021001Y020972D01*
X020956Y020950D01*
X020910Y020932D01*
X020862Y020917D01*
X020813Y020906D01*
X020764Y020899D01*
X020714Y020896D01*
X020663Y020897D01*
X020614Y020902D01*
X020564Y020911D01*
X020516Y020924D01*
X020469Y020940D01*
X020423Y020961D01*
X020379Y020985D01*
X020337Y021012D01*
X020297Y021042D01*
X020260Y021076D01*
X020226Y021113D01*
X020194Y021152D01*
X020166Y021193D01*
X020141Y021237D01*
X020120Y021282D01*
X020103Y021329D01*
X020089Y021377D01*
X020079Y021426D01*
X020073Y021476D01*
X020071Y021526D01*
X020701Y023101D02*
X020778Y023099D01*
X020855Y023093D01*
X020932Y023084D01*
X021008Y023071D01*
X021084Y023054D01*
X021158Y023033D01*
X021232Y023009D01*
X021304Y022981D01*
X021374Y022950D01*
X021443Y022915D01*
X021511Y022877D01*
X021576Y022836D01*
X021639Y022791D01*
X021700Y022743D01*
X021759Y022693D01*
X021815Y022640D01*
X021868Y022584D01*
X021918Y022525D01*
X021966Y022464D01*
X022011Y022401D01*
X022052Y022336D01*
X022090Y022268D01*
X022125Y022199D01*
X022156Y022129D01*
X022184Y022057D01*
X022208Y021983D01*
X022229Y021909D01*
X022246Y021833D01*
X022259Y021757D01*
X022268Y021680D01*
X022274Y021603D01*
X022276Y021526D01*
X020701Y023101D02*
X004166Y023101D01*
X003536Y021526D02*
X003538Y021576D01*
X003544Y021626D01*
X003554Y021675D01*
X003568Y021723D01*
X003585Y021770D01*
X003606Y021815D01*
X003631Y021859D01*
X003659Y021900D01*
X003691Y021939D01*
X003725Y021976D01*
X003762Y022010D01*
X003802Y022040D01*
X003844Y022067D01*
X003888Y022091D01*
X003934Y022112D01*
X003981Y022128D01*
X004029Y022141D01*
X004079Y022150D01*
X004128Y022155D01*
X004179Y022156D01*
X004229Y022153D01*
X004278Y022146D01*
X004327Y022135D01*
X004375Y022120D01*
X004421Y022102D01*
X004466Y022080D01*
X004509Y022054D01*
X004550Y022025D01*
X004589Y021993D01*
X004625Y021958D01*
X004657Y021920D01*
X004687Y021880D01*
X004714Y021837D01*
X004737Y021793D01*
X004756Y021747D01*
X004772Y021699D01*
X004784Y021650D01*
X004792Y021601D01*
X004796Y021551D01*
X004796Y021501D01*
X004792Y021451D01*
X004784Y021402D01*
X004772Y021353D01*
X004756Y021305D01*
X004737Y021259D01*
X004714Y021215D01*
X004687Y021172D01*
X004657Y021132D01*
X004625Y021094D01*
X004589Y021059D01*
X004550Y021027D01*
X004509Y020998D01*
X004466Y020972D01*
X004421Y020950D01*
X004375Y020932D01*
X004327Y020917D01*
X004278Y020906D01*
X004229Y020899D01*
X004179Y020896D01*
X004128Y020897D01*
X004079Y020902D01*
X004029Y020911D01*
X003981Y020924D01*
X003934Y020940D01*
X003888Y020961D01*
X003844Y020985D01*
X003802Y021012D01*
X003762Y021042D01*
X003725Y021076D01*
X003691Y021113D01*
X003659Y021152D01*
X003631Y021193D01*
X003606Y021237D01*
X003585Y021282D01*
X003568Y021329D01*
X003554Y021377D01*
X003544Y021426D01*
X003538Y021476D01*
X003536Y021526D01*
X002591Y021526D02*
X002593Y021603D01*
X002599Y021680D01*
X002608Y021757D01*
X002621Y021833D01*
X002638Y021909D01*
X002659Y021983D01*
X002683Y022057D01*
X002711Y022129D01*
X002742Y022199D01*
X002777Y022268D01*
X002815Y022336D01*
X002856Y022401D01*
X002901Y022464D01*
X002949Y022525D01*
X002999Y022584D01*
X003052Y022640D01*
X003108Y022693D01*
X003167Y022743D01*
X003228Y022791D01*
X003291Y022836D01*
X003356Y022877D01*
X003424Y022915D01*
X003493Y022950D01*
X003563Y022981D01*
X003635Y023009D01*
X003709Y023033D01*
X003783Y023054D01*
X003859Y023071D01*
X003935Y023084D01*
X004012Y023093D01*
X004089Y023099D01*
X004166Y023101D01*
X002591Y021526D02*
X002591Y004990D01*
X003536Y004990D02*
X003538Y005040D01*
X003544Y005090D01*
X003554Y005139D01*
X003568Y005187D01*
X003585Y005234D01*
X003606Y005279D01*
X003631Y005323D01*
X003659Y005364D01*
X003691Y005403D01*
X003725Y005440D01*
X003762Y005474D01*
X003802Y005504D01*
X003844Y005531D01*
X003888Y005555D01*
X003934Y005576D01*
X003981Y005592D01*
X004029Y005605D01*
X004079Y005614D01*
X004128Y005619D01*
X004179Y005620D01*
X004229Y005617D01*
X004278Y005610D01*
X004327Y005599D01*
X004375Y005584D01*
X004421Y005566D01*
X004466Y005544D01*
X004509Y005518D01*
X004550Y005489D01*
X004589Y005457D01*
X004625Y005422D01*
X004657Y005384D01*
X004687Y005344D01*
X004714Y005301D01*
X004737Y005257D01*
X004756Y005211D01*
X004772Y005163D01*
X004784Y005114D01*
X004792Y005065D01*
X004796Y005015D01*
X004796Y004965D01*
X004792Y004915D01*
X004784Y004866D01*
X004772Y004817D01*
X004756Y004769D01*
X004737Y004723D01*
X004714Y004679D01*
X004687Y004636D01*
X004657Y004596D01*
X004625Y004558D01*
X004589Y004523D01*
X004550Y004491D01*
X004509Y004462D01*
X004466Y004436D01*
X004421Y004414D01*
X004375Y004396D01*
X004327Y004381D01*
X004278Y004370D01*
X004229Y004363D01*
X004179Y004360D01*
X004128Y004361D01*
X004079Y004366D01*
X004029Y004375D01*
X003981Y004388D01*
X003934Y004404D01*
X003888Y004425D01*
X003844Y004449D01*
X003802Y004476D01*
X003762Y004506D01*
X003725Y004540D01*
X003691Y004577D01*
X003659Y004616D01*
X003631Y004657D01*
X003606Y004701D01*
X003585Y004746D01*
X003568Y004793D01*
X003554Y004841D01*
X003544Y004890D01*
X003538Y004940D01*
X003536Y004990D01*
X002591Y004990D02*
X002593Y004913D01*
X002599Y004836D01*
X002608Y004759D01*
X002621Y004683D01*
X002638Y004607D01*
X002659Y004533D01*
X002683Y004459D01*
X002711Y004387D01*
X002742Y004317D01*
X002777Y004248D01*
X002815Y004180D01*
X002856Y004115D01*
X002901Y004052D01*
X002949Y003991D01*
X002999Y003932D01*
X003052Y003876D01*
X003108Y003823D01*
X003167Y003773D01*
X003228Y003725D01*
X003291Y003680D01*
X003356Y003639D01*
X003424Y003601D01*
X003493Y003566D01*
X003563Y003535D01*
X003635Y003507D01*
X003709Y003483D01*
X003783Y003462D01*
X003859Y003445D01*
X003935Y003432D01*
X004012Y003423D01*
X004089Y003417D01*
X004166Y003415D01*
X005394Y004416D02*
X005396Y004443D01*
X005402Y004470D01*
X005411Y004496D01*
X005424Y004520D01*
X005440Y004543D01*
X005459Y004562D01*
X005481Y004579D01*
X005505Y004593D01*
X005530Y004603D01*
X005557Y004610D01*
X005584Y004613D01*
X005612Y004612D01*
X005639Y004607D01*
X005665Y004599D01*
X005689Y004587D01*
X005712Y004571D01*
X005733Y004553D01*
X005750Y004532D01*
X005765Y004508D01*
X005776Y004483D01*
X005784Y004457D01*
X005788Y004430D01*
X005788Y004402D01*
X005784Y004375D01*
X005776Y004349D01*
X005765Y004324D01*
X005750Y004300D01*
X005733Y004279D01*
X005712Y004261D01*
X005690Y004245D01*
X005665Y004233D01*
X005639Y004225D01*
X005612Y004220D01*
X005584Y004219D01*
X005557Y004222D01*
X005530Y004229D01*
X005505Y004239D01*
X005481Y004253D01*
X005459Y004270D01*
X005440Y004289D01*
X005424Y004312D01*
X005411Y004336D01*
X005402Y004362D01*
X005396Y004389D01*
X005394Y004416D01*
X006394Y004416D02*
X006396Y004443D01*
X006402Y004470D01*
X006411Y004496D01*
X006424Y004520D01*
X006440Y004543D01*
X006459Y004562D01*
X006481Y004579D01*
X006505Y004593D01*
X006530Y004603D01*
X006557Y004610D01*
X006584Y004613D01*
X006612Y004612D01*
X006639Y004607D01*
X006665Y004599D01*
X006689Y004587D01*
X006712Y004571D01*
X006733Y004553D01*
X006750Y004532D01*
X006765Y004508D01*
X006776Y004483D01*
X006784Y004457D01*
X006788Y004430D01*
X006788Y004402D01*
X006784Y004375D01*
X006776Y004349D01*
X006765Y004324D01*
X006750Y004300D01*
X006733Y004279D01*
X006712Y004261D01*
X006690Y004245D01*
X006665Y004233D01*
X006639Y004225D01*
X006612Y004220D01*
X006584Y004219D01*
X006557Y004222D01*
X006530Y004229D01*
X006505Y004239D01*
X006481Y004253D01*
X006459Y004270D01*
X006440Y004289D01*
X006424Y004312D01*
X006411Y004336D01*
X006402Y004362D01*
X006396Y004389D01*
X006394Y004416D01*
X007394Y004416D02*
X007396Y004443D01*
X007402Y004470D01*
X007411Y004496D01*
X007424Y004520D01*
X007440Y004543D01*
X007459Y004562D01*
X007481Y004579D01*
X007505Y004593D01*
X007530Y004603D01*
X007557Y004610D01*
X007584Y004613D01*
X007612Y004612D01*
X007639Y004607D01*
X007665Y004599D01*
X007689Y004587D01*
X007712Y004571D01*
X007733Y004553D01*
X007750Y004532D01*
X007765Y004508D01*
X007776Y004483D01*
X007784Y004457D01*
X007788Y004430D01*
X007788Y004402D01*
X007784Y004375D01*
X007776Y004349D01*
X007765Y004324D01*
X007750Y004300D01*
X007733Y004279D01*
X007712Y004261D01*
X007690Y004245D01*
X007665Y004233D01*
X007639Y004225D01*
X007612Y004220D01*
X007584Y004219D01*
X007557Y004222D01*
X007530Y004229D01*
X007505Y004239D01*
X007481Y004253D01*
X007459Y004270D01*
X007440Y004289D01*
X007424Y004312D01*
X007411Y004336D01*
X007402Y004362D01*
X007396Y004389D01*
X007394Y004416D01*
X008394Y004416D02*
X008396Y004443D01*
X008402Y004470D01*
X008411Y004496D01*
X008424Y004520D01*
X008440Y004543D01*
X008459Y004562D01*
X008481Y004579D01*
X008505Y004593D01*
X008530Y004603D01*
X008557Y004610D01*
X008584Y004613D01*
X008612Y004612D01*
X008639Y004607D01*
X008665Y004599D01*
X008689Y004587D01*
X008712Y004571D01*
X008733Y004553D01*
X008750Y004532D01*
X008765Y004508D01*
X008776Y004483D01*
X008784Y004457D01*
X008788Y004430D01*
X008788Y004402D01*
X008784Y004375D01*
X008776Y004349D01*
X008765Y004324D01*
X008750Y004300D01*
X008733Y004279D01*
X008712Y004261D01*
X008690Y004245D01*
X008665Y004233D01*
X008639Y004225D01*
X008612Y004220D01*
X008584Y004219D01*
X008557Y004222D01*
X008530Y004229D01*
X008505Y004239D01*
X008481Y004253D01*
X008459Y004270D01*
X008440Y004289D01*
X008424Y004312D01*
X008411Y004336D01*
X008402Y004362D01*
X008396Y004389D01*
X008394Y004416D01*
X020214Y007749D02*
X020216Y007775D01*
X020222Y007801D01*
X020232Y007826D01*
X020245Y007849D01*
X020261Y007869D01*
X020281Y007887D01*
X020303Y007902D01*
X020326Y007914D01*
X020352Y007922D01*
X020378Y007926D01*
X020404Y007926D01*
X020430Y007922D01*
X020456Y007914D01*
X020480Y007902D01*
X020501Y007887D01*
X020521Y007869D01*
X020537Y007849D01*
X020550Y007826D01*
X020560Y007801D01*
X020566Y007775D01*
X020568Y007749D01*
X020566Y007723D01*
X020560Y007697D01*
X020550Y007672D01*
X020537Y007649D01*
X020521Y007629D01*
X020501Y007611D01*
X020479Y007596D01*
X020456Y007584D01*
X020430Y007576D01*
X020404Y007572D01*
X020378Y007572D01*
X020352Y007576D01*
X020326Y007584D01*
X020302Y007596D01*
X020281Y007611D01*
X020261Y007629D01*
X020245Y007649D01*
X020232Y007672D01*
X020222Y007697D01*
X020216Y007723D01*
X020214Y007749D01*
X020214Y009482D02*
X020216Y009508D01*
X020222Y009534D01*
X020232Y009559D01*
X020245Y009582D01*
X020261Y009602D01*
X020281Y009620D01*
X020303Y009635D01*
X020326Y009647D01*
X020352Y009655D01*
X020378Y009659D01*
X020404Y009659D01*
X020430Y009655D01*
X020456Y009647D01*
X020480Y009635D01*
X020501Y009620D01*
X020521Y009602D01*
X020537Y009582D01*
X020550Y009559D01*
X020560Y009534D01*
X020566Y009508D01*
X020568Y009482D01*
X020566Y009456D01*
X020560Y009430D01*
X020550Y009405D01*
X020537Y009382D01*
X020521Y009362D01*
X020501Y009344D01*
X020479Y009329D01*
X020456Y009317D01*
X020430Y009309D01*
X020404Y009305D01*
X020378Y009305D01*
X020352Y009309D01*
X020326Y009317D01*
X020302Y009329D01*
X020281Y009344D01*
X020261Y009362D01*
X020245Y009382D01*
X020232Y009405D01*
X020222Y009430D01*
X020216Y009456D01*
X020214Y009482D01*
D11*
X018091Y012416D03*
X018091Y013416D03*
X018091Y014416D03*
X018091Y015416D03*
X018091Y016416D03*
X018091Y017416D03*
X018091Y018416D03*
X017091Y018416D03*
X016091Y018416D03*
X016091Y017416D03*
X017091Y017416D03*
X017091Y016416D03*
X017091Y015416D03*
X016091Y015416D03*
X016091Y016416D03*
X016091Y014416D03*
X017091Y014416D03*
X017091Y013416D03*
X016091Y013416D03*
X016091Y012416D03*
X017091Y012416D03*
X016811Y020526D03*
X016811Y022306D03*
X019371Y022306D03*
X019371Y020526D03*
X009091Y017416D03*
X008091Y017416D03*
X007091Y017416D03*
X007091Y016416D03*
X007091Y015416D03*
X008091Y015416D03*
X008091Y016416D03*
X009091Y016416D03*
X009091Y015416D03*
X009091Y014416D03*
X008091Y014416D03*
X007091Y014416D03*
X007091Y013416D03*
X008091Y013416D03*
X009091Y013416D03*
X009091Y012416D03*
X008091Y012416D03*
X007091Y012416D03*
X008371Y020526D03*
X008371Y022306D03*
X005811Y022306D03*
X005811Y020526D03*
X015091Y004316D03*
X016091Y004316D03*
X017091Y004316D03*
X018091Y004316D03*
X019091Y004316D03*
D12*
X018091Y011416D03*
X017091Y011416D03*
X016091Y011416D03*
D13*
X015391Y010416D03*
X015391Y009416D03*
X013091Y004116D03*
X012091Y004116D03*
X009891Y003916D03*
X009891Y004916D03*
X008591Y005916D03*
X007591Y005916D03*
X006591Y005916D03*
X005591Y005916D03*
X005591Y007916D03*
X006591Y007916D03*
X007591Y007916D03*
X008591Y007916D03*
X008091Y011416D03*
X007091Y011416D03*
X005991Y018816D03*
X004991Y018816D03*
D14*
X010591Y021416D03*
X014591Y021416D03*
D15*
X013591Y021416D03*
X012591Y021416D03*
X011591Y021416D03*
D16*
X011348Y018416D02*
X010833Y018416D01*
X010833Y017416D02*
X011348Y017416D01*
X011348Y016416D02*
X010833Y016416D01*
X010833Y015416D02*
X011348Y015416D01*
X011348Y014416D02*
X010833Y014416D01*
X010833Y013416D02*
X011348Y013416D01*
X011348Y012416D02*
X010833Y012416D01*
X010833Y011416D02*
X011348Y011416D01*
X011348Y010416D02*
X010833Y010416D01*
X010833Y009416D02*
X011348Y009416D01*
X011348Y008416D02*
X010833Y008416D01*
X010833Y007416D02*
X011348Y007416D01*
X011348Y006416D02*
X010833Y006416D01*
X010833Y005416D02*
X011348Y005416D01*
X013833Y005416D02*
X014348Y005416D01*
X014348Y006416D02*
X013833Y006416D01*
X013833Y007416D02*
X014348Y007416D01*
X014348Y008416D02*
X013833Y008416D01*
X013833Y009416D02*
X014348Y009416D01*
X014348Y010416D02*
X013833Y010416D01*
X013833Y011416D02*
X014348Y011416D01*
X014348Y012416D02*
X013833Y012416D01*
X013833Y013416D02*
X014348Y013416D01*
X014348Y014416D02*
X013833Y014416D01*
X013833Y015416D02*
X014348Y015416D01*
X014348Y016416D02*
X013833Y016416D01*
X013833Y017416D02*
X014348Y017416D01*
X014348Y018416D02*
X013833Y018416D01*
D17*
X014091Y019416D03*
X011572Y020316D03*
X011091Y019416D03*
X009991Y018416D03*
X009210Y020316D03*
X008091Y019416D03*
X006991Y018416D03*
X006141Y009416D03*
X008041Y009416D03*
X009891Y008916D03*
X009891Y005916D03*
X017091Y019416D03*
D18*
X003647Y003739D02*
X003341Y003916D01*
X003091Y004166D01*
X002914Y004472D01*
X002822Y004814D01*
X002811Y004990D01*
X002811Y021526D01*
X002822Y021703D01*
X002914Y022044D01*
X003091Y022351D01*
X003341Y022601D01*
X003647Y022778D01*
X003989Y022869D01*
X004166Y022881D01*
X020701Y022881D01*
X020878Y022869D01*
X021220Y022778D01*
X021526Y022601D01*
X021776Y022351D01*
X021953Y022044D01*
X022044Y021703D01*
X022056Y021526D01*
X022056Y004990D01*
X022044Y004814D01*
X021953Y004472D01*
X021776Y004166D01*
X021526Y003916D01*
X021220Y003739D01*
X020878Y003647D01*
X020701Y003636D01*
X013215Y003636D01*
X013281Y003657D01*
X013350Y003692D01*
X013413Y003738D01*
X013468Y003793D01*
X013514Y003856D01*
X013550Y003926D01*
X013574Y004000D01*
X013586Y004077D01*
X013586Y004116D01*
X013586Y004155D01*
X013574Y004232D01*
X013550Y004306D01*
X013514Y004375D01*
X013468Y004438D01*
X013413Y004493D01*
X013350Y004539D01*
X013281Y004574D01*
X013207Y004598D01*
X013130Y004611D01*
X013091Y004611D01*
X013091Y004116D01*
X013091Y004116D01*
X013586Y004116D01*
X013091Y004116D01*
X013091Y004116D01*
X013091Y004611D01*
X013052Y004611D01*
X012975Y004598D01*
X012901Y004574D01*
X012831Y004539D01*
X012768Y004493D01*
X012713Y004438D01*
X012667Y004375D01*
X012632Y004306D01*
X012614Y004250D01*
X012544Y004419D01*
X012394Y004569D01*
X012197Y004651D01*
X011984Y004651D01*
X011788Y004569D01*
X011637Y004419D01*
X011556Y004222D01*
X011556Y004009D01*
X011637Y003813D01*
X011788Y003662D01*
X011852Y003636D01*
X010299Y003636D01*
X010314Y003656D01*
X010350Y003726D01*
X010374Y003800D01*
X010386Y003877D01*
X010386Y003916D01*
X010386Y003955D01*
X010374Y004032D01*
X010350Y004106D01*
X010314Y004175D01*
X010268Y004238D01*
X010213Y004293D01*
X010150Y004339D01*
X010081Y004374D01*
X010025Y004392D01*
X010194Y004462D01*
X010344Y004613D01*
X010426Y004809D01*
X010426Y005022D01*
X010344Y005219D01*
X010194Y005369D01*
X010007Y005447D01*
X010161Y005511D01*
X010296Y005645D01*
X010368Y005821D01*
X010368Y006011D01*
X010296Y006186D01*
X010161Y006320D01*
X009986Y006393D01*
X009796Y006393D01*
X009620Y006320D01*
X009486Y006186D01*
X009413Y006011D01*
X009413Y005821D01*
X009486Y005645D01*
X009620Y005511D01*
X009775Y005447D01*
X009588Y005369D01*
X009437Y005219D01*
X009356Y005022D01*
X009356Y004809D01*
X009437Y004613D01*
X009588Y004462D01*
X009756Y004392D01*
X009701Y004374D01*
X009631Y004339D01*
X009568Y004293D01*
X009513Y004238D01*
X009467Y004175D01*
X009432Y004106D01*
X009408Y004032D01*
X009396Y003955D01*
X009396Y003916D01*
X009891Y003916D01*
X010386Y003916D01*
X009891Y003916D01*
X009891Y003916D01*
X009891Y003916D01*
X009396Y003916D01*
X009396Y003877D01*
X009408Y003800D01*
X009432Y003726D01*
X009467Y003656D01*
X009482Y003636D01*
X004166Y003636D01*
X003989Y003647D01*
X003647Y003739D01*
X003670Y003733D02*
X009430Y003733D01*
X009396Y003891D02*
X003383Y003891D01*
X003207Y004050D02*
X005385Y004050D01*
X005355Y004062D02*
X005508Y003999D01*
X005674Y003999D01*
X005827Y004062D01*
X005944Y004179D01*
X006008Y004333D01*
X006008Y004499D01*
X005944Y004652D01*
X005827Y004769D01*
X005674Y004832D01*
X005508Y004832D01*
X005355Y004769D01*
X005237Y004652D01*
X005174Y004499D01*
X005174Y004333D01*
X005237Y004179D01*
X005355Y004062D01*
X005226Y004208D02*
X004498Y004208D01*
X004647Y004270D02*
X004886Y004509D01*
X005016Y004821D01*
X005016Y005159D01*
X009413Y005159D01*
X009356Y005001D02*
X005016Y005001D01*
X005016Y005159D02*
X004886Y005472D01*
X004647Y005711D01*
X004335Y005840D01*
X003997Y005840D01*
X003684Y005711D01*
X003445Y005472D01*
X003316Y005159D01*
X002811Y005159D01*
X002811Y005001D02*
X003316Y005001D01*
X003316Y005159D02*
X003316Y004821D01*
X003445Y004509D01*
X003684Y004270D01*
X003997Y004140D01*
X004335Y004140D01*
X004647Y004270D01*
X004744Y004367D02*
X005174Y004367D01*
X005185Y004525D02*
X004893Y004525D01*
X004958Y004684D02*
X005269Y004684D01*
X005016Y004842D02*
X009356Y004842D01*
X009408Y004684D02*
X008912Y004684D01*
X008944Y004652D02*
X008827Y004769D01*
X008674Y004832D01*
X008508Y004832D01*
X008355Y004769D01*
X008237Y004652D01*
X008174Y004499D01*
X008174Y004333D01*
X008237Y004179D01*
X008355Y004062D01*
X008508Y003999D01*
X008674Y003999D01*
X008827Y004062D01*
X008944Y004179D01*
X009008Y004333D01*
X009008Y004499D01*
X008944Y004652D01*
X008997Y004525D02*
X009525Y004525D01*
X009686Y004367D02*
X009008Y004367D01*
X008956Y004208D02*
X009492Y004208D01*
X009414Y004050D02*
X008796Y004050D01*
X008385Y004050D02*
X007796Y004050D01*
X007827Y004062D02*
X007944Y004179D01*
X008008Y004333D01*
X008008Y004499D01*
X007944Y004652D01*
X007827Y004769D01*
X007674Y004832D01*
X007508Y004832D01*
X007355Y004769D01*
X007237Y004652D01*
X007174Y004499D01*
X007174Y004333D01*
X007237Y004179D01*
X007355Y004062D01*
X007508Y003999D01*
X007674Y003999D01*
X007827Y004062D01*
X007956Y004208D02*
X008226Y004208D01*
X008174Y004367D02*
X008008Y004367D01*
X007997Y004525D02*
X008185Y004525D01*
X008269Y004684D02*
X007912Y004684D01*
X007269Y004684D02*
X006912Y004684D01*
X006944Y004652D02*
X006827Y004769D01*
X006674Y004832D01*
X006508Y004832D01*
X006355Y004769D01*
X006237Y004652D01*
X006174Y004499D01*
X006174Y004333D01*
X006237Y004179D01*
X006355Y004062D01*
X006508Y003999D01*
X006674Y003999D01*
X006827Y004062D01*
X006944Y004179D01*
X007008Y004333D01*
X007008Y004499D01*
X006944Y004652D01*
X006997Y004525D02*
X007185Y004525D01*
X007174Y004367D02*
X007008Y004367D01*
X006956Y004208D02*
X007226Y004208D01*
X007385Y004050D02*
X006796Y004050D01*
X006385Y004050D02*
X005796Y004050D01*
X005956Y004208D02*
X006226Y004208D01*
X006174Y004367D02*
X006008Y004367D01*
X005997Y004525D02*
X006185Y004525D01*
X006269Y004684D02*
X005912Y004684D01*
X005697Y005381D02*
X005484Y005381D01*
X005288Y005462D01*
X005137Y005613D01*
X005056Y005809D01*
X005056Y006022D01*
X005137Y006219D01*
X005288Y006369D01*
X005484Y006451D01*
X005697Y006451D01*
X005894Y006369D01*
X006044Y006219D01*
X006091Y006106D01*
X006137Y006219D01*
X006288Y006369D01*
X006484Y006451D01*
X006697Y006451D01*
X006894Y006369D01*
X007044Y006219D01*
X007091Y006106D01*
X007137Y006219D01*
X007288Y006369D01*
X007484Y006451D01*
X007697Y006451D01*
X007894Y006369D01*
X008044Y006219D01*
X008114Y006050D01*
X008132Y006106D01*
X008167Y006175D01*
X008213Y006238D01*
X008268Y006293D01*
X008331Y006339D01*
X008401Y006374D01*
X008475Y006398D01*
X008552Y006411D01*
X008591Y006411D01*
X008591Y005916D01*
X008591Y005916D01*
X009086Y005916D01*
X009086Y005955D01*
X009074Y006032D01*
X009050Y006106D01*
X009014Y006175D01*
X008968Y006238D01*
X008913Y006293D01*
X008850Y006339D01*
X008781Y006374D01*
X008707Y006398D01*
X008630Y006411D01*
X008591Y006411D01*
X008591Y005916D01*
X008591Y005916D01*
X009086Y005916D01*
X009086Y005877D01*
X009074Y005800D01*
X009050Y005726D01*
X009014Y005656D01*
X008968Y005593D01*
X008913Y005538D01*
X008850Y005492D01*
X008781Y005457D01*
X008707Y005433D01*
X008630Y005421D01*
X008591Y005421D01*
X008591Y005916D01*
X008591Y005916D01*
X008591Y005421D01*
X008552Y005421D01*
X008475Y005433D01*
X008401Y005457D01*
X008331Y005492D01*
X008268Y005538D01*
X008213Y005593D01*
X008167Y005656D01*
X008132Y005726D01*
X008114Y005781D01*
X008044Y005613D01*
X007894Y005462D01*
X007697Y005381D01*
X007484Y005381D01*
X007288Y005462D01*
X007137Y005613D01*
X007091Y005725D01*
X007044Y005613D01*
X006894Y005462D01*
X006697Y005381D01*
X006484Y005381D01*
X006288Y005462D01*
X006137Y005613D01*
X006091Y005725D01*
X006044Y005613D01*
X005894Y005462D01*
X005697Y005381D01*
X005908Y005476D02*
X006274Y005476D01*
X006128Y005635D02*
X006053Y005635D01*
X006089Y006110D02*
X006092Y006110D01*
X006187Y006269D02*
X005994Y006269D01*
X005754Y006427D02*
X006428Y006427D01*
X006754Y006427D02*
X007428Y006427D01*
X007187Y006269D02*
X006994Y006269D01*
X007089Y006110D02*
X007092Y006110D01*
X007053Y005635D02*
X007128Y005635D01*
X007274Y005476D02*
X006908Y005476D01*
X007908Y005476D02*
X008363Y005476D01*
X008591Y005476D02*
X008591Y005476D01*
X008591Y005635D02*
X008591Y005635D01*
X008591Y005793D02*
X008591Y005793D01*
X008591Y005952D02*
X008591Y005952D01*
X008591Y006110D02*
X008591Y006110D01*
X008591Y006269D02*
X008591Y006269D01*
X008938Y006269D02*
X009569Y006269D01*
X009455Y006110D02*
X009047Y006110D01*
X009086Y005952D02*
X009413Y005952D01*
X009425Y005793D02*
X009071Y005793D01*
X008998Y005635D02*
X009497Y005635D01*
X009704Y005476D02*
X008818Y005476D01*
X008183Y005635D02*
X008053Y005635D01*
X008089Y006110D02*
X008134Y006110D01*
X008244Y006269D02*
X007994Y006269D01*
X007754Y006427D02*
X010356Y006427D01*
X010356Y006511D02*
X010356Y006321D01*
X010429Y006145D01*
X010563Y006011D01*
X010738Y005938D01*
X011443Y005938D01*
X011619Y006011D01*
X011753Y006145D01*
X011826Y006321D01*
X011826Y006511D01*
X011753Y006686D01*
X011619Y006820D01*
X011443Y006893D01*
X010738Y006893D01*
X010563Y006820D01*
X010429Y006686D01*
X010356Y006511D01*
X010387Y006586D02*
X002811Y006586D01*
X002811Y006744D02*
X010487Y006744D01*
X010563Y007011D02*
X010429Y007145D01*
X010356Y007321D01*
X010356Y007511D01*
X010429Y007686D01*
X010563Y007820D01*
X010738Y007893D01*
X011443Y007893D01*
X011619Y007820D01*
X011753Y007686D01*
X011826Y007511D01*
X011826Y007321D01*
X011753Y007145D01*
X011619Y007011D01*
X011443Y006938D01*
X010738Y006938D01*
X010563Y007011D01*
X010513Y007061D02*
X002811Y007061D01*
X002811Y006903D02*
X022056Y006903D01*
X022056Y007061D02*
X014669Y007061D01*
X014619Y007011D02*
X014753Y007145D01*
X014826Y007321D01*
X014826Y007511D01*
X014753Y007686D01*
X014619Y007820D01*
X014443Y007893D01*
X013738Y007893D01*
X013563Y007820D01*
X013429Y007686D01*
X013356Y007511D01*
X013356Y007321D01*
X013429Y007145D01*
X013563Y007011D01*
X013738Y006938D01*
X014443Y006938D01*
X014619Y007011D01*
X014619Y006820D02*
X014443Y006893D01*
X013738Y006893D01*
X013563Y006820D01*
X013429Y006686D01*
X013356Y006511D01*
X013356Y006321D01*
X013429Y006145D01*
X013563Y006011D01*
X013738Y005938D01*
X014443Y005938D01*
X014619Y006011D01*
X014753Y006145D01*
X014826Y006321D01*
X014826Y006511D01*
X014753Y006686D01*
X014619Y006820D01*
X014695Y006744D02*
X022056Y006744D01*
X022056Y006586D02*
X014795Y006586D01*
X014826Y006427D02*
X022056Y006427D01*
X022056Y006269D02*
X014804Y006269D01*
X014718Y006110D02*
X022056Y006110D01*
X022056Y005952D02*
X014476Y005952D01*
X014443Y005893D02*
X014619Y005820D01*
X014753Y005686D01*
X014826Y005511D01*
X014826Y005321D01*
X014753Y005145D01*
X014619Y005011D01*
X014443Y004938D01*
X013738Y004938D01*
X013563Y005011D01*
X013429Y005145D01*
X013356Y005321D01*
X013356Y005511D01*
X013429Y005686D01*
X013563Y005820D01*
X013738Y005893D01*
X014443Y005893D01*
X014646Y005793D02*
X020418Y005793D01*
X020532Y005840D02*
X020220Y005711D01*
X019981Y005472D01*
X019851Y005159D01*
X014759Y005159D01*
X014825Y005318D02*
X019917Y005318D01*
X019851Y005159D02*
X019851Y004821D01*
X019981Y004509D01*
X020220Y004270D01*
X020532Y004140D01*
X020870Y004140D01*
X021182Y004270D01*
X021422Y004509D01*
X021551Y004821D01*
X021551Y005159D01*
X022056Y005159D01*
X022056Y005001D02*
X021551Y005001D01*
X021551Y005159D02*
X021422Y005472D01*
X021182Y005711D01*
X020870Y005840D01*
X020532Y005840D01*
X020143Y005635D02*
X014774Y005635D01*
X014826Y005476D02*
X019985Y005476D01*
X019851Y005001D02*
X014594Y005001D01*
X014803Y004786D02*
X014733Y004735D01*
X014671Y004674D01*
X014620Y004604D01*
X014581Y004527D01*
X014554Y004444D01*
X014541Y004359D01*
X014541Y004334D01*
X015072Y004334D01*
X015072Y004297D01*
X014541Y004297D01*
X014541Y004272D01*
X014554Y004187D01*
X014581Y004104D01*
X014620Y004027D01*
X014671Y003957D01*
X014733Y003896D01*
X014803Y003845D01*
X014880Y003806D01*
X014962Y003779D01*
X015048Y003766D01*
X015072Y003766D01*
X015072Y004297D01*
X015109Y004297D01*
X015109Y003766D01*
X015134Y003766D01*
X015220Y003779D01*
X015302Y003806D01*
X015379Y003845D01*
X015449Y003896D01*
X015510Y003957D01*
X015561Y004027D01*
X015567Y004039D01*
X015591Y003981D01*
X015757Y003815D01*
X015973Y003726D01*
X016208Y003726D01*
X016425Y003815D01*
X016591Y003981D01*
X016757Y003815D01*
X016973Y003726D01*
X017208Y003726D01*
X017425Y003815D01*
X017591Y003981D01*
X017757Y003815D01*
X017973Y003726D01*
X018208Y003726D01*
X018425Y003815D01*
X018591Y003981D01*
X018757Y003815D01*
X018973Y003726D01*
X019208Y003726D01*
X019425Y003815D01*
X019591Y003981D01*
X019681Y004198D01*
X019681Y004433D01*
X019591Y004650D01*
X019425Y004816D01*
X019208Y004906D01*
X018973Y004906D01*
X018757Y004816D01*
X018591Y004650D01*
X018425Y004816D01*
X018208Y004906D01*
X017973Y004906D01*
X017757Y004816D01*
X017591Y004650D01*
X017425Y004816D01*
X017208Y004906D01*
X016973Y004906D01*
X016757Y004816D01*
X016591Y004650D01*
X016425Y004816D01*
X016208Y004906D01*
X015973Y004906D01*
X015757Y004816D01*
X015591Y004650D01*
X015567Y004593D01*
X015561Y004604D01*
X015510Y004674D01*
X015449Y004735D01*
X015379Y004786D01*
X015302Y004825D01*
X015220Y004852D01*
X015134Y004866D01*
X015109Y004866D01*
X015109Y004334D01*
X015072Y004334D01*
X015072Y004866D01*
X015048Y004866D01*
X014962Y004852D01*
X014880Y004825D01*
X014803Y004786D01*
X014931Y004842D02*
X010426Y004842D01*
X010426Y005001D02*
X010588Y005001D01*
X010563Y005011D02*
X010738Y004938D01*
X011443Y004938D01*
X011619Y005011D01*
X011753Y005145D01*
X011826Y005321D01*
X011826Y005511D01*
X011753Y005686D01*
X011619Y005820D01*
X011443Y005893D01*
X010738Y005893D01*
X010563Y005820D01*
X010429Y005686D01*
X010356Y005511D01*
X010356Y005321D01*
X010429Y005145D01*
X010563Y005011D01*
X010423Y005159D02*
X010369Y005159D01*
X010357Y005318D02*
X010245Y005318D01*
X010356Y005476D02*
X010077Y005476D01*
X010285Y005635D02*
X010407Y005635D01*
X010357Y005793D02*
X010536Y005793D01*
X010368Y005952D02*
X010706Y005952D01*
X010464Y006110D02*
X010327Y006110D01*
X010377Y006269D02*
X010213Y006269D01*
X010398Y007220D02*
X002811Y007220D01*
X002811Y007378D02*
X010356Y007378D01*
X010367Y007537D02*
X008968Y007537D01*
X008894Y007462D02*
X009044Y007613D01*
X009126Y007809D01*
X009126Y008022D01*
X009044Y008219D01*
X008894Y008369D01*
X008697Y008451D01*
X008484Y008451D01*
X008288Y008369D01*
X008137Y008219D01*
X008068Y008050D01*
X008050Y008106D01*
X008014Y008175D01*
X007968Y008238D01*
X007913Y008293D01*
X007850Y008339D01*
X007781Y008374D01*
X007707Y008398D01*
X007630Y008411D01*
X007591Y008411D01*
X007591Y007916D01*
X007591Y007916D01*
X007591Y008411D01*
X007552Y008411D01*
X007475Y008398D01*
X007401Y008374D01*
X007331Y008339D01*
X007268Y008293D01*
X007213Y008238D01*
X007167Y008175D01*
X007132Y008106D01*
X007108Y008032D01*
X007096Y007955D01*
X007096Y007916D01*
X007591Y007916D01*
X007591Y007916D01*
X007591Y007421D01*
X007630Y007421D01*
X007707Y007433D01*
X007781Y007457D01*
X007850Y007492D01*
X007913Y007538D01*
X007968Y007593D01*
X008014Y007656D01*
X008050Y007726D01*
X008068Y007781D01*
X008137Y007613D01*
X008288Y007462D01*
X008484Y007381D01*
X008697Y007381D01*
X008894Y007462D01*
X009079Y007695D02*
X010438Y007695D01*
X010643Y007854D02*
X009126Y007854D01*
X009126Y008012D02*
X010562Y008012D01*
X010563Y008011D02*
X010738Y007938D01*
X011443Y007938D01*
X011619Y008011D01*
X011753Y008145D01*
X011826Y008321D01*
X011826Y008511D01*
X011753Y008686D01*
X011619Y008820D01*
X011443Y008893D01*
X010738Y008893D01*
X010563Y008820D01*
X010429Y008686D01*
X010356Y008511D01*
X010356Y008321D01*
X010429Y008145D01*
X010563Y008011D01*
X010418Y008171D02*
X009064Y008171D01*
X008934Y008329D02*
X010356Y008329D01*
X010356Y008488D02*
X010105Y008488D01*
X010161Y008511D02*
X010296Y008645D01*
X010368Y008821D01*
X010368Y009011D01*
X010296Y009186D01*
X010161Y009320D01*
X009986Y009393D01*
X009796Y009393D01*
X009620Y009320D01*
X009486Y009186D01*
X009413Y009011D01*
X009413Y008821D01*
X009486Y008645D01*
X009620Y008511D01*
X009796Y008438D01*
X009986Y008438D01*
X010161Y008511D01*
X010296Y008646D02*
X010412Y008646D01*
X010362Y008805D02*
X010547Y008805D01*
X010678Y008963D02*
X010368Y008963D01*
X010322Y009122D02*
X010452Y009122D01*
X010429Y009145D02*
X010563Y009011D01*
X010738Y008938D01*
X011443Y008938D01*
X011619Y009011D01*
X011753Y009145D01*
X011826Y009321D01*
X011826Y009511D01*
X011753Y009686D01*
X011619Y009820D01*
X011443Y009893D01*
X010738Y009893D01*
X010563Y009820D01*
X010429Y009686D01*
X010356Y009511D01*
X010356Y009321D01*
X010429Y009145D01*
X010373Y009280D02*
X010202Y009280D01*
X010356Y009439D02*
X008518Y009439D01*
X008518Y009511D02*
X008518Y009321D01*
X008446Y009145D01*
X008311Y009011D01*
X008136Y008938D01*
X007946Y008938D01*
X007770Y009011D01*
X007636Y009145D01*
X007563Y009321D01*
X007563Y009511D01*
X007636Y009686D01*
X007770Y009820D01*
X007946Y009893D01*
X008136Y009893D01*
X008311Y009820D01*
X008446Y009686D01*
X008518Y009511D01*
X008482Y009597D02*
X010392Y009597D01*
X010498Y009756D02*
X008376Y009756D01*
X008502Y009280D02*
X009580Y009280D01*
X009459Y009122D02*
X008422Y009122D01*
X008196Y008963D02*
X009413Y008963D01*
X009420Y008805D02*
X002811Y008805D01*
X002811Y008963D02*
X005986Y008963D01*
X006046Y008938D02*
X006236Y008938D01*
X006411Y009011D01*
X006546Y009145D01*
X006618Y009321D01*
X006618Y009511D01*
X006546Y009686D01*
X006411Y009820D01*
X006236Y009893D01*
X006046Y009893D01*
X005870Y009820D01*
X005736Y009686D01*
X005663Y009511D01*
X005663Y009321D01*
X005736Y009145D01*
X005870Y009011D01*
X006046Y008938D01*
X006296Y008963D02*
X007886Y008963D01*
X007660Y009122D02*
X006522Y009122D01*
X006602Y009280D02*
X007580Y009280D01*
X007563Y009439D02*
X006618Y009439D01*
X006582Y009597D02*
X007599Y009597D01*
X007706Y009756D02*
X006476Y009756D01*
X005806Y009756D02*
X002811Y009756D01*
X002811Y009914D02*
X015204Y009914D01*
X015201Y009874D02*
X015131Y009839D01*
X015068Y009793D01*
X015013Y009738D01*
X014967Y009675D01*
X014932Y009606D01*
X014908Y009532D01*
X014896Y009455D01*
X014896Y009416D01*
X015391Y009416D01*
X015886Y009416D01*
X015886Y009455D01*
X015874Y009532D01*
X015850Y009606D01*
X015814Y009675D01*
X015768Y009738D01*
X015713Y009793D01*
X015650Y009839D01*
X015581Y009874D01*
X015525Y009892D01*
X015694Y009962D01*
X015844Y010113D01*
X015926Y010309D01*
X015926Y010522D01*
X015844Y010719D01*
X015737Y010826D01*
X016552Y010826D01*
X016591Y010864D01*
X016630Y010826D01*
X017552Y010826D01*
X017621Y010895D01*
X017651Y010878D01*
X017697Y010866D01*
X018072Y010866D01*
X018072Y011397D01*
X018109Y011397D01*
X018109Y010866D01*
X018485Y010866D01*
X018530Y010878D01*
X018571Y010902D01*
X018605Y010935D01*
X018629Y010976D01*
X018641Y011022D01*
X018641Y011397D01*
X018109Y011397D01*
X018109Y011434D01*
X018072Y011434D01*
X018072Y012397D01*
X018109Y012397D01*
X018109Y011866D01*
X018109Y011434D01*
X018641Y011434D01*
X018641Y011809D01*
X018629Y011855D01*
X018605Y011896D01*
X018571Y011930D01*
X018530Y011953D01*
X018485Y011966D01*
X018407Y011966D01*
X018449Y011996D01*
X018510Y012057D01*
X018561Y012127D01*
X018601Y012204D01*
X018627Y012287D01*
X018641Y012372D01*
X018641Y012397D01*
X018109Y012397D01*
X018109Y012434D01*
X018072Y012434D01*
X018072Y013397D01*
X018109Y013397D01*
X018109Y012866D01*
X018109Y012434D01*
X018641Y012434D01*
X018641Y012459D01*
X018627Y012544D01*
X018601Y012627D01*
X018561Y012704D01*
X018510Y012774D01*
X018449Y012835D01*
X018379Y012886D01*
X018321Y012916D01*
X018379Y012945D01*
X018449Y012996D01*
X018510Y013057D01*
X018561Y013127D01*
X018601Y013204D01*
X018627Y013287D01*
X018641Y013372D01*
X018641Y013397D01*
X018109Y013397D01*
X018109Y013434D01*
X018072Y013434D01*
X018072Y014397D01*
X018109Y014397D01*
X018109Y013966D01*
X018109Y013434D01*
X018641Y013434D01*
X018641Y013459D01*
X018627Y013544D01*
X018601Y013627D01*
X018561Y013704D01*
X018510Y013774D01*
X018449Y013835D01*
X018379Y013886D01*
X018321Y013916D01*
X018379Y013945D01*
X018449Y013996D01*
X018510Y014057D01*
X018561Y014127D01*
X018601Y014204D01*
X018627Y014287D01*
X018641Y014372D01*
X018641Y014397D01*
X018109Y014397D01*
X018109Y014434D01*
X018072Y014434D01*
X018072Y015397D01*
X018109Y015397D01*
X018109Y014866D01*
X018109Y014434D01*
X018641Y014434D01*
X018641Y014459D01*
X018627Y014544D01*
X018601Y014627D01*
X018561Y014704D01*
X018510Y014774D01*
X018449Y014835D01*
X018379Y014886D01*
X018321Y014916D01*
X018379Y014945D01*
X018449Y014996D01*
X018510Y015057D01*
X018561Y015127D01*
X018601Y015204D01*
X018627Y015287D01*
X018641Y015372D01*
X018641Y015397D01*
X018109Y015397D01*
X018109Y015434D01*
X018072Y015434D01*
X018072Y016397D01*
X018109Y016397D01*
X018109Y015866D01*
X018109Y015434D01*
X018641Y015434D01*
X018641Y015459D01*
X018627Y015544D01*
X018601Y015627D01*
X018561Y015704D01*
X018510Y015774D01*
X018449Y015835D01*
X018379Y015886D01*
X018321Y015916D01*
X018379Y015945D01*
X018449Y015996D01*
X018510Y016057D01*
X018561Y016127D01*
X018601Y016204D01*
X018627Y016287D01*
X018641Y016372D01*
X018641Y016397D01*
X018109Y016397D01*
X018109Y016434D01*
X018072Y016434D01*
X018072Y017397D01*
X018109Y017397D01*
X018109Y016866D01*
X018109Y016434D01*
X018641Y016434D01*
X018641Y016459D01*
X018627Y016544D01*
X018601Y016627D01*
X018561Y016704D01*
X018510Y016774D01*
X018449Y016835D01*
X018379Y016886D01*
X018321Y016916D01*
X018379Y016945D01*
X018449Y016996D01*
X018510Y017057D01*
X018561Y017127D01*
X018601Y017204D01*
X018627Y017287D01*
X018641Y017372D01*
X018641Y017397D01*
X018109Y017397D01*
X018109Y017434D01*
X018072Y017434D01*
X018072Y018397D01*
X018109Y018397D01*
X018109Y017866D01*
X018109Y017434D01*
X018641Y017434D01*
X018641Y017459D01*
X018627Y017544D01*
X018601Y017627D01*
X018561Y017704D01*
X018510Y017774D01*
X018449Y017835D01*
X018379Y017886D01*
X018321Y017916D01*
X018379Y017945D01*
X018449Y017996D01*
X018510Y018057D01*
X018561Y018127D01*
X018601Y018204D01*
X018627Y018287D01*
X018641Y018372D01*
X018641Y018397D01*
X018109Y018397D01*
X018109Y018434D01*
X018072Y018434D01*
X018072Y018966D01*
X018048Y018966D01*
X017962Y018952D01*
X017880Y018925D01*
X017803Y018886D01*
X017733Y018835D01*
X017671Y018774D01*
X017620Y018704D01*
X017615Y018693D01*
X017591Y018750D01*
X017425Y018916D01*
X017278Y018977D01*
X017361Y019011D01*
X017496Y019145D01*
X017568Y019321D01*
X017568Y019511D01*
X017496Y019686D01*
X017361Y019820D01*
X017186Y019893D01*
X016996Y019893D01*
X016820Y019820D01*
X016686Y019686D01*
X016613Y019511D01*
X016613Y019321D01*
X016686Y019145D01*
X016820Y019011D01*
X016903Y018977D01*
X016757Y018916D01*
X016591Y018750D01*
X016425Y018916D01*
X016208Y019006D01*
X015973Y019006D01*
X015757Y018916D01*
X015591Y018750D01*
X015501Y018533D01*
X015501Y018298D01*
X015591Y018081D01*
X015756Y017916D01*
X015591Y017750D01*
X015501Y017533D01*
X015501Y017298D01*
X015591Y017081D01*
X015756Y016916D01*
X015591Y016750D01*
X015501Y016533D01*
X015501Y016298D01*
X015591Y016081D01*
X015756Y015916D01*
X015591Y015750D01*
X015501Y015533D01*
X015501Y015298D01*
X015591Y015081D01*
X015756Y014916D01*
X015591Y014750D01*
X015501Y014533D01*
X015501Y014298D01*
X015591Y014081D01*
X015756Y013916D01*
X015591Y013750D01*
X015501Y013533D01*
X015501Y013298D01*
X015591Y013081D01*
X015756Y012916D01*
X015591Y012750D01*
X015501Y012533D01*
X015501Y012298D01*
X015591Y012081D01*
X015666Y012006D01*
X015630Y012006D01*
X015501Y011877D01*
X015501Y010954D01*
X015510Y010945D01*
X015497Y010951D01*
X015284Y010951D01*
X015088Y010869D01*
X014937Y010719D01*
X014856Y010522D01*
X014856Y010309D01*
X014937Y010113D01*
X015088Y009962D01*
X015256Y009892D01*
X015201Y009874D01*
X015031Y009756D02*
X014625Y009756D01*
X014633Y009749D02*
X014578Y009790D01*
X014516Y009821D01*
X014451Y009842D01*
X014383Y009853D01*
X014091Y009853D01*
X014091Y009416D01*
X014091Y009416D01*
X014786Y009416D01*
X014786Y009450D01*
X014775Y009518D01*
X014754Y009584D01*
X014722Y009645D01*
X014682Y009701D01*
X014633Y009749D01*
X014747Y009597D02*
X014929Y009597D01*
X014896Y009439D02*
X014786Y009439D01*
X014786Y009416D02*
X014091Y009416D01*
X014091Y009416D01*
X014091Y009853D01*
X013799Y009853D01*
X013731Y009842D01*
X013665Y009821D01*
X013604Y009790D01*
X013548Y009749D01*
X013500Y009701D01*
X013459Y009645D01*
X013428Y009584D01*
X013407Y009518D01*
X013396Y009450D01*
X013396Y009416D01*
X014091Y009416D01*
X014091Y009416D01*
X014091Y008978D01*
X014383Y008978D01*
X014451Y008989D01*
X014516Y009010D01*
X014578Y009041D01*
X014633Y009082D01*
X014682Y009131D01*
X014722Y009186D01*
X014754Y009248D01*
X014775Y009313D01*
X014786Y009381D01*
X014786Y009416D01*
X014896Y009416D02*
X014896Y009377D01*
X014908Y009300D01*
X014932Y009226D01*
X014967Y009156D01*
X015013Y009093D01*
X015068Y009038D01*
X015131Y008992D01*
X015201Y008957D01*
X015275Y008933D01*
X015352Y008921D01*
X015391Y008921D01*
X015430Y008921D01*
X015507Y008933D01*
X015581Y008957D01*
X015650Y008992D01*
X015713Y009038D01*
X015768Y009093D01*
X015814Y009156D01*
X015850Y009226D01*
X015874Y009300D01*
X015886Y009377D01*
X015886Y009416D01*
X015391Y009416D01*
X015391Y009416D01*
X015391Y009416D01*
X015391Y008921D01*
X015391Y009416D01*
X015391Y009416D01*
X014896Y009416D01*
X014914Y009280D02*
X014764Y009280D01*
X014673Y009122D02*
X014993Y009122D01*
X015189Y008963D02*
X011504Y008963D01*
X011635Y008805D02*
X013547Y008805D01*
X013563Y008820D02*
X013429Y008686D01*
X013356Y008511D01*
X013356Y008321D01*
X013429Y008145D01*
X013563Y008011D01*
X013738Y007938D01*
X014443Y007938D01*
X014619Y008011D01*
X014753Y008145D01*
X014826Y008321D01*
X014826Y008511D01*
X014753Y008686D01*
X014619Y008820D01*
X014443Y008893D01*
X013738Y008893D01*
X013563Y008820D01*
X013665Y009010D02*
X013731Y008989D01*
X013799Y008978D01*
X014091Y008978D01*
X014091Y009416D01*
X014091Y009416D01*
X013396Y009416D01*
X013396Y009381D01*
X013407Y009313D01*
X013428Y009248D01*
X013459Y009186D01*
X013500Y009131D01*
X013548Y009082D01*
X013604Y009041D01*
X013665Y009010D01*
X013509Y009122D02*
X011730Y009122D01*
X011809Y009280D02*
X013417Y009280D01*
X013396Y009439D02*
X011826Y009439D01*
X011790Y009597D02*
X013435Y009597D01*
X013557Y009756D02*
X011684Y009756D01*
X011619Y010011D02*
X011443Y009938D01*
X010738Y009938D01*
X010563Y010011D01*
X010429Y010145D01*
X010356Y010321D01*
X010356Y010511D01*
X010429Y010686D01*
X010563Y010820D01*
X010738Y010893D01*
X011443Y010893D01*
X011619Y010820D01*
X011753Y010686D01*
X011826Y010511D01*
X011826Y010321D01*
X011753Y010145D01*
X011619Y010011D01*
X011681Y010073D02*
X012306Y010073D01*
X012341Y010037D02*
X012840Y010037D01*
X012969Y010166D01*
X012969Y010665D01*
X012911Y010724D01*
X012911Y012108D01*
X012969Y012166D01*
X012969Y012665D01*
X012840Y012794D01*
X012341Y012794D01*
X012212Y012665D01*
X012212Y012166D01*
X012271Y012108D01*
X012271Y010724D01*
X012212Y010665D01*
X012212Y010166D01*
X012341Y010037D01*
X012212Y010231D02*
X011789Y010231D01*
X011826Y010390D02*
X012212Y010390D01*
X012212Y010548D02*
X011810Y010548D01*
X011733Y010707D02*
X012254Y010707D01*
X012271Y010865D02*
X011511Y010865D01*
X011451Y010989D02*
X011516Y011010D01*
X011578Y011041D01*
X011633Y011082D01*
X011682Y011131D01*
X011722Y011186D01*
X011754Y011248D01*
X011775Y011313D01*
X011786Y011381D01*
X011786Y011416D01*
X011786Y011450D01*
X011775Y011518D01*
X011754Y011584D01*
X011722Y011645D01*
X011682Y011701D01*
X011633Y011749D01*
X011578Y011790D01*
X011516Y011821D01*
X011451Y011842D01*
X011383Y011853D01*
X011091Y011853D01*
X011091Y011416D01*
X011091Y011416D01*
X011786Y011416D01*
X011091Y011416D01*
X011091Y011416D01*
X011091Y011853D01*
X010799Y011853D01*
X010731Y011842D01*
X010665Y011821D01*
X010604Y011790D01*
X010548Y011749D01*
X010500Y011701D01*
X010459Y011645D01*
X010428Y011584D01*
X010407Y011518D01*
X010396Y011450D01*
X010396Y011416D01*
X011091Y011416D01*
X011091Y011416D01*
X011091Y010978D01*
X011383Y010978D01*
X011451Y010989D01*
X011543Y011024D02*
X012271Y011024D01*
X012271Y011182D02*
X011719Y011182D01*
X011779Y011341D02*
X012271Y011341D01*
X012271Y011499D02*
X011778Y011499D01*
X011713Y011658D02*
X012271Y011658D01*
X012271Y011816D02*
X011526Y011816D01*
X011443Y011938D02*
X011619Y012011D01*
X011753Y012145D01*
X011826Y012321D01*
X011826Y012511D01*
X011753Y012686D01*
X011619Y012820D01*
X011443Y012893D01*
X010738Y012893D01*
X010563Y012820D01*
X010429Y012686D01*
X010356Y012511D01*
X010356Y012321D01*
X010429Y012145D01*
X010563Y012011D01*
X010738Y011938D01*
X011443Y011938D01*
X011531Y011975D02*
X012271Y011975D01*
X012245Y012133D02*
X011741Y012133D01*
X011814Y012292D02*
X012212Y012292D01*
X012212Y012450D02*
X011826Y012450D01*
X011785Y012609D02*
X012212Y012609D01*
X012314Y012767D02*
X011672Y012767D01*
X011619Y013011D02*
X011443Y012938D01*
X010738Y012938D01*
X010563Y013011D01*
X010429Y013145D01*
X010356Y013321D01*
X010356Y013511D01*
X010429Y013686D01*
X010563Y013820D01*
X010738Y013893D01*
X011443Y013893D01*
X011619Y013820D01*
X011753Y013686D01*
X011826Y013511D01*
X011826Y013321D01*
X011753Y013145D01*
X011619Y013011D01*
X011692Y013084D02*
X013490Y013084D01*
X013429Y013145D02*
X013563Y013011D01*
X013738Y012938D01*
X014443Y012938D01*
X014619Y013011D01*
X014753Y013145D01*
X014826Y013321D01*
X014826Y013511D01*
X014753Y013686D01*
X014619Y013820D01*
X014443Y013893D01*
X013738Y013893D01*
X013563Y013820D01*
X013429Y013686D01*
X013356Y013511D01*
X013356Y013321D01*
X013429Y013145D01*
X013388Y013243D02*
X011793Y013243D01*
X011826Y013401D02*
X013356Y013401D01*
X013376Y013560D02*
X011805Y013560D01*
X011721Y013718D02*
X013461Y013718D01*
X013699Y013877D02*
X011483Y013877D01*
X011443Y013938D02*
X011619Y014011D01*
X011753Y014145D01*
X011826Y014321D01*
X011826Y014511D01*
X013356Y014511D01*
X013356Y014321D01*
X013429Y014145D01*
X013563Y014011D01*
X013738Y013938D01*
X014443Y013938D01*
X014619Y014011D01*
X014753Y014145D01*
X014826Y014321D01*
X014826Y014511D01*
X015501Y014511D01*
X015501Y014352D02*
X014826Y014352D01*
X014826Y014511D02*
X014753Y014686D01*
X014619Y014820D01*
X014443Y014893D01*
X013738Y014893D01*
X013563Y014820D01*
X013429Y014686D01*
X013356Y014511D01*
X013356Y014352D02*
X011826Y014352D01*
X011826Y014511D02*
X011753Y014686D01*
X011619Y014820D01*
X011443Y014893D01*
X010738Y014893D01*
X010563Y014820D01*
X010429Y014686D01*
X010356Y014511D01*
X009681Y014511D01*
X009681Y014533D02*
X009591Y014750D01*
X009425Y014916D01*
X009591Y015081D01*
X009681Y015298D01*
X009681Y015533D01*
X009591Y015750D01*
X009425Y015916D01*
X009591Y016081D01*
X009681Y016298D01*
X009681Y016533D01*
X009591Y016750D01*
X009425Y016916D01*
X009591Y017081D01*
X009681Y017298D01*
X009681Y017533D01*
X009591Y017750D01*
X009425Y017916D01*
X009208Y018006D01*
X008973Y018006D01*
X008757Y017916D01*
X008591Y017750D01*
X008425Y017916D01*
X008208Y018006D01*
X007973Y018006D01*
X007757Y017916D01*
X007591Y017750D01*
X007567Y017693D01*
X007561Y017704D01*
X007510Y017774D01*
X007449Y017835D01*
X007379Y017886D01*
X007302Y017925D01*
X007220Y017952D01*
X007147Y017964D01*
X007261Y018011D01*
X007396Y018145D01*
X007468Y018321D01*
X007468Y018511D01*
X007396Y018686D01*
X007261Y018820D01*
X007086Y018893D01*
X006896Y018893D01*
X006720Y018820D01*
X006586Y018686D01*
X006513Y018511D01*
X006513Y018321D01*
X006586Y018145D01*
X006720Y018011D01*
X006896Y017938D01*
X006919Y017938D01*
X006880Y017925D01*
X006803Y017886D01*
X006733Y017835D01*
X006671Y017774D01*
X006620Y017704D01*
X006581Y017627D01*
X006554Y017544D01*
X006541Y017459D01*
X006541Y017434D01*
X007072Y017434D01*
X007072Y017397D01*
X006541Y017397D01*
X006541Y017372D01*
X006554Y017287D01*
X006581Y017204D01*
X006620Y017127D01*
X006671Y017057D01*
X006733Y016996D01*
X006803Y016945D01*
X006861Y016916D01*
X006803Y016886D01*
X006733Y016835D01*
X006671Y016774D01*
X006620Y016704D01*
X006581Y016627D01*
X006554Y016544D01*
X006541Y016459D01*
X006541Y016434D01*
X007072Y016434D01*
X007072Y016397D01*
X006541Y016397D01*
X006541Y016372D01*
X006554Y016287D01*
X006581Y016204D01*
X006620Y016127D01*
X006671Y016057D01*
X006733Y015996D01*
X006803Y015945D01*
X006861Y015916D01*
X006803Y015886D01*
X006733Y015835D01*
X006671Y015774D01*
X006620Y015704D01*
X006581Y015627D01*
X006554Y015544D01*
X006541Y015459D01*
X006541Y015434D01*
X007072Y015434D01*
X007072Y015397D01*
X006541Y015397D01*
X006541Y015372D01*
X006554Y015287D01*
X006581Y015204D01*
X006620Y015127D01*
X006671Y015057D01*
X006733Y014996D01*
X006803Y014945D01*
X006861Y014916D01*
X006803Y014886D01*
X006733Y014835D01*
X006671Y014774D01*
X006620Y014704D01*
X006581Y014627D01*
X006554Y014544D01*
X006541Y014459D01*
X006541Y014434D01*
X007072Y014434D01*
X007072Y014397D01*
X006541Y014397D01*
X006541Y014372D01*
X006554Y014287D01*
X006581Y014204D01*
X006620Y014127D01*
X006671Y014057D01*
X006733Y013996D01*
X006803Y013945D01*
X006861Y013916D01*
X006803Y013886D01*
X006733Y013835D01*
X006671Y013774D01*
X006620Y013704D01*
X006581Y013627D01*
X006554Y013544D01*
X006541Y013459D01*
X006541Y013434D01*
X007072Y013434D01*
X007072Y013397D01*
X006541Y013397D01*
X006541Y013372D01*
X006554Y013287D01*
X006581Y013204D01*
X006620Y013127D01*
X006671Y013057D01*
X006733Y012996D01*
X006803Y012945D01*
X006861Y012916D01*
X006803Y012886D01*
X006733Y012835D01*
X006671Y012774D01*
X006620Y012704D01*
X006581Y012627D01*
X006554Y012544D01*
X006541Y012459D01*
X006541Y012434D01*
X007072Y012434D01*
X007072Y012397D01*
X006541Y012397D01*
X006541Y012372D01*
X006554Y012287D01*
X006581Y012204D01*
X006620Y012127D01*
X006671Y012057D01*
X006733Y011996D01*
X006803Y011945D01*
X006880Y011906D01*
X006939Y011887D01*
X006901Y011874D01*
X006831Y011839D01*
X006768Y011793D01*
X006713Y011738D01*
X006667Y011675D01*
X006632Y011606D01*
X006608Y011532D01*
X006596Y011455D01*
X006596Y011416D01*
X007091Y011416D01*
X007091Y011416D01*
X007091Y011911D01*
X007109Y011911D01*
X007109Y012397D01*
X007072Y012397D01*
X007072Y011911D01*
X007091Y011911D01*
X007091Y011416D01*
X007091Y011416D01*
X007091Y010921D01*
X007130Y010921D01*
X007207Y010933D01*
X007281Y010957D01*
X007350Y010992D01*
X007413Y011038D01*
X007468Y011093D01*
X007514Y011156D01*
X007550Y011226D01*
X007568Y011281D01*
X007637Y011113D01*
X007788Y010962D01*
X007984Y010881D01*
X008197Y010881D01*
X008394Y010962D01*
X008544Y011113D01*
X008626Y011309D01*
X008626Y011522D01*
X008544Y011719D01*
X008394Y011869D01*
X008354Y011886D01*
X008425Y011915D01*
X008591Y012081D01*
X008757Y011915D01*
X008973Y011826D01*
X009208Y011826D01*
X009425Y011915D01*
X009591Y012081D01*
X009681Y012298D01*
X009681Y012533D01*
X009591Y012750D01*
X009425Y012916D01*
X009591Y013081D01*
X009681Y013298D01*
X009681Y013533D01*
X009591Y013750D01*
X009425Y013916D01*
X009591Y014081D01*
X009681Y014298D01*
X009681Y014533D01*
X009624Y014669D02*
X010422Y014669D01*
X010356Y014511D02*
X010356Y014321D01*
X010429Y014145D01*
X010563Y014011D01*
X010738Y013938D01*
X011443Y013938D01*
X011643Y014035D02*
X013539Y014035D01*
X013408Y014194D02*
X011773Y014194D01*
X011760Y014669D02*
X013422Y014669D01*
X013580Y014828D02*
X011601Y014828D01*
X011559Y014986D02*
X013622Y014986D01*
X013563Y015011D02*
X013738Y014938D01*
X014443Y014938D01*
X014619Y015011D01*
X014753Y015145D01*
X014826Y015321D01*
X014826Y015511D01*
X014753Y015686D01*
X014619Y015820D01*
X014443Y015893D01*
X013738Y015893D01*
X013563Y015820D01*
X013429Y015686D01*
X013356Y015511D01*
X013356Y015321D01*
X013429Y015145D01*
X011753Y015145D01*
X011826Y015321D01*
X011826Y015511D01*
X011753Y015686D01*
X011619Y015820D01*
X011443Y015893D01*
X010738Y015893D01*
X010563Y015820D01*
X010429Y015686D01*
X010356Y015511D01*
X010356Y015321D01*
X010429Y015145D01*
X009617Y015145D01*
X009681Y015303D02*
X010363Y015303D01*
X010356Y015462D02*
X009681Y015462D01*
X009645Y015620D02*
X010401Y015620D01*
X010521Y015779D02*
X009562Y015779D01*
X009447Y015937D02*
X015735Y015937D01*
X015619Y015779D02*
X014661Y015779D01*
X014780Y015620D02*
X015537Y015620D01*
X015501Y015462D02*
X014826Y015462D01*
X014819Y015303D02*
X015501Y015303D01*
X015564Y015145D02*
X014753Y015145D01*
X014559Y014986D02*
X015686Y014986D01*
X015668Y014828D02*
X014601Y014828D01*
X014760Y014669D02*
X015557Y014669D01*
X015544Y014194D02*
X014773Y014194D01*
X014643Y014035D02*
X015637Y014035D01*
X015717Y013877D02*
X014483Y013877D01*
X014721Y013718D02*
X015578Y013718D01*
X015512Y013560D02*
X014805Y013560D01*
X014826Y013401D02*
X015501Y013401D01*
X015524Y013243D02*
X014793Y013243D01*
X014692Y013084D02*
X015590Y013084D01*
X015746Y012926D02*
X009435Y012926D01*
X009574Y012767D02*
X010510Y012767D01*
X010396Y012609D02*
X009649Y012609D01*
X009681Y012450D02*
X010356Y012450D01*
X010368Y012292D02*
X009678Y012292D01*
X009612Y012133D02*
X010441Y012133D01*
X010650Y011975D02*
X009484Y011975D01*
X008570Y011658D02*
X010468Y011658D01*
X010404Y011499D02*
X008626Y011499D01*
X008626Y011341D02*
X010402Y011341D01*
X010407Y011313D02*
X010428Y011248D01*
X010459Y011186D01*
X010500Y011131D01*
X010548Y011082D01*
X010604Y011041D01*
X010665Y011010D01*
X010731Y010989D01*
X010799Y010978D01*
X011091Y010978D01*
X011091Y011416D01*
X011091Y011416D01*
X010396Y011416D01*
X010396Y011381D01*
X010407Y011313D01*
X010462Y011182D02*
X008573Y011182D01*
X008455Y011024D02*
X010639Y011024D01*
X010671Y010865D02*
X002811Y010865D01*
X002811Y010707D02*
X010449Y010707D01*
X010371Y010548D02*
X002811Y010548D01*
X002811Y010390D02*
X010356Y010390D01*
X010393Y010231D02*
X002811Y010231D01*
X002811Y010073D02*
X010501Y010073D01*
X011091Y011024D02*
X011091Y011024D01*
X011091Y011182D02*
X011091Y011182D01*
X011091Y011341D02*
X011091Y011341D01*
X011091Y011499D02*
X011091Y011499D01*
X011091Y011658D02*
X011091Y011658D01*
X011091Y011816D02*
X011091Y011816D01*
X010656Y011816D02*
X008447Y011816D01*
X008484Y011975D02*
X008697Y011975D01*
X007608Y011182D02*
X007527Y011182D01*
X007393Y011024D02*
X007726Y011024D01*
X007091Y011024D02*
X007091Y011024D01*
X007091Y010921D02*
X007091Y011416D01*
X007091Y011416D01*
X006596Y011416D01*
X006596Y011377D01*
X006608Y011300D01*
X006632Y011226D01*
X006667Y011156D01*
X006713Y011093D01*
X006768Y011038D01*
X006831Y010992D01*
X006901Y010957D01*
X006975Y010933D01*
X007052Y010921D01*
X007091Y010921D01*
X007091Y011182D02*
X007091Y011182D01*
X007091Y011341D02*
X007091Y011341D01*
X007091Y011499D02*
X007091Y011499D01*
X007091Y011658D02*
X007091Y011658D01*
X007091Y011816D02*
X007091Y011816D01*
X007072Y011975D02*
X007109Y011975D01*
X007109Y012133D02*
X007072Y012133D01*
X007072Y012292D02*
X007109Y012292D01*
X007109Y012434D02*
X007072Y012434D01*
X007072Y013397D01*
X007109Y013397D01*
X007109Y012866D01*
X007109Y012434D01*
X007109Y012450D02*
X007072Y012450D01*
X007072Y012609D02*
X007109Y012609D01*
X007109Y012767D02*
X007072Y012767D01*
X007072Y012926D02*
X007109Y012926D01*
X007109Y013084D02*
X007072Y013084D01*
X007072Y013243D02*
X007109Y013243D01*
X007072Y013401D02*
X002811Y013401D01*
X002811Y013243D02*
X006569Y013243D01*
X006652Y013084D02*
X002811Y013084D01*
X002811Y012926D02*
X006841Y012926D01*
X006666Y012767D02*
X002811Y012767D01*
X002811Y012609D02*
X006575Y012609D01*
X006541Y012450D02*
X002811Y012450D01*
X002811Y012292D02*
X006554Y012292D01*
X006617Y012133D02*
X002811Y012133D01*
X002811Y011975D02*
X006762Y011975D01*
X006800Y011816D02*
X002811Y011816D01*
X002811Y011658D02*
X006659Y011658D01*
X006603Y011499D02*
X002811Y011499D01*
X002811Y011341D02*
X006602Y011341D01*
X006654Y011182D02*
X002811Y011182D01*
X002811Y011024D02*
X006788Y011024D01*
X005699Y009597D02*
X002811Y009597D01*
X002811Y009439D02*
X005663Y009439D01*
X005680Y009280D02*
X002811Y009280D01*
X002811Y009122D02*
X005760Y009122D01*
X005697Y008451D02*
X005484Y008451D01*
X005288Y008369D01*
X005137Y008219D01*
X005056Y008022D01*
X005056Y007809D01*
X005137Y007613D01*
X005288Y007462D01*
X005484Y007381D01*
X005697Y007381D01*
X005894Y007462D01*
X006044Y007613D01*
X006114Y007781D01*
X006132Y007726D01*
X006167Y007656D01*
X006213Y007593D01*
X006268Y007538D01*
X006331Y007492D01*
X006401Y007457D01*
X006475Y007433D01*
X006552Y007421D01*
X006591Y007421D01*
X006630Y007421D01*
X006707Y007433D01*
X006781Y007457D01*
X006850Y007492D01*
X006913Y007538D01*
X006968Y007593D01*
X007014Y007656D01*
X007050Y007726D01*
X007074Y007800D01*
X007086Y007877D01*
X007086Y007916D01*
X007086Y007955D01*
X007074Y008032D01*
X007050Y008106D01*
X007014Y008175D01*
X006968Y008238D01*
X006913Y008293D01*
X006850Y008339D01*
X006781Y008374D01*
X006707Y008398D01*
X006630Y008411D01*
X006591Y008411D01*
X006591Y007916D01*
X006591Y007916D01*
X007086Y007916D01*
X006591Y007916D01*
X006591Y007916D01*
X006591Y008411D01*
X006552Y008411D01*
X006475Y008398D01*
X006401Y008374D01*
X006331Y008339D01*
X006268Y008293D01*
X006213Y008238D01*
X006167Y008175D01*
X006132Y008106D01*
X006114Y008050D01*
X006044Y008219D01*
X005894Y008369D01*
X005697Y008451D01*
X005934Y008329D02*
X006318Y008329D01*
X006165Y008171D02*
X006064Y008171D01*
X006079Y007695D02*
X006148Y007695D01*
X006270Y007537D02*
X005968Y007537D01*
X006591Y007537D02*
X006591Y007537D01*
X006591Y007421D02*
X006591Y007916D01*
X006591Y007916D01*
X006591Y007421D01*
X006591Y007695D02*
X006591Y007695D01*
X006591Y007854D02*
X006591Y007854D01*
X006591Y008012D02*
X006591Y008012D01*
X006591Y008171D02*
X006591Y008171D01*
X006591Y008329D02*
X006591Y008329D01*
X006864Y008329D02*
X007318Y008329D01*
X007165Y008171D02*
X007016Y008171D01*
X007077Y008012D02*
X007105Y008012D01*
X007096Y007916D02*
X007096Y007877D01*
X007108Y007800D01*
X007132Y007726D01*
X007167Y007656D01*
X007213Y007593D01*
X007268Y007538D01*
X007331Y007492D01*
X007401Y007457D01*
X007475Y007433D01*
X007552Y007421D01*
X007591Y007421D01*
X007591Y007916D01*
X007591Y007916D01*
X007096Y007916D01*
X007100Y007854D02*
X007082Y007854D01*
X007034Y007695D02*
X007148Y007695D01*
X007270Y007537D02*
X006911Y007537D01*
X007591Y007537D02*
X007591Y007537D01*
X007591Y007695D02*
X007591Y007695D01*
X007591Y007854D02*
X007591Y007854D01*
X007591Y008012D02*
X007591Y008012D01*
X007591Y008171D02*
X007591Y008171D01*
X007591Y008329D02*
X007591Y008329D01*
X007864Y008329D02*
X008248Y008329D01*
X008117Y008171D02*
X008016Y008171D01*
X008034Y007695D02*
X008103Y007695D01*
X008213Y007537D02*
X007911Y007537D01*
X009486Y008646D02*
X002811Y008646D01*
X002811Y008488D02*
X009676Y008488D01*
X011539Y007854D02*
X013643Y007854D01*
X013562Y008012D02*
X011620Y008012D01*
X011764Y008171D02*
X013418Y008171D01*
X013356Y008329D02*
X011826Y008329D01*
X011826Y008488D02*
X013356Y008488D01*
X013412Y008646D02*
X011770Y008646D01*
X011744Y007695D02*
X013438Y007695D01*
X013367Y007537D02*
X011815Y007537D01*
X011826Y007378D02*
X013356Y007378D01*
X013398Y007220D02*
X011784Y007220D01*
X011669Y007061D02*
X013513Y007061D01*
X013487Y006744D02*
X011695Y006744D01*
X011795Y006586D02*
X013387Y006586D01*
X013356Y006427D02*
X011826Y006427D01*
X011804Y006269D02*
X013377Y006269D01*
X013464Y006110D02*
X011718Y006110D01*
X011476Y005952D02*
X013706Y005952D01*
X013536Y005793D02*
X011646Y005793D01*
X011774Y005635D02*
X013407Y005635D01*
X013356Y005476D02*
X011826Y005476D01*
X011825Y005318D02*
X013357Y005318D01*
X013423Y005159D02*
X011759Y005159D01*
X011594Y005001D02*
X013588Y005001D01*
X013369Y004525D02*
X014581Y004525D01*
X014542Y004367D02*
X013518Y004367D01*
X013577Y004208D02*
X014551Y004208D01*
X014609Y004050D02*
X013581Y004050D01*
X013532Y003891D02*
X014739Y003891D01*
X015072Y003891D02*
X015109Y003891D01*
X015109Y004050D02*
X015072Y004050D01*
X015072Y004208D02*
X015109Y004208D01*
X015109Y004367D02*
X015072Y004367D01*
X015072Y004525D02*
X015109Y004525D01*
X015109Y004684D02*
X015072Y004684D01*
X015072Y004842D02*
X015109Y004842D01*
X015250Y004842D02*
X015820Y004842D01*
X015624Y004684D02*
X015501Y004684D01*
X015442Y003891D02*
X015681Y003891D01*
X015957Y003733D02*
X013406Y003733D01*
X013091Y004208D02*
X013091Y004208D01*
X013091Y004367D02*
X013091Y004367D01*
X013091Y004525D02*
X013091Y004525D01*
X012812Y004525D02*
X012438Y004525D01*
X012566Y004367D02*
X012663Y004367D01*
X011744Y004525D02*
X010257Y004525D01*
X010374Y004684D02*
X014681Y004684D01*
X016361Y004842D02*
X016820Y004842D01*
X016624Y004684D02*
X016557Y004684D01*
X016501Y003891D02*
X016681Y003891D01*
X016957Y003733D02*
X016225Y003733D01*
X017225Y003733D02*
X017957Y003733D01*
X018225Y003733D02*
X018957Y003733D01*
X019225Y003733D02*
X021197Y003733D01*
X021483Y003891D02*
X019501Y003891D01*
X019619Y004050D02*
X021660Y004050D01*
X021800Y004208D02*
X021033Y004208D01*
X021279Y004367D02*
X021892Y004367D01*
X021967Y004525D02*
X021428Y004525D01*
X021494Y004684D02*
X022009Y004684D01*
X022046Y004842D02*
X021551Y004842D01*
X021485Y005318D02*
X022056Y005318D01*
X022056Y005476D02*
X021417Y005476D01*
X021259Y005635D02*
X022056Y005635D01*
X022056Y005793D02*
X020984Y005793D01*
X019851Y004842D02*
X019361Y004842D01*
X019557Y004684D02*
X019908Y004684D01*
X019974Y004525D02*
X019643Y004525D01*
X019681Y004367D02*
X020123Y004367D01*
X020369Y004208D02*
X019681Y004208D01*
X018820Y004842D02*
X018361Y004842D01*
X018557Y004684D02*
X018624Y004684D01*
X018681Y003891D02*
X018501Y003891D01*
X017820Y004842D02*
X017361Y004842D01*
X017557Y004684D02*
X017624Y004684D01*
X017681Y003891D02*
X017501Y003891D01*
X014784Y007220D02*
X022056Y007220D01*
X022056Y007378D02*
X020532Y007378D01*
X020470Y007352D02*
X020616Y007413D01*
X020728Y007524D01*
X020788Y007670D01*
X020788Y007828D01*
X020728Y007974D01*
X020616Y008086D01*
X020470Y008147D01*
X020312Y008147D01*
X020166Y008086D01*
X020054Y007974D01*
X019994Y007828D01*
X019994Y007670D01*
X020054Y007524D01*
X020166Y007413D01*
X020312Y007352D01*
X020470Y007352D01*
X020249Y007378D02*
X014826Y007378D01*
X014815Y007537D02*
X020049Y007537D01*
X019994Y007695D02*
X014744Y007695D01*
X014539Y007854D02*
X020004Y007854D01*
X020092Y008012D02*
X014620Y008012D01*
X014764Y008171D02*
X022056Y008171D01*
X022056Y008329D02*
X014826Y008329D01*
X014826Y008488D02*
X022056Y008488D01*
X022056Y008646D02*
X014770Y008646D01*
X014635Y008805D02*
X022056Y008805D01*
X022056Y008963D02*
X015593Y008963D01*
X015391Y008963D02*
X015391Y008963D01*
X015391Y009122D02*
X015391Y009122D01*
X015391Y009280D02*
X015391Y009280D01*
X015789Y009122D02*
X020222Y009122D01*
X020166Y009145D02*
X020312Y009085D01*
X020470Y009085D01*
X020616Y009145D01*
X020728Y009257D01*
X020788Y009403D01*
X020788Y009561D01*
X020728Y009707D01*
X020616Y009818D01*
X020470Y009879D01*
X020312Y009879D01*
X020166Y009818D01*
X020054Y009707D01*
X019994Y009561D01*
X019994Y009403D01*
X020054Y009257D01*
X020166Y009145D01*
X020044Y009280D02*
X015867Y009280D01*
X015886Y009439D02*
X019994Y009439D01*
X020009Y009597D02*
X015852Y009597D01*
X015751Y009756D02*
X020103Y009756D01*
X020679Y009756D02*
X022056Y009756D01*
X022056Y009914D02*
X015578Y009914D01*
X015804Y010073D02*
X022056Y010073D01*
X022056Y010231D02*
X015893Y010231D01*
X015926Y010390D02*
X022056Y010390D01*
X022056Y010548D02*
X015915Y010548D01*
X015849Y010707D02*
X022056Y010707D01*
X022056Y010865D02*
X017591Y010865D01*
X018072Y011024D02*
X018109Y011024D01*
X018109Y011182D02*
X018072Y011182D01*
X018072Y011341D02*
X018109Y011341D01*
X018109Y011499D02*
X018072Y011499D01*
X018072Y011658D02*
X018109Y011658D01*
X018109Y011816D02*
X018072Y011816D01*
X018072Y011975D02*
X018109Y011975D01*
X018109Y012133D02*
X018072Y012133D01*
X018072Y012292D02*
X018109Y012292D01*
X018109Y012450D02*
X018072Y012450D01*
X018072Y012609D02*
X018109Y012609D01*
X018109Y012767D02*
X018072Y012767D01*
X018072Y012926D02*
X018109Y012926D01*
X018109Y013084D02*
X018072Y013084D01*
X018072Y013243D02*
X018109Y013243D01*
X018109Y013401D02*
X022056Y013401D01*
X022056Y013243D02*
X018613Y013243D01*
X018530Y013084D02*
X022056Y013084D01*
X022056Y012926D02*
X018341Y012926D01*
X018515Y012767D02*
X022056Y012767D01*
X022056Y012609D02*
X018606Y012609D01*
X018641Y012450D02*
X022056Y012450D01*
X022056Y012292D02*
X018628Y012292D01*
X018564Y012133D02*
X022056Y012133D01*
X022056Y011975D02*
X018420Y011975D01*
X018639Y011816D02*
X022056Y011816D01*
X022056Y011658D02*
X018641Y011658D01*
X018641Y011499D02*
X022056Y011499D01*
X022056Y011341D02*
X018641Y011341D01*
X018641Y011182D02*
X022056Y011182D01*
X022056Y011024D02*
X018641Y011024D01*
X020559Y009122D02*
X022056Y009122D01*
X022056Y009280D02*
X020737Y009280D01*
X020788Y009439D02*
X022056Y009439D01*
X022056Y009597D02*
X020773Y009597D01*
X020690Y008012D02*
X022056Y008012D01*
X022056Y007854D02*
X020778Y007854D01*
X020788Y007695D02*
X022056Y007695D01*
X022056Y007537D02*
X020733Y007537D01*
X015501Y011024D02*
X014632Y011024D01*
X014619Y011011D02*
X014753Y011145D01*
X014826Y011321D01*
X014826Y011511D01*
X014753Y011686D01*
X014619Y011820D01*
X014443Y011893D01*
X013738Y011893D01*
X013563Y011820D01*
X013429Y011686D01*
X013356Y011511D01*
X013356Y011321D01*
X013429Y011145D01*
X013563Y011011D01*
X013738Y010938D01*
X014443Y010938D01*
X014619Y011011D01*
X014511Y010865D02*
X015084Y010865D01*
X014932Y010707D02*
X014733Y010707D01*
X014753Y010686D02*
X014619Y010820D01*
X014443Y010893D01*
X013738Y010893D01*
X013563Y010820D01*
X013429Y010686D01*
X013356Y010511D01*
X013356Y010321D01*
X013429Y010145D01*
X013563Y010011D01*
X013738Y009938D01*
X014443Y009938D01*
X014619Y010011D01*
X014753Y010145D01*
X014826Y010321D01*
X014826Y010511D01*
X014753Y010686D01*
X014810Y010548D02*
X014867Y010548D01*
X014856Y010390D02*
X014826Y010390D01*
X014789Y010231D02*
X014888Y010231D01*
X014977Y010073D02*
X014681Y010073D01*
X014091Y009756D02*
X014091Y009756D01*
X014091Y009597D02*
X014091Y009597D01*
X014091Y009439D02*
X014091Y009439D01*
X014091Y009280D02*
X014091Y009280D01*
X014091Y009122D02*
X014091Y009122D01*
X013501Y010073D02*
X012876Y010073D01*
X012969Y010231D02*
X013393Y010231D01*
X013356Y010390D02*
X012969Y010390D01*
X012969Y010548D02*
X013371Y010548D01*
X013449Y010707D02*
X012928Y010707D01*
X012911Y010865D02*
X013671Y010865D01*
X013550Y011024D02*
X012911Y011024D01*
X012911Y011182D02*
X013413Y011182D01*
X013356Y011341D02*
X012911Y011341D01*
X012911Y011499D02*
X013356Y011499D01*
X013417Y011658D02*
X012911Y011658D01*
X012911Y011816D02*
X013559Y011816D01*
X013650Y011975D02*
X012911Y011975D01*
X012936Y012133D02*
X013441Y012133D01*
X013429Y012145D02*
X013563Y012011D01*
X013738Y011938D01*
X014443Y011938D01*
X014619Y012011D01*
X014753Y012145D01*
X014826Y012321D01*
X014826Y012511D01*
X014753Y012686D01*
X014619Y012820D01*
X014443Y012893D01*
X013738Y012893D01*
X013563Y012820D01*
X013429Y012686D01*
X013356Y012511D01*
X013356Y012321D01*
X013429Y012145D01*
X013368Y012292D02*
X012969Y012292D01*
X012969Y012450D02*
X013356Y012450D01*
X013396Y012609D02*
X012969Y012609D01*
X012867Y012767D02*
X013510Y012767D01*
X014672Y012767D02*
X015608Y012767D01*
X015532Y012609D02*
X014785Y012609D01*
X014826Y012450D02*
X015501Y012450D01*
X015504Y012292D02*
X014814Y012292D01*
X014741Y012133D02*
X015569Y012133D01*
X015599Y011975D02*
X014531Y011975D01*
X014623Y011816D02*
X015501Y011816D01*
X015501Y011658D02*
X014765Y011658D01*
X014826Y011499D02*
X015501Y011499D01*
X015501Y011341D02*
X014826Y011341D01*
X014768Y011182D02*
X015501Y011182D01*
X018072Y013560D02*
X018109Y013560D01*
X018109Y013718D02*
X018072Y013718D01*
X018072Y013877D02*
X018109Y013877D01*
X018109Y014035D02*
X018072Y014035D01*
X018072Y014194D02*
X018109Y014194D01*
X018109Y014352D02*
X018072Y014352D01*
X018072Y014511D02*
X018109Y014511D01*
X018109Y014669D02*
X018072Y014669D01*
X018072Y014828D02*
X018109Y014828D01*
X018109Y014986D02*
X018072Y014986D01*
X018072Y015145D02*
X018109Y015145D01*
X018109Y015303D02*
X018072Y015303D01*
X018072Y015462D02*
X018109Y015462D01*
X018109Y015620D02*
X018072Y015620D01*
X018072Y015779D02*
X018109Y015779D01*
X018109Y015937D02*
X018072Y015937D01*
X018072Y016096D02*
X018109Y016096D01*
X018109Y016254D02*
X018072Y016254D01*
X018109Y016413D02*
X022056Y016413D01*
X022056Y016571D02*
X018619Y016571D01*
X018543Y016730D02*
X022056Y016730D01*
X022056Y016888D02*
X018375Y016888D01*
X018500Y017047D02*
X022056Y017047D01*
X022056Y017205D02*
X018601Y017205D01*
X018639Y017364D02*
X022056Y017364D01*
X022056Y017522D02*
X018631Y017522D01*
X018573Y017681D02*
X022056Y017681D01*
X022056Y017839D02*
X018444Y017839D01*
X018451Y017998D02*
X022056Y017998D01*
X022056Y018156D02*
X018576Y018156D01*
X018632Y018315D02*
X022056Y018315D01*
X022056Y018473D02*
X018639Y018473D01*
X018641Y018459D02*
X018627Y018544D01*
X018601Y018627D01*
X018561Y018704D01*
X018510Y018774D01*
X018449Y018835D01*
X018379Y018886D01*
X018302Y018925D01*
X018220Y018952D01*
X018134Y018966D01*
X018109Y018966D01*
X018109Y018434D01*
X018641Y018434D01*
X018641Y018459D01*
X018598Y018632D02*
X022056Y018632D01*
X022056Y018790D02*
X018494Y018790D01*
X018230Y018949D02*
X022056Y018949D01*
X022056Y019107D02*
X017458Y019107D01*
X017546Y019266D02*
X022056Y019266D01*
X022056Y019424D02*
X017568Y019424D01*
X017538Y019583D02*
X022056Y019583D01*
X022056Y019741D02*
X017441Y019741D01*
X017145Y020025D02*
X017311Y020191D01*
X017401Y020408D01*
X017401Y020643D01*
X017311Y020860D01*
X017145Y021026D01*
X016928Y021116D01*
X016693Y021116D01*
X016477Y021026D01*
X016311Y020860D01*
X016221Y020643D01*
X016221Y020408D01*
X016311Y020191D01*
X016477Y020025D01*
X016693Y019936D01*
X016928Y019936D01*
X017145Y020025D01*
X017178Y020058D02*
X019004Y020058D01*
X019037Y020025D02*
X019253Y019936D01*
X019488Y019936D01*
X019705Y020025D01*
X019871Y020191D01*
X019961Y020408D01*
X019961Y020643D01*
X019871Y020860D01*
X019705Y021026D01*
X019488Y021116D01*
X019253Y021116D01*
X019037Y021026D01*
X018871Y020860D01*
X018781Y020643D01*
X018781Y020408D01*
X018871Y020191D01*
X019037Y020025D01*
X018860Y020217D02*
X017321Y020217D01*
X017387Y020375D02*
X018795Y020375D01*
X018781Y020534D02*
X017401Y020534D01*
X017380Y020692D02*
X018801Y020692D01*
X018867Y020851D02*
X017315Y020851D01*
X017162Y021009D02*
X019020Y021009D01*
X019722Y021009D02*
X020016Y021009D01*
X019981Y021044D02*
X020220Y020805D01*
X020532Y020676D01*
X020870Y020676D01*
X021182Y020805D01*
X021422Y021044D01*
X021551Y021357D01*
X021551Y021695D01*
X021422Y022007D01*
X021182Y022246D01*
X020870Y022376D01*
X020532Y022376D01*
X020220Y022246D01*
X019981Y022007D01*
X019851Y021695D01*
X019851Y021357D01*
X019981Y021044D01*
X019929Y021168D02*
X015111Y021168D01*
X015111Y021024D02*
X015111Y021807D01*
X014982Y021936D01*
X014200Y021936D01*
X014071Y021807D01*
X014071Y021616D01*
X014032Y021710D01*
X013885Y021856D01*
X013694Y021936D01*
X013487Y021936D01*
X013296Y021856D01*
X013150Y021710D01*
X013071Y021519D01*
X013071Y021312D01*
X013150Y021121D01*
X013296Y020975D01*
X013487Y020896D01*
X013694Y020896D01*
X013885Y020975D01*
X014032Y021121D01*
X014071Y021216D01*
X014071Y021024D01*
X014200Y020896D01*
X014982Y020896D01*
X015111Y021024D01*
X015095Y021009D02*
X016460Y021009D01*
X016307Y020851D02*
X008875Y020851D01*
X008871Y020860D02*
X008932Y020713D01*
X008939Y020720D01*
X009115Y020793D01*
X009305Y020793D01*
X009480Y020720D01*
X009614Y020586D01*
X009687Y020411D01*
X009687Y020221D01*
X009614Y020045D01*
X009480Y019911D01*
X009305Y019838D01*
X009115Y019838D01*
X008939Y019911D01*
X008805Y020045D01*
X008781Y020102D01*
X008705Y020025D01*
X008488Y019936D01*
X008253Y019936D01*
X008037Y020025D01*
X007871Y020191D01*
X007781Y020408D01*
X007781Y020643D01*
X007871Y020860D01*
X008037Y021026D01*
X008253Y021116D01*
X008488Y021116D01*
X008705Y021026D01*
X008871Y020860D01*
X008722Y021009D02*
X010086Y021009D01*
X010071Y021024D02*
X010200Y020896D01*
X010982Y020896D01*
X011111Y021024D01*
X011111Y021216D01*
X011150Y021121D01*
X011296Y020975D01*
X011487Y020896D01*
X011694Y020896D01*
X011885Y020975D01*
X012032Y021121D01*
X012111Y021312D01*
X012111Y021519D01*
X012032Y021710D01*
X011885Y021856D01*
X011694Y021936D01*
X011487Y021936D01*
X011296Y021856D01*
X011150Y021710D01*
X011111Y021616D01*
X011111Y021807D01*
X010982Y021936D01*
X010200Y021936D01*
X010071Y021807D01*
X010071Y021024D01*
X010071Y021168D02*
X004937Y021168D01*
X004886Y021044D02*
X005016Y021357D01*
X005016Y021695D01*
X004886Y022007D01*
X004647Y022246D01*
X004335Y022376D01*
X003997Y022376D01*
X003684Y022246D01*
X003445Y022007D01*
X003316Y021695D01*
X003316Y021357D01*
X003445Y021044D01*
X003684Y020805D01*
X003997Y020676D01*
X004335Y020676D01*
X004647Y020805D01*
X004886Y021044D01*
X004851Y021009D02*
X005460Y021009D01*
X005477Y021026D02*
X005311Y020860D01*
X005221Y020643D01*
X005221Y020408D01*
X005311Y020191D01*
X005477Y020025D01*
X005693Y019936D01*
X005928Y019936D01*
X006145Y020025D01*
X006311Y020191D01*
X006401Y020408D01*
X006401Y020643D01*
X006311Y020860D01*
X006145Y021026D01*
X005928Y021116D01*
X005693Y021116D01*
X005477Y021026D01*
X005307Y020851D02*
X004692Y020851D01*
X004374Y020692D02*
X005241Y020692D01*
X005221Y020534D02*
X002811Y020534D01*
X002811Y020692D02*
X003957Y020692D01*
X003639Y020851D02*
X002811Y020851D01*
X002811Y021009D02*
X003480Y021009D01*
X003394Y021168D02*
X002811Y021168D01*
X002811Y021326D02*
X003328Y021326D01*
X003316Y021485D02*
X002811Y021485D01*
X002818Y021643D02*
X003316Y021643D01*
X003360Y021802D02*
X002849Y021802D01*
X002891Y021960D02*
X003426Y021960D01*
X003556Y022119D02*
X002957Y022119D01*
X003048Y022277D02*
X003758Y022277D01*
X003604Y022753D02*
X005490Y022753D01*
X005523Y022776D02*
X005453Y022725D01*
X005391Y022664D01*
X005340Y022594D01*
X005301Y022517D01*
X005274Y022434D01*
X005261Y022349D01*
X005261Y022324D01*
X005792Y022324D01*
X005792Y022287D01*
X005261Y022287D01*
X005261Y022262D01*
X005274Y022177D01*
X005301Y022094D01*
X005340Y022017D01*
X005391Y021947D01*
X005453Y021886D01*
X005523Y021835D01*
X005600Y021796D01*
X005682Y021769D01*
X005768Y021756D01*
X005792Y021756D01*
X005792Y022287D01*
X005829Y022287D01*
X005829Y021756D01*
X005854Y021756D01*
X005940Y021769D01*
X006022Y021796D01*
X006099Y021835D01*
X006169Y021886D01*
X006230Y021947D01*
X006281Y022017D01*
X006321Y022094D01*
X006347Y022177D01*
X006361Y022262D01*
X006361Y022287D01*
X005829Y022287D01*
X005829Y022324D01*
X005792Y022324D01*
X005792Y022856D01*
X005768Y022856D01*
X005682Y022842D01*
X005600Y022815D01*
X005523Y022776D01*
X005341Y022594D02*
X003334Y022594D01*
X003176Y022436D02*
X005275Y022436D01*
X005261Y022277D02*
X004573Y022277D01*
X004775Y022119D02*
X005293Y022119D01*
X005382Y021960D02*
X004906Y021960D01*
X004971Y021802D02*
X005588Y021802D01*
X005792Y021802D02*
X005829Y021802D01*
X005829Y021960D02*
X005792Y021960D01*
X005792Y022119D02*
X005829Y022119D01*
X005829Y022277D02*
X005792Y022277D01*
X005829Y022324D02*
X006361Y022324D01*
X006361Y022349D01*
X006347Y022434D01*
X006321Y022517D01*
X006281Y022594D01*
X007901Y022594D01*
X007900Y022594D02*
X007861Y022517D01*
X007834Y022434D01*
X007821Y022349D01*
X007821Y022324D01*
X008352Y022324D01*
X008352Y022287D01*
X007821Y022287D01*
X007821Y022262D01*
X007834Y022177D01*
X007861Y022094D01*
X007900Y022017D01*
X007951Y021947D01*
X008013Y021886D01*
X008083Y021835D01*
X008160Y021796D01*
X008242Y021769D01*
X008328Y021756D01*
X008352Y021756D01*
X008352Y022287D01*
X008389Y022287D01*
X008389Y021756D01*
X008414Y021756D01*
X008500Y021769D01*
X008582Y021796D01*
X008659Y021835D01*
X008729Y021886D01*
X008790Y021947D01*
X008841Y022017D01*
X008881Y022094D01*
X008907Y022177D01*
X008921Y022262D01*
X008921Y022287D01*
X008389Y022287D01*
X008389Y022324D01*
X008352Y022324D01*
X008352Y022856D01*
X008328Y022856D01*
X008242Y022842D01*
X008160Y022815D01*
X008083Y022776D01*
X008013Y022725D01*
X007951Y022664D01*
X007900Y022594D01*
X007835Y022436D02*
X006347Y022436D01*
X006361Y022277D02*
X007821Y022277D01*
X007853Y022119D02*
X006328Y022119D01*
X006240Y021960D02*
X007942Y021960D01*
X008148Y021802D02*
X006033Y021802D01*
X005829Y022324D02*
X005829Y022856D01*
X005854Y022856D01*
X005940Y022842D01*
X006022Y022815D01*
X006099Y022776D01*
X006169Y022725D01*
X006230Y022664D01*
X006281Y022594D01*
X006131Y022753D02*
X008050Y022753D01*
X008352Y022753D02*
X008389Y022753D01*
X008389Y022856D02*
X008414Y022856D01*
X008500Y022842D01*
X008582Y022815D01*
X008659Y022776D01*
X008729Y022725D01*
X008790Y022664D01*
X008841Y022594D01*
X016341Y022594D01*
X016340Y022594D02*
X016301Y022517D01*
X016274Y022434D01*
X016261Y022349D01*
X016261Y022324D01*
X016792Y022324D01*
X016792Y022287D01*
X016261Y022287D01*
X016261Y022262D01*
X016274Y022177D01*
X016301Y022094D01*
X016340Y022017D01*
X016391Y021947D01*
X016453Y021886D01*
X016523Y021835D01*
X016600Y021796D01*
X016682Y021769D01*
X016768Y021756D01*
X016792Y021756D01*
X016792Y022287D01*
X016829Y022287D01*
X016829Y021756D01*
X016854Y021756D01*
X016940Y021769D01*
X017022Y021796D01*
X017099Y021835D01*
X017169Y021886D01*
X017230Y021947D01*
X017281Y022017D01*
X017321Y022094D01*
X017347Y022177D01*
X017361Y022262D01*
X017361Y022287D01*
X016829Y022287D01*
X016829Y022324D01*
X016792Y022324D01*
X016792Y022856D01*
X016768Y022856D01*
X016682Y022842D01*
X016600Y022815D01*
X016523Y022776D01*
X016453Y022725D01*
X016391Y022664D01*
X016340Y022594D01*
X016275Y022436D02*
X008907Y022436D01*
X008907Y022434D02*
X008881Y022517D01*
X008841Y022594D01*
X008907Y022434D02*
X008921Y022349D01*
X008921Y022324D01*
X008389Y022324D01*
X008389Y022856D01*
X008389Y022594D02*
X008352Y022594D01*
X008352Y022436D02*
X008389Y022436D01*
X008389Y022277D02*
X008352Y022277D01*
X008352Y022119D02*
X008389Y022119D01*
X008389Y021960D02*
X008352Y021960D01*
X008352Y021802D02*
X008389Y021802D01*
X008593Y021802D02*
X010071Y021802D01*
X010071Y021643D02*
X005016Y021643D01*
X005016Y021485D02*
X010071Y021485D01*
X010071Y021326D02*
X005003Y021326D01*
X005235Y020375D02*
X002811Y020375D01*
X002811Y020217D02*
X005300Y020217D01*
X005444Y020058D02*
X002811Y020058D01*
X002811Y019900D02*
X008966Y019900D01*
X008800Y020058D02*
X008738Y020058D01*
X008441Y019741D02*
X010741Y019741D01*
X010686Y019686D02*
X010613Y019511D01*
X010613Y019321D01*
X010686Y019145D01*
X010820Y019011D01*
X010996Y018938D01*
X011186Y018938D01*
X011361Y019011D01*
X011496Y019145D01*
X011568Y019321D01*
X011568Y019511D01*
X011496Y019686D01*
X011361Y019820D01*
X011186Y019893D01*
X010996Y019893D01*
X010820Y019820D01*
X010686Y019686D01*
X010643Y019583D02*
X008538Y019583D01*
X008568Y019511D02*
X008496Y019686D01*
X008361Y019820D01*
X008186Y019893D01*
X007996Y019893D01*
X007820Y019820D01*
X007686Y019686D01*
X007613Y019511D01*
X007613Y019321D01*
X007686Y019145D01*
X007820Y019011D01*
X007996Y018938D01*
X008186Y018938D01*
X008361Y019011D01*
X008496Y019145D01*
X008568Y019321D01*
X008568Y019511D01*
X008568Y019424D02*
X010613Y019424D01*
X010636Y019266D02*
X008546Y019266D01*
X008458Y019107D02*
X010724Y019107D01*
X010738Y018893D02*
X010563Y018820D01*
X010429Y018686D01*
X010412Y018646D01*
X010396Y018686D01*
X010261Y018820D01*
X010086Y018893D01*
X009896Y018893D01*
X009720Y018820D01*
X009586Y018686D01*
X009513Y018511D01*
X009513Y018321D01*
X009586Y018145D01*
X009720Y018011D01*
X009896Y017938D01*
X010086Y017938D01*
X010261Y018011D01*
X010396Y018145D01*
X010412Y018185D01*
X010429Y018145D01*
X010563Y018011D01*
X010738Y017938D01*
X011443Y017938D01*
X011619Y018011D01*
X011753Y018145D01*
X011826Y018321D01*
X011826Y018511D01*
X011753Y018686D01*
X011619Y018820D01*
X011443Y018893D01*
X010738Y018893D01*
X010533Y018790D02*
X010292Y018790D01*
X009690Y018790D02*
X007292Y018790D01*
X007418Y018632D02*
X009563Y018632D01*
X009513Y018473D02*
X007468Y018473D01*
X007466Y018315D02*
X009516Y018315D01*
X009581Y018156D02*
X007400Y018156D01*
X007229Y017998D02*
X007954Y017998D01*
X007680Y017839D02*
X007444Y017839D01*
X007109Y017397D02*
X007109Y016966D01*
X007109Y016434D01*
X007072Y016434D01*
X007072Y017397D01*
X007109Y017397D01*
X007109Y017364D02*
X007072Y017364D01*
X007072Y017205D02*
X007109Y017205D01*
X007109Y017047D02*
X007072Y017047D01*
X007072Y016888D02*
X007109Y016888D01*
X007109Y016730D02*
X007072Y016730D01*
X007072Y016571D02*
X007109Y016571D01*
X007072Y016413D02*
X002811Y016413D01*
X002811Y016571D02*
X006563Y016571D01*
X006639Y016730D02*
X002811Y016730D01*
X002811Y016888D02*
X006807Y016888D01*
X006682Y017047D02*
X002811Y017047D01*
X002811Y017205D02*
X006581Y017205D01*
X006542Y017364D02*
X002811Y017364D01*
X002811Y017522D02*
X006551Y017522D01*
X006609Y017681D02*
X002811Y017681D01*
X002811Y017839D02*
X006738Y017839D01*
X006752Y017998D02*
X002811Y017998D01*
X002811Y018156D02*
X006581Y018156D01*
X006516Y018315D02*
X006179Y018315D01*
X006097Y018281D02*
X006294Y018362D01*
X006444Y018513D01*
X006526Y018709D01*
X006526Y018922D01*
X006444Y019119D01*
X006294Y019269D01*
X006097Y019351D01*
X005884Y019351D01*
X005688Y019269D01*
X005537Y019119D01*
X005468Y018950D01*
X005450Y019006D01*
X005414Y019075D01*
X005368Y019138D01*
X005313Y019193D01*
X005250Y019239D01*
X005181Y019274D01*
X005107Y019298D01*
X005030Y019311D01*
X004991Y019311D01*
X004991Y018816D01*
X004991Y018816D01*
X004991Y019311D01*
X004952Y019311D01*
X004875Y019298D01*
X004801Y019274D01*
X004731Y019239D01*
X004668Y019193D01*
X004613Y019138D01*
X004567Y019075D01*
X004532Y019006D01*
X004508Y018932D01*
X004496Y018855D01*
X004496Y018816D01*
X004991Y018816D01*
X004991Y018816D01*
X004991Y018321D01*
X005030Y018321D01*
X005107Y018333D01*
X005181Y018357D01*
X005250Y018392D01*
X005313Y018438D01*
X005368Y018493D01*
X005414Y018556D01*
X005450Y018626D01*
X005468Y018681D01*
X005537Y018513D01*
X005688Y018362D01*
X005884Y018281D01*
X006097Y018281D01*
X005802Y018315D02*
X002811Y018315D01*
X002811Y018473D02*
X004633Y018473D01*
X004613Y018493D02*
X004668Y018438D01*
X004731Y018392D01*
X004801Y018357D01*
X004875Y018333D01*
X004952Y018321D01*
X004991Y018321D01*
X004991Y018816D01*
X004991Y018816D01*
X004496Y018816D01*
X004496Y018777D01*
X004508Y018700D01*
X004532Y018626D01*
X004567Y018556D01*
X004613Y018493D01*
X004530Y018632D02*
X002811Y018632D01*
X002811Y018790D02*
X004496Y018790D01*
X004514Y018949D02*
X002811Y018949D01*
X002811Y019107D02*
X004591Y019107D01*
X004784Y019266D02*
X002811Y019266D01*
X002811Y019424D02*
X007613Y019424D01*
X007636Y019266D02*
X006297Y019266D01*
X006449Y019107D02*
X007724Y019107D01*
X007970Y018949D02*
X006515Y018949D01*
X006526Y018790D02*
X006690Y018790D01*
X006563Y018632D02*
X006494Y018632D01*
X006513Y018473D02*
X006405Y018473D01*
X005577Y018473D02*
X005348Y018473D01*
X005451Y018632D02*
X005488Y018632D01*
X005533Y019107D02*
X005391Y019107D01*
X005198Y019266D02*
X005684Y019266D01*
X004991Y019266D02*
X004991Y019266D01*
X004991Y019107D02*
X004991Y019107D01*
X004991Y018949D02*
X004991Y018949D01*
X004991Y018790D02*
X004991Y018790D01*
X004991Y018632D02*
X004991Y018632D01*
X004991Y018473D02*
X004991Y018473D01*
X006178Y020058D02*
X008004Y020058D01*
X007860Y020217D02*
X006321Y020217D01*
X006387Y020375D02*
X007795Y020375D01*
X007781Y020534D02*
X006401Y020534D01*
X006380Y020692D02*
X007801Y020692D01*
X007867Y020851D02*
X006315Y020851D01*
X006162Y021009D02*
X008020Y021009D01*
X008800Y021960D02*
X016382Y021960D01*
X016293Y022119D02*
X008888Y022119D01*
X008921Y022277D02*
X016261Y022277D01*
X016490Y022753D02*
X008691Y022753D01*
X009508Y020692D02*
X011273Y020692D01*
X011301Y020720D02*
X011167Y020586D01*
X011094Y020411D01*
X011094Y020221D01*
X011167Y020045D01*
X011301Y019911D01*
X011477Y019838D01*
X011667Y019838D01*
X011842Y019911D01*
X011977Y020045D01*
X012049Y020221D01*
X012049Y020411D01*
X011977Y020586D01*
X011842Y020720D01*
X011667Y020793D01*
X011477Y020793D01*
X011301Y020720D01*
X011145Y020534D02*
X009636Y020534D01*
X009687Y020375D02*
X011094Y020375D01*
X011096Y020217D02*
X009686Y020217D01*
X009620Y020058D02*
X011162Y020058D01*
X011328Y019900D02*
X009453Y019900D01*
X008211Y018949D02*
X010970Y018949D01*
X011211Y018949D02*
X013970Y018949D01*
X013996Y018938D02*
X014186Y018938D01*
X014361Y019011D01*
X014496Y019145D01*
X014568Y019321D01*
X014568Y019511D01*
X014496Y019686D01*
X014361Y019820D01*
X014186Y019893D01*
X013996Y019893D01*
X013820Y019820D01*
X013686Y019686D01*
X013613Y019511D01*
X013613Y019321D01*
X013686Y019145D01*
X013820Y019011D01*
X013996Y018938D01*
X014211Y018949D02*
X015836Y018949D01*
X015631Y018790D02*
X014649Y018790D01*
X014619Y018820D02*
X014443Y018893D01*
X013738Y018893D01*
X013563Y018820D01*
X013429Y018686D01*
X013356Y018511D01*
X013356Y018321D01*
X013429Y018145D01*
X013563Y018011D01*
X013738Y017938D01*
X014443Y017938D01*
X014619Y018011D01*
X014753Y018145D01*
X014826Y018321D01*
X014826Y018511D01*
X014753Y018686D01*
X014619Y018820D01*
X014776Y018632D02*
X015542Y018632D01*
X015501Y018473D02*
X014826Y018473D01*
X014823Y018315D02*
X015501Y018315D01*
X015560Y018156D02*
X014758Y018156D01*
X014587Y017998D02*
X015674Y017998D01*
X015680Y017839D02*
X014574Y017839D01*
X014619Y017820D02*
X014443Y017893D01*
X013738Y017893D01*
X013563Y017820D01*
X013429Y017686D01*
X013356Y017511D01*
X013356Y017321D01*
X013429Y017145D01*
X013563Y017011D01*
X013738Y016938D01*
X014443Y016938D01*
X014619Y017011D01*
X014753Y017145D01*
X014826Y017321D01*
X014826Y017511D01*
X014753Y017686D01*
X014619Y017820D01*
X014755Y017681D02*
X015562Y017681D01*
X015501Y017522D02*
X014821Y017522D01*
X014826Y017364D02*
X015501Y017364D01*
X015539Y017205D02*
X014778Y017205D01*
X014655Y017047D02*
X015625Y017047D01*
X015729Y016888D02*
X014455Y016888D01*
X014443Y016893D02*
X014619Y016820D01*
X014753Y016686D01*
X014826Y016511D01*
X014826Y016321D01*
X014753Y016145D01*
X014619Y016011D01*
X014443Y015938D01*
X013738Y015938D01*
X013563Y016011D01*
X013429Y016145D01*
X013356Y016321D01*
X013356Y016511D01*
X013429Y016686D01*
X013563Y016820D01*
X013738Y016893D01*
X014443Y016893D01*
X014710Y016730D02*
X015582Y016730D01*
X015517Y016571D02*
X014801Y016571D01*
X014826Y016413D02*
X015501Y016413D01*
X015519Y016254D02*
X014798Y016254D01*
X014704Y016096D02*
X015585Y016096D01*
X013726Y016888D02*
X011455Y016888D01*
X011443Y016893D02*
X011619Y016820D01*
X011753Y016686D01*
X011826Y016511D01*
X011826Y016321D01*
X011753Y016145D01*
X011619Y016011D01*
X011443Y015938D01*
X010738Y015938D01*
X010563Y016011D01*
X010429Y016145D01*
X010356Y016321D01*
X010356Y016511D01*
X010429Y016686D01*
X010563Y016820D01*
X010738Y016893D01*
X011443Y016893D01*
X011443Y016938D02*
X011619Y017011D01*
X011753Y017145D01*
X011826Y017321D01*
X011826Y017511D01*
X011753Y017686D01*
X011619Y017820D01*
X011443Y017893D01*
X010738Y017893D01*
X010563Y017820D01*
X010429Y017686D01*
X010356Y017511D01*
X010356Y017321D01*
X010429Y017145D01*
X010563Y017011D01*
X010738Y016938D01*
X011443Y016938D01*
X011655Y017047D02*
X013527Y017047D01*
X013404Y017205D02*
X011778Y017205D01*
X011826Y017364D02*
X013356Y017364D01*
X013361Y017522D02*
X011821Y017522D01*
X011755Y017681D02*
X013426Y017681D01*
X013608Y017839D02*
X011574Y017839D01*
X011587Y017998D02*
X013595Y017998D01*
X013424Y018156D02*
X011758Y018156D01*
X011823Y018315D02*
X013358Y018315D01*
X013356Y018473D02*
X011826Y018473D01*
X011776Y018632D02*
X013406Y018632D01*
X013533Y018790D02*
X011649Y018790D01*
X011458Y019107D02*
X013724Y019107D01*
X013636Y019266D02*
X011546Y019266D01*
X011568Y019424D02*
X013613Y019424D01*
X013643Y019583D02*
X011538Y019583D01*
X011441Y019741D02*
X013741Y019741D01*
X014441Y019741D02*
X016741Y019741D01*
X016643Y019583D02*
X014538Y019583D01*
X014568Y019424D02*
X016613Y019424D01*
X016636Y019266D02*
X014546Y019266D01*
X014458Y019107D02*
X016724Y019107D01*
X016836Y018949D02*
X016346Y018949D01*
X016551Y018790D02*
X016631Y018790D01*
X017346Y018949D02*
X017951Y018949D01*
X018072Y018949D02*
X018109Y018949D01*
X018109Y018790D02*
X018072Y018790D01*
X018072Y018632D02*
X018109Y018632D01*
X018109Y018473D02*
X018072Y018473D01*
X018072Y018315D02*
X018109Y018315D01*
X018109Y018156D02*
X018072Y018156D01*
X018072Y017998D02*
X018109Y017998D01*
X018109Y017839D02*
X018072Y017839D01*
X018072Y017681D02*
X018109Y017681D01*
X018109Y017522D02*
X018072Y017522D01*
X018072Y017364D02*
X018109Y017364D01*
X018109Y017205D02*
X018072Y017205D01*
X018072Y017047D02*
X018109Y017047D01*
X018109Y016888D02*
X018072Y016888D01*
X018072Y016730D02*
X018109Y016730D01*
X018109Y016571D02*
X018072Y016571D01*
X018617Y016254D02*
X022056Y016254D01*
X022056Y016096D02*
X018538Y016096D01*
X018363Y015937D02*
X022056Y015937D01*
X022056Y015779D02*
X018506Y015779D01*
X018603Y015620D02*
X022056Y015620D01*
X022056Y015462D02*
X018640Y015462D01*
X018630Y015303D02*
X022056Y015303D01*
X022056Y015145D02*
X018570Y015145D01*
X018435Y014986D02*
X022056Y014986D01*
X022056Y014828D02*
X018457Y014828D01*
X018579Y014669D02*
X022056Y014669D01*
X022056Y014511D02*
X018633Y014511D01*
X018638Y014352D02*
X022056Y014352D01*
X022056Y014194D02*
X018595Y014194D01*
X018488Y014035D02*
X022056Y014035D01*
X022056Y013877D02*
X018392Y013877D01*
X018551Y013718D02*
X022056Y013718D01*
X022056Y013560D02*
X018622Y013560D01*
X013563Y015011D02*
X013429Y015145D01*
X013363Y015303D02*
X011819Y015303D01*
X011826Y015462D02*
X013356Y015462D01*
X013401Y015620D02*
X011780Y015620D01*
X011661Y015779D02*
X013521Y015779D01*
X013478Y016096D02*
X011704Y016096D01*
X011798Y016254D02*
X013383Y016254D01*
X013356Y016413D02*
X011826Y016413D01*
X011801Y016571D02*
X013381Y016571D01*
X013472Y016730D02*
X011710Y016730D01*
X010726Y016888D02*
X009453Y016888D01*
X009556Y017047D02*
X010527Y017047D01*
X010404Y017205D02*
X009642Y017205D01*
X009681Y017364D02*
X010356Y017364D01*
X010361Y017522D02*
X009681Y017522D01*
X009620Y017681D02*
X010426Y017681D01*
X010608Y017839D02*
X009502Y017839D01*
X009752Y017998D02*
X009227Y017998D01*
X008954Y017998D02*
X008227Y017998D01*
X008502Y017839D02*
X008680Y017839D01*
X009599Y016730D02*
X010472Y016730D01*
X010381Y016571D02*
X009665Y016571D01*
X009681Y016413D02*
X010356Y016413D01*
X010383Y016254D02*
X009663Y016254D01*
X009597Y016096D02*
X010478Y016096D01*
X010429Y015145D02*
X010563Y015011D01*
X010738Y014938D01*
X011443Y014938D01*
X011619Y015011D01*
X011753Y015145D01*
X010622Y014986D02*
X009496Y014986D01*
X009513Y014828D02*
X010580Y014828D01*
X010356Y014352D02*
X009681Y014352D01*
X009637Y014194D02*
X010408Y014194D01*
X010539Y014035D02*
X009545Y014035D01*
X009464Y013877D02*
X010699Y013877D01*
X010461Y013718D02*
X009604Y013718D01*
X009670Y013560D02*
X010376Y013560D01*
X010356Y013401D02*
X009681Y013401D01*
X009658Y013243D02*
X010388Y013243D01*
X010490Y013084D02*
X009592Y013084D01*
X007109Y013434D02*
X007072Y013434D01*
X007072Y014397D01*
X007109Y014397D01*
X007109Y013866D01*
X007109Y013434D01*
X007109Y013560D02*
X007072Y013560D01*
X007072Y013718D02*
X007109Y013718D01*
X007109Y013877D02*
X007072Y013877D01*
X007072Y014035D02*
X007109Y014035D01*
X007109Y014194D02*
X007072Y014194D01*
X007072Y014352D02*
X007109Y014352D01*
X007109Y014434D02*
X007072Y014434D01*
X007072Y015397D01*
X007109Y015397D01*
X007109Y014866D01*
X007109Y014434D01*
X007109Y014511D02*
X007072Y014511D01*
X007072Y014669D02*
X007109Y014669D01*
X007109Y014828D02*
X007072Y014828D01*
X007072Y014986D02*
X007109Y014986D01*
X007109Y015145D02*
X007072Y015145D01*
X007072Y015303D02*
X007109Y015303D01*
X007109Y015434D02*
X007072Y015434D01*
X007072Y016397D01*
X007109Y016397D01*
X007109Y015866D01*
X007109Y015434D01*
X007109Y015462D02*
X007072Y015462D01*
X007072Y015620D02*
X007109Y015620D01*
X007109Y015779D02*
X007072Y015779D01*
X007072Y015937D02*
X007109Y015937D01*
X007109Y016096D02*
X007072Y016096D01*
X007072Y016254D02*
X007109Y016254D01*
X006818Y015937D02*
X002811Y015937D01*
X002811Y015779D02*
X006676Y015779D01*
X006579Y015620D02*
X002811Y015620D01*
X002811Y015462D02*
X006541Y015462D01*
X006552Y015303D02*
X002811Y015303D01*
X002811Y015145D02*
X006612Y015145D01*
X006746Y014986D02*
X002811Y014986D01*
X002811Y014828D02*
X006725Y014828D01*
X006603Y014669D02*
X002811Y014669D01*
X002811Y014511D02*
X006549Y014511D01*
X006544Y014352D02*
X002811Y014352D01*
X002811Y014194D02*
X006587Y014194D01*
X006693Y014035D02*
X002811Y014035D01*
X002811Y013877D02*
X006790Y013877D01*
X006631Y013718D02*
X002811Y013718D01*
X002811Y013560D02*
X006559Y013560D01*
X006643Y016096D02*
X002811Y016096D01*
X002811Y016254D02*
X006565Y016254D01*
X007643Y019583D02*
X002811Y019583D01*
X002811Y019741D02*
X007741Y019741D01*
X010229Y017998D02*
X010595Y017998D01*
X010424Y018156D02*
X010400Y018156D01*
X011815Y019900D02*
X022056Y019900D01*
X022056Y020058D02*
X019738Y020058D01*
X019881Y020217D02*
X022056Y020217D01*
X022056Y020375D02*
X019947Y020375D01*
X019961Y020534D02*
X022056Y020534D01*
X022056Y020692D02*
X020909Y020692D01*
X020493Y020692D02*
X019940Y020692D01*
X019875Y020851D02*
X020174Y020851D01*
X019864Y021326D02*
X015111Y021326D01*
X015111Y021485D02*
X019851Y021485D01*
X019851Y021643D02*
X015111Y021643D01*
X015111Y021802D02*
X016588Y021802D01*
X016792Y021802D02*
X016829Y021802D01*
X016829Y021960D02*
X016792Y021960D01*
X016792Y022119D02*
X016829Y022119D01*
X016829Y022277D02*
X016792Y022277D01*
X016829Y022324D02*
X017361Y022324D01*
X017361Y022349D01*
X017347Y022434D01*
X017321Y022517D01*
X017281Y022594D01*
X018901Y022594D01*
X018900Y022594D02*
X018861Y022517D01*
X018834Y022434D01*
X018821Y022349D01*
X018821Y022324D01*
X019352Y022324D01*
X019352Y022287D01*
X018821Y022287D01*
X018821Y022262D01*
X018834Y022177D01*
X018861Y022094D01*
X018900Y022017D01*
X018951Y021947D01*
X019013Y021886D01*
X019083Y021835D01*
X019160Y021796D01*
X019242Y021769D01*
X019328Y021756D01*
X019352Y021756D01*
X019352Y022287D01*
X019389Y022287D01*
X019389Y021756D01*
X019414Y021756D01*
X019500Y021769D01*
X019582Y021796D01*
X019659Y021835D01*
X019729Y021886D01*
X019790Y021947D01*
X019841Y022017D01*
X019881Y022094D01*
X019907Y022177D01*
X019921Y022262D01*
X019921Y022287D01*
X019389Y022287D01*
X019389Y022324D01*
X019352Y022324D01*
X019352Y022856D01*
X019328Y022856D01*
X019242Y022842D01*
X019160Y022815D01*
X019083Y022776D01*
X019013Y022725D01*
X018951Y022664D01*
X018900Y022594D01*
X018835Y022436D02*
X017347Y022436D01*
X017361Y022277D02*
X018821Y022277D01*
X018853Y022119D02*
X017328Y022119D01*
X017240Y021960D02*
X018942Y021960D01*
X019148Y021802D02*
X017033Y021802D01*
X016829Y022324D02*
X016829Y022856D01*
X016854Y022856D01*
X016940Y022842D01*
X017022Y022815D01*
X017099Y022776D01*
X017169Y022725D01*
X017230Y022664D01*
X017281Y022594D01*
X017131Y022753D02*
X019050Y022753D01*
X019352Y022753D02*
X019389Y022753D01*
X019389Y022856D02*
X019414Y022856D01*
X019500Y022842D01*
X019582Y022815D01*
X019659Y022776D01*
X019729Y022725D01*
X019790Y022664D01*
X019841Y022594D01*
X021532Y022594D01*
X021691Y022436D02*
X019907Y022436D01*
X019907Y022434D02*
X019881Y022517D01*
X019841Y022594D01*
X019907Y022434D02*
X019921Y022349D01*
X019921Y022324D01*
X019389Y022324D01*
X019389Y022856D01*
X019389Y022594D02*
X019352Y022594D01*
X019352Y022436D02*
X019389Y022436D01*
X019389Y022277D02*
X019352Y022277D01*
X019352Y022119D02*
X019389Y022119D01*
X019389Y021960D02*
X019352Y021960D01*
X019352Y021802D02*
X019389Y021802D01*
X019593Y021802D02*
X019895Y021802D01*
X019961Y021960D02*
X019800Y021960D01*
X019888Y022119D02*
X020092Y022119D01*
X019921Y022277D02*
X020294Y022277D01*
X019691Y022753D02*
X021263Y022753D01*
X021108Y022277D02*
X021818Y022277D01*
X021910Y022119D02*
X021310Y022119D01*
X021441Y021960D02*
X021975Y021960D01*
X022018Y021802D02*
X021507Y021802D01*
X021551Y021643D02*
X022048Y021643D01*
X022056Y021485D02*
X021551Y021485D01*
X021538Y021326D02*
X022056Y021326D01*
X022056Y021168D02*
X021473Y021168D01*
X021386Y021009D02*
X022056Y021009D01*
X022056Y020851D02*
X021228Y020851D01*
X017688Y018790D02*
X017551Y018790D01*
X016444Y020058D02*
X011982Y020058D01*
X012048Y020217D02*
X016300Y020217D01*
X016235Y020375D02*
X012049Y020375D01*
X011998Y020534D02*
X016221Y020534D01*
X016241Y020692D02*
X011871Y020692D01*
X011920Y021009D02*
X012334Y021009D01*
X012339Y021005D02*
X012407Y020971D01*
X012478Y020947D01*
X012553Y020936D01*
X012571Y020936D01*
X012571Y021396D01*
X012111Y021396D01*
X012111Y021378D01*
X012123Y021303D01*
X012146Y021231D01*
X012180Y021164D01*
X012225Y021103D01*
X012278Y021049D01*
X012339Y021005D01*
X012178Y021168D02*
X012051Y021168D01*
X012111Y021326D02*
X012119Y021326D01*
X012111Y021436D02*
X012571Y021436D01*
X012571Y021896D01*
X012553Y021896D01*
X012478Y021884D01*
X012407Y021860D01*
X012339Y021826D01*
X012278Y021782D01*
X012225Y021728D01*
X012180Y021667D01*
X012146Y021600D01*
X012123Y021528D01*
X012111Y021453D01*
X012111Y021436D01*
X012111Y021485D02*
X012116Y021485D01*
X012168Y021643D02*
X012059Y021643D01*
X011940Y021802D02*
X012306Y021802D01*
X012571Y021802D02*
X012611Y021802D01*
X012611Y021896D02*
X012611Y021436D01*
X012571Y021436D01*
X012571Y021396D01*
X012611Y021396D01*
X012611Y021436D01*
X013071Y021436D01*
X013071Y021453D01*
X013059Y021528D01*
X013036Y021600D01*
X013001Y021667D01*
X012957Y021728D01*
X012904Y021782D01*
X012842Y021826D01*
X012775Y021860D01*
X012703Y021884D01*
X012629Y021896D01*
X012611Y021896D01*
X012611Y021643D02*
X012571Y021643D01*
X012571Y021485D02*
X012611Y021485D01*
X012611Y021396D02*
X013071Y021396D01*
X013071Y021378D01*
X013059Y021303D01*
X013036Y021231D01*
X013001Y021164D01*
X012957Y021103D01*
X012904Y021049D01*
X012842Y021005D01*
X012775Y020971D01*
X012703Y020947D01*
X012629Y020936D01*
X012611Y020936D01*
X012611Y021396D01*
X012611Y021326D02*
X012571Y021326D01*
X012571Y021168D02*
X012611Y021168D01*
X012611Y021009D02*
X012571Y021009D01*
X012848Y021009D02*
X013262Y021009D01*
X013131Y021168D02*
X013003Y021168D01*
X013063Y021326D02*
X013071Y021326D01*
X013066Y021485D02*
X013071Y021485D01*
X013122Y021643D02*
X013014Y021643D01*
X012876Y021802D02*
X013241Y021802D01*
X013940Y021802D02*
X014071Y021802D01*
X014059Y021643D02*
X014071Y021643D01*
X014051Y021168D02*
X014071Y021168D01*
X014086Y021009D02*
X013920Y021009D01*
X011262Y021009D02*
X011095Y021009D01*
X011111Y021168D02*
X011131Y021168D01*
X011111Y021643D02*
X011122Y021643D01*
X011111Y021802D02*
X011241Y021802D01*
X005829Y022436D02*
X005792Y022436D01*
X005792Y022594D02*
X005829Y022594D01*
X005829Y022753D02*
X005792Y022753D01*
X016792Y022753D02*
X016829Y022753D01*
X016829Y022594D02*
X016792Y022594D01*
X016792Y022436D02*
X016829Y022436D01*
X005248Y008329D02*
X002811Y008329D01*
X002811Y008171D02*
X005117Y008171D01*
X005056Y008012D02*
X002811Y008012D01*
X002811Y007854D02*
X005056Y007854D01*
X005103Y007695D02*
X002811Y007695D01*
X002811Y007537D02*
X005213Y007537D01*
X005428Y006427D02*
X002811Y006427D01*
X002811Y006269D02*
X005187Y006269D01*
X005092Y006110D02*
X002811Y006110D01*
X002811Y005952D02*
X005056Y005952D01*
X005063Y005793D02*
X004449Y005793D01*
X004723Y005635D02*
X005128Y005635D01*
X005274Y005476D02*
X004882Y005476D01*
X004950Y005318D02*
X009536Y005318D01*
X010096Y004367D02*
X011616Y004367D01*
X011556Y004208D02*
X010290Y004208D01*
X010368Y004050D02*
X011556Y004050D01*
X011605Y003891D02*
X010386Y003891D01*
X010352Y003733D02*
X011717Y003733D01*
X003833Y004208D02*
X003066Y004208D01*
X002975Y004367D02*
X003587Y004367D01*
X003438Y004525D02*
X002900Y004525D01*
X002857Y004684D02*
X003373Y004684D01*
X003316Y004842D02*
X002821Y004842D01*
X002811Y005318D02*
X003381Y005318D01*
X003449Y005476D02*
X002811Y005476D01*
X002811Y005635D02*
X003608Y005635D01*
X003883Y005793D02*
X002811Y005793D01*
D19*
X004091Y016416D03*
X004091Y017416D03*
D20*
X004091Y015416D03*
X004091Y014416D03*
X004091Y013416D03*
X004091Y012416D03*
X009591Y010916D03*
X012091Y009416D03*
X013091Y009416D03*
X012591Y010416D03*
X012591Y012416D03*
X016591Y007916D03*
X017591Y007916D03*
X018091Y006916D03*
X021591Y011416D03*
X021591Y012416D03*
X021591Y013416D03*
X021591Y014416D03*
X021591Y015416D03*
X008591Y003916D03*
X007591Y003916D03*
X006591Y003916D03*
X005591Y003916D03*
X007091Y006916D03*
D21*
X012591Y010416D02*
X012591Y012416D01*
M02*
