G75*
G70*
%OFA0B0*%
%FSLAX24Y24*%
%IPPOS*%
%LPD*%
%AMOC8*
5,1,8,0,0,1.08239X$1,22.5*
%
%ADD10C,0.0000*%
%ADD11C,0.0080*%
%ADD12C,0.0060*%
%ADD13C,0.0100*%
%ADD14C,0.0030*%
%ADD15C,0.0025*%
%ADD16C,0.0050*%
%ADD17C,0.0160*%
D10*
X004166Y003416D02*
X020701Y003416D01*
X020071Y004990D02*
X020073Y005040D01*
X020079Y005090D01*
X020089Y005139D01*
X020103Y005187D01*
X020120Y005234D01*
X020141Y005279D01*
X020166Y005323D01*
X020194Y005364D01*
X020226Y005403D01*
X020260Y005440D01*
X020297Y005474D01*
X020337Y005504D01*
X020379Y005531D01*
X020423Y005555D01*
X020469Y005576D01*
X020516Y005592D01*
X020564Y005605D01*
X020614Y005614D01*
X020663Y005619D01*
X020714Y005620D01*
X020764Y005617D01*
X020813Y005610D01*
X020862Y005599D01*
X020910Y005584D01*
X020956Y005566D01*
X021001Y005544D01*
X021044Y005518D01*
X021085Y005489D01*
X021124Y005457D01*
X021160Y005422D01*
X021192Y005384D01*
X021222Y005344D01*
X021249Y005301D01*
X021272Y005257D01*
X021291Y005211D01*
X021307Y005163D01*
X021319Y005114D01*
X021327Y005065D01*
X021331Y005015D01*
X021331Y004965D01*
X021327Y004915D01*
X021319Y004866D01*
X021307Y004817D01*
X021291Y004769D01*
X021272Y004723D01*
X021249Y004679D01*
X021222Y004636D01*
X021192Y004596D01*
X021160Y004558D01*
X021124Y004523D01*
X021085Y004491D01*
X021044Y004462D01*
X021001Y004436D01*
X020956Y004414D01*
X020910Y004396D01*
X020862Y004381D01*
X020813Y004370D01*
X020764Y004363D01*
X020714Y004360D01*
X020663Y004361D01*
X020614Y004366D01*
X020564Y004375D01*
X020516Y004388D01*
X020469Y004404D01*
X020423Y004425D01*
X020379Y004449D01*
X020337Y004476D01*
X020297Y004506D01*
X020260Y004540D01*
X020226Y004577D01*
X020194Y004616D01*
X020166Y004657D01*
X020141Y004701D01*
X020120Y004746D01*
X020103Y004793D01*
X020089Y004841D01*
X020079Y004890D01*
X020073Y004940D01*
X020071Y004990D01*
X020701Y003415D02*
X020778Y003417D01*
X020855Y003423D01*
X020932Y003432D01*
X021008Y003445D01*
X021084Y003462D01*
X021158Y003483D01*
X021232Y003507D01*
X021304Y003535D01*
X021374Y003566D01*
X021443Y003601D01*
X021511Y003639D01*
X021576Y003680D01*
X021639Y003725D01*
X021700Y003773D01*
X021759Y003823D01*
X021815Y003876D01*
X021868Y003932D01*
X021918Y003991D01*
X021966Y004052D01*
X022011Y004115D01*
X022052Y004180D01*
X022090Y004248D01*
X022125Y004317D01*
X022156Y004387D01*
X022184Y004459D01*
X022208Y004533D01*
X022229Y004607D01*
X022246Y004683D01*
X022259Y004759D01*
X022268Y004836D01*
X022274Y004913D01*
X022276Y004990D01*
X022276Y021526D01*
X020071Y021526D02*
X020073Y021576D01*
X020079Y021626D01*
X020089Y021675D01*
X020103Y021723D01*
X020120Y021770D01*
X020141Y021815D01*
X020166Y021859D01*
X020194Y021900D01*
X020226Y021939D01*
X020260Y021976D01*
X020297Y022010D01*
X020337Y022040D01*
X020379Y022067D01*
X020423Y022091D01*
X020469Y022112D01*
X020516Y022128D01*
X020564Y022141D01*
X020614Y022150D01*
X020663Y022155D01*
X020714Y022156D01*
X020764Y022153D01*
X020813Y022146D01*
X020862Y022135D01*
X020910Y022120D01*
X020956Y022102D01*
X021001Y022080D01*
X021044Y022054D01*
X021085Y022025D01*
X021124Y021993D01*
X021160Y021958D01*
X021192Y021920D01*
X021222Y021880D01*
X021249Y021837D01*
X021272Y021793D01*
X021291Y021747D01*
X021307Y021699D01*
X021319Y021650D01*
X021327Y021601D01*
X021331Y021551D01*
X021331Y021501D01*
X021327Y021451D01*
X021319Y021402D01*
X021307Y021353D01*
X021291Y021305D01*
X021272Y021259D01*
X021249Y021215D01*
X021222Y021172D01*
X021192Y021132D01*
X021160Y021094D01*
X021124Y021059D01*
X021085Y021027D01*
X021044Y020998D01*
X021001Y020972D01*
X020956Y020950D01*
X020910Y020932D01*
X020862Y020917D01*
X020813Y020906D01*
X020764Y020899D01*
X020714Y020896D01*
X020663Y020897D01*
X020614Y020902D01*
X020564Y020911D01*
X020516Y020924D01*
X020469Y020940D01*
X020423Y020961D01*
X020379Y020985D01*
X020337Y021012D01*
X020297Y021042D01*
X020260Y021076D01*
X020226Y021113D01*
X020194Y021152D01*
X020166Y021193D01*
X020141Y021237D01*
X020120Y021282D01*
X020103Y021329D01*
X020089Y021377D01*
X020079Y021426D01*
X020073Y021476D01*
X020071Y021526D01*
X020701Y023101D02*
X020778Y023099D01*
X020855Y023093D01*
X020932Y023084D01*
X021008Y023071D01*
X021084Y023054D01*
X021158Y023033D01*
X021232Y023009D01*
X021304Y022981D01*
X021374Y022950D01*
X021443Y022915D01*
X021511Y022877D01*
X021576Y022836D01*
X021639Y022791D01*
X021700Y022743D01*
X021759Y022693D01*
X021815Y022640D01*
X021868Y022584D01*
X021918Y022525D01*
X021966Y022464D01*
X022011Y022401D01*
X022052Y022336D01*
X022090Y022268D01*
X022125Y022199D01*
X022156Y022129D01*
X022184Y022057D01*
X022208Y021983D01*
X022229Y021909D01*
X022246Y021833D01*
X022259Y021757D01*
X022268Y021680D01*
X022274Y021603D01*
X022276Y021526D01*
X020701Y023101D02*
X004166Y023101D01*
X003536Y021526D02*
X003538Y021576D01*
X003544Y021626D01*
X003554Y021675D01*
X003568Y021723D01*
X003585Y021770D01*
X003606Y021815D01*
X003631Y021859D01*
X003659Y021900D01*
X003691Y021939D01*
X003725Y021976D01*
X003762Y022010D01*
X003802Y022040D01*
X003844Y022067D01*
X003888Y022091D01*
X003934Y022112D01*
X003981Y022128D01*
X004029Y022141D01*
X004079Y022150D01*
X004128Y022155D01*
X004179Y022156D01*
X004229Y022153D01*
X004278Y022146D01*
X004327Y022135D01*
X004375Y022120D01*
X004421Y022102D01*
X004466Y022080D01*
X004509Y022054D01*
X004550Y022025D01*
X004589Y021993D01*
X004625Y021958D01*
X004657Y021920D01*
X004687Y021880D01*
X004714Y021837D01*
X004737Y021793D01*
X004756Y021747D01*
X004772Y021699D01*
X004784Y021650D01*
X004792Y021601D01*
X004796Y021551D01*
X004796Y021501D01*
X004792Y021451D01*
X004784Y021402D01*
X004772Y021353D01*
X004756Y021305D01*
X004737Y021259D01*
X004714Y021215D01*
X004687Y021172D01*
X004657Y021132D01*
X004625Y021094D01*
X004589Y021059D01*
X004550Y021027D01*
X004509Y020998D01*
X004466Y020972D01*
X004421Y020950D01*
X004375Y020932D01*
X004327Y020917D01*
X004278Y020906D01*
X004229Y020899D01*
X004179Y020896D01*
X004128Y020897D01*
X004079Y020902D01*
X004029Y020911D01*
X003981Y020924D01*
X003934Y020940D01*
X003888Y020961D01*
X003844Y020985D01*
X003802Y021012D01*
X003762Y021042D01*
X003725Y021076D01*
X003691Y021113D01*
X003659Y021152D01*
X003631Y021193D01*
X003606Y021237D01*
X003585Y021282D01*
X003568Y021329D01*
X003554Y021377D01*
X003544Y021426D01*
X003538Y021476D01*
X003536Y021526D01*
X002591Y021526D02*
X002593Y021603D01*
X002599Y021680D01*
X002608Y021757D01*
X002621Y021833D01*
X002638Y021909D01*
X002659Y021983D01*
X002683Y022057D01*
X002711Y022129D01*
X002742Y022199D01*
X002777Y022268D01*
X002815Y022336D01*
X002856Y022401D01*
X002901Y022464D01*
X002949Y022525D01*
X002999Y022584D01*
X003052Y022640D01*
X003108Y022693D01*
X003167Y022743D01*
X003228Y022791D01*
X003291Y022836D01*
X003356Y022877D01*
X003424Y022915D01*
X003493Y022950D01*
X003563Y022981D01*
X003635Y023009D01*
X003709Y023033D01*
X003783Y023054D01*
X003859Y023071D01*
X003935Y023084D01*
X004012Y023093D01*
X004089Y023099D01*
X004166Y023101D01*
X002591Y021526D02*
X002591Y004990D01*
X003536Y004990D02*
X003538Y005040D01*
X003544Y005090D01*
X003554Y005139D01*
X003568Y005187D01*
X003585Y005234D01*
X003606Y005279D01*
X003631Y005323D01*
X003659Y005364D01*
X003691Y005403D01*
X003725Y005440D01*
X003762Y005474D01*
X003802Y005504D01*
X003844Y005531D01*
X003888Y005555D01*
X003934Y005576D01*
X003981Y005592D01*
X004029Y005605D01*
X004079Y005614D01*
X004128Y005619D01*
X004179Y005620D01*
X004229Y005617D01*
X004278Y005610D01*
X004327Y005599D01*
X004375Y005584D01*
X004421Y005566D01*
X004466Y005544D01*
X004509Y005518D01*
X004550Y005489D01*
X004589Y005457D01*
X004625Y005422D01*
X004657Y005384D01*
X004687Y005344D01*
X004714Y005301D01*
X004737Y005257D01*
X004756Y005211D01*
X004772Y005163D01*
X004784Y005114D01*
X004792Y005065D01*
X004796Y005015D01*
X004796Y004965D01*
X004792Y004915D01*
X004784Y004866D01*
X004772Y004817D01*
X004756Y004769D01*
X004737Y004723D01*
X004714Y004679D01*
X004687Y004636D01*
X004657Y004596D01*
X004625Y004558D01*
X004589Y004523D01*
X004550Y004491D01*
X004509Y004462D01*
X004466Y004436D01*
X004421Y004414D01*
X004375Y004396D01*
X004327Y004381D01*
X004278Y004370D01*
X004229Y004363D01*
X004179Y004360D01*
X004128Y004361D01*
X004079Y004366D01*
X004029Y004375D01*
X003981Y004388D01*
X003934Y004404D01*
X003888Y004425D01*
X003844Y004449D01*
X003802Y004476D01*
X003762Y004506D01*
X003725Y004540D01*
X003691Y004577D01*
X003659Y004616D01*
X003631Y004657D01*
X003606Y004701D01*
X003585Y004746D01*
X003568Y004793D01*
X003554Y004841D01*
X003544Y004890D01*
X003538Y004940D01*
X003536Y004990D01*
X002591Y004990D02*
X002593Y004913D01*
X002599Y004836D01*
X002608Y004759D01*
X002621Y004683D01*
X002638Y004607D01*
X002659Y004533D01*
X002683Y004459D01*
X002711Y004387D01*
X002742Y004317D01*
X002777Y004248D01*
X002815Y004180D01*
X002856Y004115D01*
X002901Y004052D01*
X002949Y003991D01*
X002999Y003932D01*
X003052Y003876D01*
X003108Y003823D01*
X003167Y003773D01*
X003228Y003725D01*
X003291Y003680D01*
X003356Y003639D01*
X003424Y003601D01*
X003493Y003566D01*
X003563Y003535D01*
X003635Y003507D01*
X003709Y003483D01*
X003783Y003462D01*
X003859Y003445D01*
X003935Y003432D01*
X004012Y003423D01*
X004089Y003417D01*
X004166Y003415D01*
X005394Y004416D02*
X005396Y004443D01*
X005402Y004470D01*
X005411Y004496D01*
X005424Y004520D01*
X005440Y004543D01*
X005459Y004562D01*
X005481Y004579D01*
X005505Y004593D01*
X005530Y004603D01*
X005557Y004610D01*
X005584Y004613D01*
X005612Y004612D01*
X005639Y004607D01*
X005665Y004599D01*
X005689Y004587D01*
X005712Y004571D01*
X005733Y004553D01*
X005750Y004532D01*
X005765Y004508D01*
X005776Y004483D01*
X005784Y004457D01*
X005788Y004430D01*
X005788Y004402D01*
X005784Y004375D01*
X005776Y004349D01*
X005765Y004324D01*
X005750Y004300D01*
X005733Y004279D01*
X005712Y004261D01*
X005690Y004245D01*
X005665Y004233D01*
X005639Y004225D01*
X005612Y004220D01*
X005584Y004219D01*
X005557Y004222D01*
X005530Y004229D01*
X005505Y004239D01*
X005481Y004253D01*
X005459Y004270D01*
X005440Y004289D01*
X005424Y004312D01*
X005411Y004336D01*
X005402Y004362D01*
X005396Y004389D01*
X005394Y004416D01*
X006394Y004416D02*
X006396Y004443D01*
X006402Y004470D01*
X006411Y004496D01*
X006424Y004520D01*
X006440Y004543D01*
X006459Y004562D01*
X006481Y004579D01*
X006505Y004593D01*
X006530Y004603D01*
X006557Y004610D01*
X006584Y004613D01*
X006612Y004612D01*
X006639Y004607D01*
X006665Y004599D01*
X006689Y004587D01*
X006712Y004571D01*
X006733Y004553D01*
X006750Y004532D01*
X006765Y004508D01*
X006776Y004483D01*
X006784Y004457D01*
X006788Y004430D01*
X006788Y004402D01*
X006784Y004375D01*
X006776Y004349D01*
X006765Y004324D01*
X006750Y004300D01*
X006733Y004279D01*
X006712Y004261D01*
X006690Y004245D01*
X006665Y004233D01*
X006639Y004225D01*
X006612Y004220D01*
X006584Y004219D01*
X006557Y004222D01*
X006530Y004229D01*
X006505Y004239D01*
X006481Y004253D01*
X006459Y004270D01*
X006440Y004289D01*
X006424Y004312D01*
X006411Y004336D01*
X006402Y004362D01*
X006396Y004389D01*
X006394Y004416D01*
X007394Y004416D02*
X007396Y004443D01*
X007402Y004470D01*
X007411Y004496D01*
X007424Y004520D01*
X007440Y004543D01*
X007459Y004562D01*
X007481Y004579D01*
X007505Y004593D01*
X007530Y004603D01*
X007557Y004610D01*
X007584Y004613D01*
X007612Y004612D01*
X007639Y004607D01*
X007665Y004599D01*
X007689Y004587D01*
X007712Y004571D01*
X007733Y004553D01*
X007750Y004532D01*
X007765Y004508D01*
X007776Y004483D01*
X007784Y004457D01*
X007788Y004430D01*
X007788Y004402D01*
X007784Y004375D01*
X007776Y004349D01*
X007765Y004324D01*
X007750Y004300D01*
X007733Y004279D01*
X007712Y004261D01*
X007690Y004245D01*
X007665Y004233D01*
X007639Y004225D01*
X007612Y004220D01*
X007584Y004219D01*
X007557Y004222D01*
X007530Y004229D01*
X007505Y004239D01*
X007481Y004253D01*
X007459Y004270D01*
X007440Y004289D01*
X007424Y004312D01*
X007411Y004336D01*
X007402Y004362D01*
X007396Y004389D01*
X007394Y004416D01*
X008394Y004416D02*
X008396Y004443D01*
X008402Y004470D01*
X008411Y004496D01*
X008424Y004520D01*
X008440Y004543D01*
X008459Y004562D01*
X008481Y004579D01*
X008505Y004593D01*
X008530Y004603D01*
X008557Y004610D01*
X008584Y004613D01*
X008612Y004612D01*
X008639Y004607D01*
X008665Y004599D01*
X008689Y004587D01*
X008712Y004571D01*
X008733Y004553D01*
X008750Y004532D01*
X008765Y004508D01*
X008776Y004483D01*
X008784Y004457D01*
X008788Y004430D01*
X008788Y004402D01*
X008784Y004375D01*
X008776Y004349D01*
X008765Y004324D01*
X008750Y004300D01*
X008733Y004279D01*
X008712Y004261D01*
X008690Y004245D01*
X008665Y004233D01*
X008639Y004225D01*
X008612Y004220D01*
X008584Y004219D01*
X008557Y004222D01*
X008530Y004229D01*
X008505Y004239D01*
X008481Y004253D01*
X008459Y004270D01*
X008440Y004289D01*
X008424Y004312D01*
X008411Y004336D01*
X008402Y004362D01*
X008396Y004389D01*
X008394Y004416D01*
X020214Y007749D02*
X020216Y007775D01*
X020222Y007801D01*
X020232Y007826D01*
X020245Y007849D01*
X020261Y007869D01*
X020281Y007887D01*
X020303Y007902D01*
X020326Y007914D01*
X020352Y007922D01*
X020378Y007926D01*
X020404Y007926D01*
X020430Y007922D01*
X020456Y007914D01*
X020480Y007902D01*
X020501Y007887D01*
X020521Y007869D01*
X020537Y007849D01*
X020550Y007826D01*
X020560Y007801D01*
X020566Y007775D01*
X020568Y007749D01*
X020566Y007723D01*
X020560Y007697D01*
X020550Y007672D01*
X020537Y007649D01*
X020521Y007629D01*
X020501Y007611D01*
X020479Y007596D01*
X020456Y007584D01*
X020430Y007576D01*
X020404Y007572D01*
X020378Y007572D01*
X020352Y007576D01*
X020326Y007584D01*
X020302Y007596D01*
X020281Y007611D01*
X020261Y007629D01*
X020245Y007649D01*
X020232Y007672D01*
X020222Y007697D01*
X020216Y007723D01*
X020214Y007749D01*
X020214Y009482D02*
X020216Y009508D01*
X020222Y009534D01*
X020232Y009559D01*
X020245Y009582D01*
X020261Y009602D01*
X020281Y009620D01*
X020303Y009635D01*
X020326Y009647D01*
X020352Y009655D01*
X020378Y009659D01*
X020404Y009659D01*
X020430Y009655D01*
X020456Y009647D01*
X020480Y009635D01*
X020501Y009620D01*
X020521Y009602D01*
X020537Y009582D01*
X020550Y009559D01*
X020560Y009534D01*
X020566Y009508D01*
X020568Y009482D01*
X020566Y009456D01*
X020560Y009430D01*
X020550Y009405D01*
X020537Y009382D01*
X020521Y009362D01*
X020501Y009344D01*
X020479Y009329D01*
X020456Y009317D01*
X020430Y009309D01*
X020404Y009305D01*
X020378Y009305D01*
X020352Y009309D01*
X020326Y009317D01*
X020302Y009329D01*
X020281Y009344D01*
X020261Y009362D01*
X020245Y009382D01*
X020232Y009405D01*
X020222Y009430D01*
X020216Y009456D01*
X020214Y009482D01*
D11*
X018591Y011166D02*
X018591Y011666D01*
X018341Y011916D01*
X018591Y012166D01*
X018591Y012666D01*
X018341Y012916D01*
X018591Y013166D01*
X018591Y013666D01*
X018341Y013916D01*
X018591Y014166D01*
X018591Y014666D01*
X018341Y014916D01*
X018591Y015166D01*
X018591Y015666D01*
X018341Y015916D01*
X018591Y016166D01*
X018591Y016666D01*
X018341Y016916D01*
X018591Y017166D01*
X018591Y017666D01*
X018341Y017916D01*
X018591Y018166D01*
X018591Y018666D01*
X018341Y018916D01*
X017841Y018916D01*
X017591Y018666D01*
X017591Y018166D01*
X017341Y017916D01*
X017591Y017666D01*
X017591Y017166D01*
X017341Y016916D01*
X017591Y016666D01*
X017591Y016166D01*
X017341Y015916D01*
X017591Y015666D01*
X017591Y015166D01*
X017341Y014916D01*
X017591Y014666D01*
X017591Y014166D01*
X017341Y013916D01*
X017591Y013666D01*
X017591Y013166D01*
X017341Y012916D01*
X017591Y012666D01*
X017591Y012166D01*
X017341Y011916D01*
X017591Y011666D01*
X017591Y011166D01*
X017341Y010916D01*
X016841Y010916D01*
X016591Y011166D01*
X016591Y011666D01*
X016841Y011916D01*
X016591Y012166D01*
X016591Y012666D01*
X016841Y012916D01*
X016591Y013166D01*
X016591Y013666D01*
X016841Y013916D01*
X016591Y014166D01*
X016591Y014666D01*
X016841Y014916D01*
X016591Y015166D01*
X016591Y015666D01*
X016841Y015916D01*
X016591Y016166D01*
X016591Y016666D01*
X016841Y016916D01*
X016591Y017166D01*
X016591Y017666D01*
X016841Y017916D01*
X016591Y018166D01*
X016591Y018666D01*
X016841Y018916D01*
X017341Y018916D01*
X017591Y018666D01*
X017591Y018166D01*
X017841Y017916D01*
X017591Y017666D01*
X017591Y017166D01*
X017841Y016916D01*
X017591Y016666D01*
X017591Y016166D01*
X017841Y015916D01*
X017591Y015666D01*
X017591Y015166D01*
X017841Y014916D01*
X017591Y014666D01*
X017591Y014166D01*
X017841Y013916D01*
X017591Y013666D01*
X017591Y013166D01*
X017841Y012916D01*
X017591Y012666D01*
X017591Y012166D01*
X017841Y011916D01*
X017591Y011666D01*
X017591Y011166D01*
X017841Y010916D01*
X018341Y010916D01*
X018591Y011166D01*
X016591Y011166D02*
X016591Y011666D01*
X016341Y011916D01*
X016591Y012166D01*
X016591Y012666D01*
X016341Y012916D01*
X016591Y013166D01*
X016591Y013666D01*
X016341Y013916D01*
X016591Y014166D01*
X016591Y014666D01*
X016341Y014916D01*
X016591Y015166D01*
X016591Y015666D01*
X016341Y015916D01*
X016591Y016166D01*
X016591Y016666D01*
X016341Y016916D01*
X016591Y017166D01*
X016591Y017666D01*
X016341Y017916D01*
X016591Y018166D01*
X016591Y018666D01*
X016341Y018916D01*
X015841Y018916D01*
X015591Y018666D01*
X015591Y018166D01*
X015841Y017916D01*
X015591Y017666D01*
X015591Y017166D01*
X015841Y016916D01*
X015591Y016666D01*
X015591Y016166D01*
X015841Y015916D01*
X015591Y015666D01*
X015591Y015166D01*
X015841Y014916D01*
X015591Y014666D01*
X015591Y014166D01*
X015841Y013916D01*
X015591Y013666D01*
X015591Y013166D01*
X015841Y012916D01*
X015591Y012666D01*
X015591Y012166D01*
X015841Y011916D01*
X015591Y011666D01*
X015591Y011166D01*
X015841Y010916D01*
X016341Y010916D01*
X016591Y011166D01*
X016841Y004816D02*
X017341Y004816D01*
X017591Y004566D01*
X017841Y004816D01*
X018341Y004816D01*
X018591Y004566D01*
X018841Y004816D01*
X019341Y004816D01*
X019591Y004566D01*
X019591Y004066D01*
X019341Y003816D01*
X018841Y003816D01*
X018591Y004066D01*
X018341Y003816D01*
X017841Y003816D01*
X017591Y004066D01*
X017341Y003816D01*
X016841Y003816D01*
X016591Y004066D01*
X016341Y003816D01*
X015841Y003816D01*
X015591Y004066D01*
X015341Y003816D01*
X014841Y003816D01*
X014591Y004066D01*
X014591Y004566D01*
X014841Y004816D01*
X015341Y004816D01*
X015591Y004566D01*
X015841Y004816D01*
X016341Y004816D01*
X016591Y004566D01*
X016841Y004816D01*
X009591Y012166D02*
X009591Y012666D01*
X009341Y012916D01*
X009591Y013166D01*
X009591Y013666D01*
X009341Y013916D01*
X009591Y014166D01*
X009591Y014666D01*
X009341Y014916D01*
X009591Y015166D01*
X009591Y015666D01*
X009341Y015916D01*
X009591Y016166D01*
X009591Y016666D01*
X009341Y016916D01*
X009591Y017166D01*
X009591Y017666D01*
X009341Y017916D01*
X008841Y017916D01*
X008591Y017666D01*
X008591Y017166D01*
X008341Y016916D01*
X008591Y016666D01*
X008591Y016166D01*
X008341Y015916D01*
X008591Y015666D01*
X008591Y015166D01*
X008341Y014916D01*
X008591Y014666D01*
X008591Y014166D01*
X008341Y013916D01*
X008591Y013666D01*
X008591Y013166D01*
X008341Y012916D01*
X008591Y012666D01*
X008591Y012166D01*
X008341Y011916D01*
X007841Y011916D01*
X007591Y012166D01*
X007591Y012666D01*
X007841Y012916D01*
X007591Y013166D01*
X007591Y013666D01*
X007841Y013916D01*
X007591Y014166D01*
X007591Y014666D01*
X007841Y014916D01*
X007591Y015166D01*
X007591Y015666D01*
X007841Y015916D01*
X007591Y016166D01*
X007591Y016666D01*
X007841Y016916D01*
X007591Y017166D01*
X007591Y017666D01*
X007841Y017916D01*
X008341Y017916D01*
X008591Y017666D01*
X008591Y017166D01*
X008841Y016916D01*
X008591Y016666D01*
X008591Y016166D01*
X008841Y015916D01*
X008591Y015666D01*
X008591Y015166D01*
X008841Y014916D01*
X008591Y014666D01*
X008591Y014166D01*
X008841Y013916D01*
X008591Y013666D01*
X008591Y013166D01*
X008841Y012916D01*
X008591Y012666D01*
X008591Y012166D01*
X008841Y011916D01*
X009341Y011916D01*
X009591Y012166D01*
X007591Y012166D02*
X007591Y012666D01*
X007341Y012916D01*
X007591Y013166D01*
X007591Y013666D01*
X007341Y013916D01*
X007591Y014166D01*
X007591Y014666D01*
X007341Y014916D01*
X007591Y015166D01*
X007591Y015666D01*
X007341Y015916D01*
X007591Y016166D01*
X007591Y016666D01*
X007341Y016916D01*
X007591Y017166D01*
X007591Y017666D01*
X007341Y017916D01*
X006841Y017916D01*
X006591Y017666D01*
X006591Y017166D01*
X006841Y016916D01*
X006591Y016666D01*
X006591Y016166D01*
X006841Y015916D01*
X006591Y015666D01*
X006591Y015166D01*
X006841Y014916D01*
X006591Y014666D01*
X006591Y014166D01*
X006841Y013916D01*
X006591Y013666D01*
X006591Y013166D01*
X006841Y012916D01*
X006591Y012666D01*
X006591Y012166D01*
X006841Y011916D01*
X007341Y011916D01*
X007591Y012166D01*
X007341Y006416D02*
X007841Y006416D01*
X008091Y006166D01*
X008341Y006416D01*
X008841Y006416D01*
X009091Y006166D01*
X009091Y005666D01*
X008841Y005416D01*
X008341Y005416D01*
X008091Y005666D01*
X007841Y005416D01*
X007341Y005416D01*
X007091Y005666D01*
X007091Y006166D01*
X006841Y006416D01*
X006341Y006416D01*
X006091Y006166D01*
X005841Y006416D01*
X005341Y006416D01*
X005091Y006166D01*
X005091Y005666D01*
X005341Y005416D01*
X005841Y005416D01*
X006091Y005666D01*
X006341Y005416D01*
X006841Y005416D01*
X007091Y005666D01*
X007091Y006166D01*
X007341Y006416D01*
X007941Y020216D02*
X006241Y020216D01*
X005891Y021023D02*
X005891Y021816D01*
X006241Y022616D02*
X007941Y022616D01*
X008291Y021816D02*
X008291Y021011D01*
X006391Y021416D02*
X006393Y021468D01*
X006399Y021520D01*
X006409Y021572D01*
X006422Y021622D01*
X006439Y021672D01*
X006460Y021720D01*
X006485Y021766D01*
X006513Y021810D01*
X006544Y021852D01*
X006578Y021892D01*
X006615Y021929D01*
X006655Y021963D01*
X006697Y021994D01*
X006741Y022022D01*
X006787Y022047D01*
X006835Y022068D01*
X006885Y022085D01*
X006935Y022098D01*
X006987Y022108D01*
X007039Y022114D01*
X007091Y022116D01*
X007143Y022114D01*
X007195Y022108D01*
X007247Y022098D01*
X007297Y022085D01*
X007347Y022068D01*
X007395Y022047D01*
X007441Y022022D01*
X007485Y021994D01*
X007527Y021963D01*
X007567Y021929D01*
X007604Y021892D01*
X007638Y021852D01*
X007669Y021810D01*
X007697Y021766D01*
X007722Y021720D01*
X007743Y021672D01*
X007760Y021622D01*
X007773Y021572D01*
X007783Y021520D01*
X007789Y021468D01*
X007791Y021416D01*
X007789Y021364D01*
X007783Y021312D01*
X007773Y021260D01*
X007760Y021210D01*
X007743Y021160D01*
X007722Y021112D01*
X007697Y021066D01*
X007669Y021022D01*
X007638Y020980D01*
X007604Y020940D01*
X007567Y020903D01*
X007527Y020869D01*
X007485Y020838D01*
X007441Y020810D01*
X007395Y020785D01*
X007347Y020764D01*
X007297Y020747D01*
X007247Y020734D01*
X007195Y020724D01*
X007143Y020718D01*
X007091Y020716D01*
X007039Y020718D01*
X006987Y020724D01*
X006935Y020734D01*
X006885Y020747D01*
X006835Y020764D01*
X006787Y020785D01*
X006741Y020810D01*
X006697Y020838D01*
X006655Y020869D01*
X006615Y020903D01*
X006578Y020940D01*
X006544Y020980D01*
X006513Y021022D01*
X006485Y021066D01*
X006460Y021112D01*
X006439Y021160D01*
X006422Y021210D01*
X006409Y021260D01*
X006399Y021312D01*
X006393Y021364D01*
X006391Y021416D01*
X016891Y021023D02*
X016891Y021816D01*
X017241Y022616D02*
X018941Y022616D01*
X019291Y021816D02*
X019291Y021011D01*
X018941Y020216D02*
X017241Y020216D01*
X017391Y021416D02*
X017393Y021468D01*
X017399Y021520D01*
X017409Y021572D01*
X017422Y021622D01*
X017439Y021672D01*
X017460Y021720D01*
X017485Y021766D01*
X017513Y021810D01*
X017544Y021852D01*
X017578Y021892D01*
X017615Y021929D01*
X017655Y021963D01*
X017697Y021994D01*
X017741Y022022D01*
X017787Y022047D01*
X017835Y022068D01*
X017885Y022085D01*
X017935Y022098D01*
X017987Y022108D01*
X018039Y022114D01*
X018091Y022116D01*
X018143Y022114D01*
X018195Y022108D01*
X018247Y022098D01*
X018297Y022085D01*
X018347Y022068D01*
X018395Y022047D01*
X018441Y022022D01*
X018485Y021994D01*
X018527Y021963D01*
X018567Y021929D01*
X018604Y021892D01*
X018638Y021852D01*
X018669Y021810D01*
X018697Y021766D01*
X018722Y021720D01*
X018743Y021672D01*
X018760Y021622D01*
X018773Y021572D01*
X018783Y021520D01*
X018789Y021468D01*
X018791Y021416D01*
X018789Y021364D01*
X018783Y021312D01*
X018773Y021260D01*
X018760Y021210D01*
X018743Y021160D01*
X018722Y021112D01*
X018697Y021066D01*
X018669Y021022D01*
X018638Y020980D01*
X018604Y020940D01*
X018567Y020903D01*
X018527Y020869D01*
X018485Y020838D01*
X018441Y020810D01*
X018395Y020785D01*
X018347Y020764D01*
X018297Y020747D01*
X018247Y020734D01*
X018195Y020724D01*
X018143Y020718D01*
X018091Y020716D01*
X018039Y020718D01*
X017987Y020724D01*
X017935Y020734D01*
X017885Y020747D01*
X017835Y020764D01*
X017787Y020785D01*
X017741Y020810D01*
X017697Y020838D01*
X017655Y020869D01*
X017615Y020903D01*
X017578Y020940D01*
X017544Y020980D01*
X017513Y021022D01*
X017485Y021066D01*
X017460Y021112D01*
X017439Y021160D01*
X017422Y021210D01*
X017409Y021260D01*
X017399Y021312D01*
X017393Y021364D01*
X017391Y021416D01*
D12*
X016741Y019866D02*
X016591Y019866D01*
X016541Y019816D01*
X014641Y019816D01*
X014591Y019866D01*
X014441Y019866D01*
X014424Y019864D01*
X014407Y019860D01*
X014391Y019853D01*
X014377Y019843D01*
X014364Y019830D01*
X014354Y019816D01*
X014347Y019800D01*
X014343Y019783D01*
X014341Y019766D01*
X014341Y019066D02*
X014343Y019049D01*
X014347Y019032D01*
X014354Y019016D01*
X014364Y019002D01*
X014377Y018989D01*
X014391Y018979D01*
X014407Y018972D01*
X014424Y018968D01*
X014441Y018966D01*
X014591Y018966D01*
X014641Y019016D01*
X016541Y019016D01*
X016591Y018966D01*
X016741Y018966D01*
X016758Y018968D01*
X016775Y018972D01*
X016791Y018979D01*
X016805Y018989D01*
X016818Y019002D01*
X016828Y019016D01*
X016835Y019032D01*
X016839Y019049D01*
X016841Y019066D01*
X016841Y019766D02*
X016839Y019783D01*
X016835Y019800D01*
X016828Y019816D01*
X016818Y019830D01*
X016805Y019843D01*
X016791Y019853D01*
X016775Y019860D01*
X016758Y019864D01*
X016741Y019866D01*
X015091Y020916D02*
X011091Y020916D01*
X011091Y021916D01*
X015091Y021916D01*
X015091Y020916D01*
X013741Y018916D02*
X012991Y018916D01*
X012989Y018877D01*
X012983Y018838D01*
X012974Y018800D01*
X012961Y018763D01*
X012944Y018727D01*
X012924Y018694D01*
X012900Y018662D01*
X012874Y018633D01*
X012845Y018607D01*
X012813Y018583D01*
X012780Y018563D01*
X012744Y018546D01*
X012707Y018533D01*
X012669Y018524D01*
X012630Y018518D01*
X012591Y018516D01*
X012552Y018518D01*
X012513Y018524D01*
X012475Y018533D01*
X012438Y018546D01*
X012402Y018563D01*
X012369Y018583D01*
X012337Y018607D01*
X012308Y018633D01*
X012282Y018662D01*
X012258Y018694D01*
X012238Y018727D01*
X012221Y018763D01*
X012208Y018800D01*
X012199Y018838D01*
X012193Y018877D01*
X012191Y018916D01*
X011441Y018916D01*
X011441Y004916D01*
X013741Y004916D01*
X013741Y018916D01*
X011091Y020916D02*
X010091Y020916D01*
X010091Y021916D01*
X011091Y021916D01*
X010741Y019866D02*
X010591Y019866D01*
X010541Y019816D01*
X008641Y019816D01*
X008591Y019866D01*
X008441Y019866D01*
X008424Y019864D01*
X008407Y019860D01*
X008391Y019853D01*
X008377Y019843D01*
X008364Y019830D01*
X008354Y019816D01*
X008347Y019800D01*
X008343Y019783D01*
X008341Y019766D01*
X008341Y019066D02*
X008343Y019049D01*
X008347Y019032D01*
X008354Y019016D01*
X008364Y019002D01*
X008377Y018989D01*
X008391Y018979D01*
X008407Y018972D01*
X008424Y018968D01*
X008441Y018966D01*
X008591Y018966D01*
X008641Y019016D01*
X010541Y019016D01*
X010591Y018966D01*
X010741Y018966D01*
X010758Y018968D01*
X010775Y018972D01*
X010791Y018979D01*
X010805Y018989D01*
X010818Y019002D01*
X010828Y019016D01*
X010835Y019032D01*
X010839Y019049D01*
X010841Y019066D01*
X010841Y019766D02*
X010839Y019783D01*
X010835Y019800D01*
X010828Y019816D01*
X010818Y019830D01*
X010805Y019843D01*
X010791Y019853D01*
X010775Y019860D01*
X010758Y019864D01*
X010741Y019866D01*
X009641Y018866D02*
X009491Y018866D01*
X009441Y018816D01*
X007541Y018816D01*
X007491Y018866D01*
X007341Y018866D01*
X007324Y018864D01*
X007307Y018860D01*
X007291Y018853D01*
X007277Y018843D01*
X007264Y018830D01*
X007254Y018816D01*
X007247Y018800D01*
X007243Y018783D01*
X007241Y018766D01*
X007241Y018066D02*
X007243Y018049D01*
X007247Y018032D01*
X007254Y018016D01*
X007264Y018002D01*
X007277Y017989D01*
X007291Y017979D01*
X007307Y017972D01*
X007324Y017968D01*
X007341Y017966D01*
X007491Y017966D01*
X007541Y018016D01*
X009441Y018016D01*
X009491Y017966D01*
X009641Y017966D01*
X009658Y017968D01*
X009675Y017972D01*
X009691Y017979D01*
X009705Y017989D01*
X009718Y018002D01*
X009728Y018016D01*
X009735Y018032D01*
X009739Y018049D01*
X009741Y018066D01*
X009741Y018766D02*
X009739Y018783D01*
X009735Y018800D01*
X009728Y018816D01*
X009718Y018830D01*
X009705Y018843D01*
X009691Y018853D01*
X009675Y018860D01*
X009658Y018864D01*
X009641Y018866D01*
X005491Y018216D02*
X005444Y018218D01*
X005396Y018224D01*
X005350Y018233D01*
X005304Y018246D01*
X005260Y018262D01*
X005216Y018283D01*
X005175Y018306D01*
X005136Y018332D01*
X005099Y018362D01*
X005064Y018395D01*
X005032Y018430D01*
X005003Y018467D01*
X005491Y019416D02*
X005536Y019414D01*
X005582Y019409D01*
X005626Y019401D01*
X005670Y019389D01*
X005713Y019373D01*
X005755Y019355D01*
X005795Y019333D01*
X005833Y019309D01*
X005869Y019282D01*
X005904Y019252D01*
X005935Y019219D01*
X005965Y019184D01*
X005491Y019416D02*
X005446Y019414D01*
X005400Y019409D01*
X005356Y019401D01*
X005312Y019389D01*
X005269Y019373D01*
X005227Y019355D01*
X005187Y019333D01*
X005149Y019309D01*
X005113Y019282D01*
X005078Y019252D01*
X005047Y019219D01*
X005017Y019184D01*
X005491Y018216D02*
X005537Y018218D01*
X005583Y018223D01*
X005629Y018232D01*
X005674Y018244D01*
X005717Y018260D01*
X005759Y018279D01*
X005800Y018302D01*
X005839Y018327D01*
X005875Y018355D01*
X005910Y018386D01*
X005942Y018420D01*
X005971Y018456D01*
X006741Y011916D02*
X008441Y011916D01*
X008458Y011914D01*
X008475Y011910D01*
X008491Y011903D01*
X008505Y011893D01*
X008518Y011880D01*
X008528Y011866D01*
X008535Y011850D01*
X008539Y011833D01*
X008541Y011816D01*
X008541Y011016D01*
X008539Y010999D01*
X008535Y010982D01*
X008528Y010966D01*
X008518Y010952D01*
X008505Y010939D01*
X008491Y010929D01*
X008475Y010922D01*
X008458Y010918D01*
X008441Y010916D01*
X006741Y010916D01*
X006724Y010918D01*
X006707Y010922D01*
X006691Y010929D01*
X006677Y010939D01*
X006664Y010952D01*
X006654Y010966D01*
X006647Y010982D01*
X006643Y010999D01*
X006641Y011016D01*
X006641Y011816D01*
X006643Y011833D01*
X006647Y011850D01*
X006654Y011866D01*
X006664Y011880D01*
X006677Y011893D01*
X006691Y011903D01*
X006707Y011910D01*
X006724Y011914D01*
X006741Y011916D01*
X007441Y011416D02*
X007491Y011416D01*
X007691Y011416D02*
X007741Y011416D01*
X008241Y010116D02*
X005941Y010116D01*
X005890Y010114D01*
X005839Y010109D01*
X005789Y010099D01*
X005739Y010086D01*
X005691Y010070D01*
X005644Y010050D01*
X005598Y010026D01*
X005555Y010000D01*
X005513Y009970D01*
X005474Y009937D01*
X005437Y009902D01*
X005403Y009864D01*
X005372Y009823D01*
X005343Y009781D01*
X005318Y009736D01*
X005297Y009690D01*
X005278Y009642D01*
X005264Y009593D01*
X005253Y009543D01*
X005245Y009493D01*
X005241Y009442D01*
X005241Y009390D01*
X005245Y009339D01*
X005253Y009289D01*
X005264Y009239D01*
X005278Y009190D01*
X005297Y009142D01*
X005318Y009096D01*
X005343Y009051D01*
X005372Y009009D01*
X005403Y008968D01*
X005437Y008930D01*
X005474Y008895D01*
X005513Y008862D01*
X005555Y008832D01*
X005598Y008806D01*
X005644Y008782D01*
X005691Y008762D01*
X005739Y008746D01*
X005789Y008733D01*
X005839Y008723D01*
X005890Y008718D01*
X005941Y008716D01*
X008241Y008716D01*
X008941Y008416D02*
X007241Y008416D01*
X007224Y008414D01*
X007207Y008410D01*
X007191Y008403D01*
X007177Y008393D01*
X007164Y008380D01*
X007154Y008366D01*
X007147Y008350D01*
X007143Y008333D01*
X007141Y008316D01*
X007141Y007516D01*
X007143Y007499D01*
X007147Y007482D01*
X007154Y007466D01*
X007164Y007452D01*
X007177Y007439D01*
X007191Y007429D01*
X007207Y007422D01*
X007224Y007418D01*
X007241Y007416D01*
X008941Y007416D01*
X008958Y007418D01*
X008975Y007422D01*
X008991Y007429D01*
X009005Y007439D01*
X009018Y007452D01*
X009028Y007466D01*
X009035Y007482D01*
X009039Y007499D01*
X009041Y007516D01*
X009041Y008316D01*
X009039Y008333D01*
X009035Y008350D01*
X009028Y008366D01*
X009018Y008380D01*
X009005Y008393D01*
X008991Y008403D01*
X008975Y008410D01*
X008958Y008414D01*
X008941Y008416D01*
X009441Y008416D02*
X009441Y008566D01*
X009443Y008583D01*
X009447Y008600D01*
X009454Y008616D01*
X009464Y008630D01*
X009477Y008643D01*
X009491Y008653D01*
X009507Y008660D01*
X009524Y008664D01*
X009541Y008666D01*
X009441Y008416D02*
X009491Y008366D01*
X009491Y006466D01*
X009441Y006416D01*
X009441Y006266D01*
X009443Y006249D01*
X009447Y006232D01*
X009454Y006216D01*
X009464Y006202D01*
X009477Y006189D01*
X009491Y006179D01*
X009507Y006172D01*
X009524Y006168D01*
X009541Y006166D01*
X010241Y006166D02*
X010258Y006168D01*
X010275Y006172D01*
X010291Y006179D01*
X010305Y006189D01*
X010318Y006202D01*
X010328Y006216D01*
X010335Y006232D01*
X010339Y006249D01*
X010341Y006266D01*
X010341Y006416D01*
X010291Y006466D01*
X010291Y008366D01*
X010341Y008416D01*
X010341Y008566D01*
X010339Y008583D01*
X010335Y008600D01*
X010328Y008616D01*
X010318Y008630D01*
X010305Y008643D01*
X010291Y008653D01*
X010275Y008660D01*
X010258Y008664D01*
X010241Y008666D01*
X008241Y008716D02*
X008292Y008718D01*
X008343Y008723D01*
X008393Y008733D01*
X008443Y008746D01*
X008491Y008762D01*
X008538Y008782D01*
X008584Y008806D01*
X008627Y008832D01*
X008669Y008862D01*
X008708Y008895D01*
X008745Y008930D01*
X008779Y008968D01*
X008810Y009009D01*
X008839Y009051D01*
X008864Y009096D01*
X008885Y009142D01*
X008904Y009190D01*
X008918Y009239D01*
X008929Y009289D01*
X008937Y009339D01*
X008941Y009390D01*
X008941Y009442D01*
X008937Y009493D01*
X008929Y009543D01*
X008918Y009593D01*
X008904Y009642D01*
X008885Y009690D01*
X008864Y009736D01*
X008839Y009781D01*
X008810Y009823D01*
X008779Y009864D01*
X008745Y009902D01*
X008708Y009937D01*
X008669Y009970D01*
X008627Y010000D01*
X008584Y010026D01*
X008538Y010050D01*
X008491Y010070D01*
X008443Y010086D01*
X008393Y010099D01*
X008343Y010109D01*
X008292Y010114D01*
X008241Y010116D01*
X007591Y009416D02*
X007341Y009416D01*
X007341Y009066D01*
X007191Y009066D02*
X006991Y009066D01*
X006991Y009766D01*
X007191Y009766D01*
X007191Y009066D01*
X006841Y009066D02*
X006841Y009416D01*
X006591Y009416D01*
X006841Y009416D02*
X006841Y009766D01*
X007341Y009766D02*
X007341Y009416D01*
X006941Y008416D02*
X005241Y008416D01*
X005224Y008414D01*
X005207Y008410D01*
X005191Y008403D01*
X005177Y008393D01*
X005164Y008380D01*
X005154Y008366D01*
X005147Y008350D01*
X005143Y008333D01*
X005141Y008316D01*
X005141Y007516D01*
X005143Y007499D01*
X005147Y007482D01*
X005154Y007466D01*
X005164Y007452D01*
X005177Y007439D01*
X005191Y007429D01*
X005207Y007422D01*
X005224Y007418D01*
X005241Y007416D01*
X006941Y007416D01*
X006958Y007418D01*
X006975Y007422D01*
X006991Y007429D01*
X007005Y007439D01*
X007018Y007452D01*
X007028Y007466D01*
X007035Y007482D01*
X007039Y007499D01*
X007041Y007516D01*
X007041Y008316D01*
X007039Y008333D01*
X007035Y008350D01*
X007028Y008366D01*
X007018Y008380D01*
X007005Y008393D01*
X006991Y008403D01*
X006975Y008410D01*
X006958Y008414D01*
X006941Y008416D01*
X006241Y007916D02*
X006191Y007916D01*
X005991Y007916D02*
X005941Y007916D01*
X007941Y007916D02*
X007991Y007916D01*
X008191Y007916D02*
X008241Y007916D01*
X010491Y004416D02*
X010489Y004369D01*
X010483Y004321D01*
X010474Y004275D01*
X010461Y004229D01*
X010445Y004185D01*
X010424Y004141D01*
X010401Y004100D01*
X010375Y004061D01*
X010345Y004024D01*
X010312Y003989D01*
X010277Y003957D01*
X010240Y003928D01*
X009291Y004416D02*
X009293Y004461D01*
X009298Y004507D01*
X009306Y004551D01*
X009318Y004595D01*
X009334Y004638D01*
X009352Y004680D01*
X009374Y004720D01*
X009398Y004758D01*
X009425Y004794D01*
X009455Y004829D01*
X009488Y004860D01*
X009523Y004890D01*
X009291Y004416D02*
X009293Y004371D01*
X009298Y004325D01*
X009306Y004281D01*
X009318Y004237D01*
X009334Y004194D01*
X009352Y004152D01*
X009374Y004112D01*
X009398Y004074D01*
X009425Y004038D01*
X009455Y004003D01*
X009488Y003972D01*
X009523Y003942D01*
X010491Y004416D02*
X010489Y004462D01*
X010484Y004508D01*
X010475Y004554D01*
X010463Y004599D01*
X010447Y004642D01*
X010428Y004684D01*
X010405Y004725D01*
X010380Y004764D01*
X010352Y004800D01*
X010321Y004835D01*
X010287Y004867D01*
X010251Y004896D01*
X011641Y004516D02*
X011641Y003716D01*
X011643Y003699D01*
X011647Y003682D01*
X011654Y003666D01*
X011664Y003652D01*
X011677Y003639D01*
X011691Y003629D01*
X011707Y003622D01*
X011724Y003618D01*
X011741Y003616D01*
X013441Y003616D01*
X013458Y003618D01*
X013475Y003622D01*
X013491Y003629D01*
X013505Y003639D01*
X013518Y003652D01*
X013528Y003666D01*
X013535Y003682D01*
X013539Y003699D01*
X013541Y003716D01*
X013541Y004516D01*
X013539Y004533D01*
X013535Y004550D01*
X013528Y004566D01*
X013518Y004580D01*
X013505Y004593D01*
X013491Y004603D01*
X013475Y004610D01*
X013458Y004614D01*
X013441Y004616D01*
X011741Y004616D01*
X011724Y004614D01*
X011707Y004610D01*
X011691Y004603D01*
X011677Y004593D01*
X011664Y004580D01*
X011654Y004566D01*
X011647Y004550D01*
X011643Y004533D01*
X011641Y004516D01*
X012441Y004116D02*
X012491Y004116D01*
X012691Y004116D02*
X012741Y004116D01*
X014991Y008966D02*
X015791Y008966D01*
X015808Y008968D01*
X015825Y008972D01*
X015841Y008979D01*
X015855Y008989D01*
X015868Y009002D01*
X015878Y009016D01*
X015885Y009032D01*
X015889Y009049D01*
X015891Y009066D01*
X015891Y010766D01*
X015889Y010783D01*
X015885Y010800D01*
X015878Y010816D01*
X015868Y010830D01*
X015855Y010843D01*
X015841Y010853D01*
X015825Y010860D01*
X015808Y010864D01*
X015791Y010866D01*
X014991Y010866D01*
X014974Y010864D01*
X014957Y010860D01*
X014941Y010853D01*
X014927Y010843D01*
X014914Y010830D01*
X014904Y010816D01*
X014897Y010800D01*
X014893Y010783D01*
X014891Y010766D01*
X014891Y009066D01*
X014893Y009049D01*
X014897Y009032D01*
X014904Y009016D01*
X014914Y009002D01*
X014927Y008989D01*
X014941Y008979D01*
X014957Y008972D01*
X014974Y008968D01*
X014991Y008966D01*
X015391Y009766D02*
X015391Y009816D01*
X015391Y010016D02*
X015391Y010066D01*
D13*
X015391Y010016D02*
X015091Y010016D01*
X015091Y009816D02*
X015391Y009816D01*
X015691Y009816D01*
X015691Y010016D02*
X015391Y010016D01*
X012691Y004416D02*
X012691Y004116D01*
X012691Y003816D01*
X012491Y003816D02*
X012491Y004116D01*
X012491Y004416D01*
X009494Y005111D02*
X009446Y005081D01*
X009401Y005048D01*
X009358Y005012D01*
X009317Y004974D01*
X009280Y004932D01*
X009245Y004888D01*
X009214Y004842D01*
X009185Y004793D01*
X009161Y004743D01*
X009140Y004691D01*
X009122Y004637D01*
X009109Y004583D01*
X009099Y004528D01*
X009093Y004472D01*
X009091Y004416D01*
X010267Y005122D02*
X010314Y005095D01*
X010359Y005065D01*
X010402Y005032D01*
X010442Y004996D01*
X010480Y004957D01*
X010515Y004916D01*
X010548Y004873D01*
X010577Y004828D01*
X010603Y004780D01*
X010626Y004731D01*
X010646Y004681D01*
X010662Y004630D01*
X010675Y004577D01*
X010684Y004524D01*
X010689Y004470D01*
X010691Y004416D01*
X009374Y003805D02*
X009335Y003841D01*
X009297Y003880D01*
X009263Y003920D01*
X009231Y003963D01*
X009203Y004008D01*
X009177Y004055D01*
X009154Y004104D01*
X009135Y004154D01*
X009119Y004205D01*
X009107Y004257D01*
X009098Y004309D01*
X009093Y004363D01*
X009091Y004416D01*
X010403Y003801D02*
X010443Y003837D01*
X010481Y003876D01*
X010516Y003917D01*
X010548Y003960D01*
X010578Y004005D01*
X010604Y004052D01*
X010626Y004101D01*
X010646Y004152D01*
X010662Y004203D01*
X010675Y004255D01*
X010684Y004309D01*
X010689Y004362D01*
X010691Y004416D01*
X008191Y007616D02*
X008191Y007916D01*
X008191Y008216D01*
X007991Y008216D02*
X007991Y007916D01*
X007991Y007616D01*
X006191Y007616D02*
X006191Y007916D01*
X006191Y008216D01*
X005991Y008216D02*
X005991Y007916D01*
X005991Y007616D01*
X007491Y011116D02*
X007491Y011416D01*
X007491Y011716D01*
X007691Y011716D02*
X007691Y011416D01*
X007691Y011116D01*
X006186Y019213D02*
X006156Y019261D01*
X006123Y019306D01*
X006087Y019349D01*
X006049Y019390D01*
X006007Y019427D01*
X005963Y019462D01*
X005917Y019493D01*
X005868Y019522D01*
X005818Y019546D01*
X005766Y019567D01*
X005712Y019585D01*
X005658Y019598D01*
X005603Y019608D01*
X005547Y019614D01*
X005491Y019616D01*
X006197Y018440D02*
X006170Y018393D01*
X006140Y018348D01*
X006107Y018305D01*
X006071Y018265D01*
X006032Y018227D01*
X005991Y018192D01*
X005948Y018159D01*
X005903Y018130D01*
X005855Y018104D01*
X005806Y018081D01*
X005756Y018061D01*
X005705Y018045D01*
X005652Y018032D01*
X005599Y018023D01*
X005545Y018018D01*
X005491Y018016D01*
X004880Y019333D02*
X004916Y019372D01*
X004955Y019410D01*
X004995Y019444D01*
X005038Y019476D01*
X005083Y019504D01*
X005130Y019530D01*
X005179Y019553D01*
X005229Y019572D01*
X005280Y019588D01*
X005332Y019600D01*
X005384Y019609D01*
X005438Y019614D01*
X005491Y019616D01*
X004876Y018304D02*
X004912Y018264D01*
X004951Y018226D01*
X004992Y018191D01*
X005035Y018159D01*
X005080Y018129D01*
X005127Y018103D01*
X005176Y018081D01*
X005227Y018061D01*
X005278Y018045D01*
X005330Y018032D01*
X005384Y018023D01*
X005437Y018018D01*
X005491Y018016D01*
D14*
X008211Y018271D02*
X008211Y018561D01*
X008356Y018561D01*
X008405Y018512D01*
X008405Y018416D01*
X008356Y018367D01*
X008211Y018367D01*
X008308Y018367D02*
X008405Y018271D01*
X008506Y018319D02*
X008554Y018271D01*
X008651Y018271D01*
X008699Y018319D01*
X008699Y018367D01*
X008651Y018416D01*
X008603Y018416D01*
X008651Y018416D02*
X008699Y018464D01*
X008699Y018512D01*
X008651Y018561D01*
X008554Y018561D01*
X008506Y018512D01*
X009311Y019271D02*
X009311Y019561D01*
X009456Y019561D01*
X009505Y019512D01*
X009505Y019416D01*
X009456Y019367D01*
X009311Y019367D01*
X009408Y019367D02*
X009505Y019271D01*
X009606Y019271D02*
X009799Y019271D01*
X009703Y019271D02*
X009703Y019561D01*
X009606Y019464D01*
X012213Y019161D02*
X012310Y019161D01*
X012261Y019161D02*
X012261Y018871D01*
X012213Y018871D02*
X012310Y018871D01*
X012409Y018919D02*
X012458Y018871D01*
X012555Y018871D01*
X012603Y018919D01*
X012704Y018871D02*
X012898Y018871D01*
X012801Y018871D02*
X012801Y019161D01*
X012704Y019064D01*
X012603Y019112D02*
X012555Y019161D01*
X012458Y019161D01*
X012409Y019112D01*
X012409Y018919D01*
X015311Y019271D02*
X015311Y019561D01*
X015456Y019561D01*
X015505Y019512D01*
X015505Y019416D01*
X015456Y019367D01*
X015311Y019367D01*
X015408Y019367D02*
X015505Y019271D01*
X015606Y019271D02*
X015799Y019464D01*
X015799Y019512D01*
X015751Y019561D01*
X015654Y019561D01*
X015606Y019512D01*
X015606Y019271D02*
X015799Y019271D01*
X009047Y011561D02*
X008950Y011464D01*
X008849Y011512D02*
X008801Y011561D01*
X008704Y011561D01*
X008656Y011512D01*
X008656Y011319D01*
X008704Y011271D01*
X008801Y011271D01*
X008849Y011319D01*
X008950Y011271D02*
X009144Y011271D01*
X009047Y011271D02*
X009047Y011561D01*
X009891Y007724D02*
X009891Y007531D01*
X009746Y007676D01*
X010036Y007676D01*
X010036Y007429D02*
X009939Y007333D01*
X009939Y007381D02*
X009939Y007236D01*
X010036Y007236D02*
X009746Y007236D01*
X009746Y007381D01*
X009794Y007429D01*
X009891Y007429D01*
X009939Y007381D01*
X008299Y007181D02*
X008106Y007181D01*
X008251Y007326D01*
X008251Y007036D01*
X008005Y007084D02*
X007956Y007036D01*
X007860Y007036D01*
X007811Y007084D01*
X007811Y007277D01*
X007860Y007326D01*
X007956Y007326D01*
X008005Y007277D01*
X006299Y007326D02*
X006106Y007326D01*
X006106Y007181D01*
X006203Y007229D01*
X006251Y007229D01*
X006299Y007181D01*
X006299Y007084D01*
X006251Y007036D01*
X006154Y007036D01*
X006106Y007084D01*
X006005Y007084D02*
X005956Y007036D01*
X005860Y007036D01*
X005811Y007084D01*
X005811Y007277D01*
X005860Y007326D01*
X005956Y007326D01*
X006005Y007277D01*
X005957Y005226D02*
X005860Y005226D01*
X005909Y005226D02*
X005909Y004936D01*
X005957Y004936D02*
X005860Y004936D01*
X005759Y004936D02*
X005759Y005226D01*
X005566Y005226D02*
X005566Y004936D01*
X005662Y005032D01*
X005759Y004936D01*
X006153Y004936D02*
X006153Y005226D01*
X006057Y005226D02*
X006250Y005226D01*
X006351Y005177D02*
X006351Y004984D01*
X006400Y004936D01*
X006496Y004936D01*
X006545Y004984D01*
X006646Y004936D02*
X006646Y005226D01*
X006545Y005177D02*
X006496Y005226D01*
X006400Y005226D01*
X006351Y005177D01*
X006646Y005081D02*
X006840Y005081D01*
X006840Y005226D02*
X006840Y004936D01*
X007124Y004936D02*
X007124Y005226D01*
X007269Y005226D01*
X007317Y005177D01*
X007317Y005129D01*
X007269Y005081D01*
X007124Y005081D01*
X007269Y005081D02*
X007317Y005032D01*
X007317Y004984D01*
X007269Y004936D01*
X007124Y004936D01*
X007418Y004936D02*
X007418Y005129D01*
X007515Y005226D01*
X007612Y005129D01*
X007612Y004936D01*
X007612Y005081D02*
X007418Y005081D01*
X007713Y005226D02*
X007906Y005226D01*
X007810Y005226D02*
X007810Y004936D01*
X008008Y004936D02*
X008008Y005226D01*
X008201Y005226D01*
X008302Y005226D02*
X008302Y004936D01*
X008302Y005032D02*
X008447Y005032D01*
X008496Y005081D01*
X008496Y005177D01*
X008447Y005226D01*
X008302Y005226D01*
X008399Y005032D02*
X008496Y004936D01*
X008597Y004936D02*
X008694Y004936D01*
X008645Y004936D02*
X008645Y005226D01*
X008597Y005226D02*
X008694Y005226D01*
X008793Y005129D02*
X008890Y005226D01*
X008987Y005129D01*
X008987Y004936D01*
X008987Y005081D02*
X008793Y005081D01*
X008793Y005129D02*
X008793Y004936D01*
X008201Y004936D02*
X008008Y004936D01*
X008008Y005081D02*
X008104Y005081D01*
X010706Y003861D02*
X010706Y003571D01*
X010706Y003667D02*
X010851Y003667D01*
X010899Y003716D01*
X010899Y003812D01*
X010851Y003861D01*
X010706Y003861D01*
X010803Y003667D02*
X010899Y003571D01*
X011000Y003619D02*
X011049Y003571D01*
X011146Y003571D01*
X011194Y003619D01*
X011295Y003619D02*
X011343Y003571D01*
X011440Y003571D01*
X011489Y003619D01*
X011489Y003812D01*
X011295Y003619D01*
X011295Y003812D01*
X011343Y003861D01*
X011440Y003861D01*
X011489Y003812D01*
X011194Y003812D02*
X011146Y003861D01*
X011049Y003861D01*
X011000Y003812D01*
X011000Y003619D01*
X013711Y004019D02*
X013760Y003971D01*
X013856Y003971D01*
X013905Y004019D01*
X014006Y004019D02*
X014054Y003971D01*
X014151Y003971D01*
X014199Y004019D01*
X014199Y004067D01*
X014151Y004116D01*
X014103Y004116D01*
X014151Y004116D02*
X014199Y004164D01*
X014199Y004212D01*
X014151Y004261D01*
X014054Y004261D01*
X014006Y004212D01*
X013905Y004212D02*
X013856Y004261D01*
X013760Y004261D01*
X013711Y004212D01*
X013711Y004019D01*
X016054Y009771D02*
X016151Y009771D01*
X016199Y009819D01*
X016300Y009771D02*
X016494Y009964D01*
X016494Y010012D01*
X016446Y010061D01*
X016349Y010061D01*
X016300Y010012D01*
X016199Y010012D02*
X016151Y010061D01*
X016054Y010061D01*
X016006Y010012D01*
X016006Y009819D01*
X016054Y009771D01*
X016300Y009771D02*
X016494Y009771D01*
X005464Y005177D02*
X005416Y005226D01*
X005319Y005226D01*
X005271Y005177D01*
X005271Y005129D01*
X005319Y005081D01*
X005416Y005081D01*
X005464Y005032D01*
X005464Y004984D01*
X005416Y004936D01*
X005319Y004936D01*
X005271Y004984D01*
D15*
X010591Y022166D02*
X010341Y022416D01*
X010841Y022416D01*
X010591Y022166D01*
X010572Y022184D02*
X010610Y022184D01*
X010633Y022208D02*
X010549Y022208D01*
X010525Y022231D02*
X010656Y022231D01*
X010680Y022255D02*
X010502Y022255D01*
X010478Y022278D02*
X010703Y022278D01*
X010727Y022302D02*
X010455Y022302D01*
X010431Y022325D02*
X010750Y022325D01*
X010774Y022349D02*
X010408Y022349D01*
X010384Y022372D02*
X010797Y022372D01*
X010821Y022395D02*
X010361Y022395D01*
D16*
X009879Y020709D02*
X009643Y020709D01*
X009643Y019922D01*
X009879Y019922D01*
X009879Y020709D01*
X011139Y020709D01*
X011139Y019922D01*
X009879Y019922D01*
X004366Y019141D02*
X003915Y019141D01*
X003915Y018841D02*
X004366Y019141D01*
X004366Y018841D02*
X003915Y018841D01*
X003990Y018680D02*
X003915Y018605D01*
X003915Y018455D01*
X003990Y018380D01*
X004291Y018380D01*
X004366Y018455D01*
X004366Y018605D01*
X004291Y018680D01*
X003990Y018680D01*
D17*
X005941Y010316D02*
X008241Y010316D01*
X008300Y010314D01*
X008358Y010308D01*
X008417Y010299D01*
X008474Y010285D01*
X008530Y010268D01*
X008585Y010247D01*
X008639Y010223D01*
X008691Y010195D01*
X008741Y010164D01*
X008789Y010130D01*
X008834Y010093D01*
X008877Y010052D01*
X008918Y010009D01*
X008955Y009964D01*
X008989Y009916D01*
X009020Y009866D01*
X009048Y009814D01*
X009072Y009760D01*
X009093Y009705D01*
X009110Y009649D01*
X009124Y009592D01*
X009133Y009533D01*
X009139Y009475D01*
X009141Y009416D01*
X009139Y009357D01*
X009133Y009299D01*
X009124Y009240D01*
X009110Y009183D01*
X009093Y009127D01*
X009072Y009072D01*
X009048Y009018D01*
X009020Y008966D01*
X008989Y008916D01*
X008955Y008868D01*
X008918Y008823D01*
X008877Y008780D01*
X008834Y008739D01*
X008789Y008702D01*
X008741Y008668D01*
X008691Y008637D01*
X008639Y008609D01*
X008585Y008585D01*
X008530Y008564D01*
X008474Y008547D01*
X008417Y008533D01*
X008358Y008524D01*
X008300Y008518D01*
X008241Y008516D01*
X005941Y008516D01*
X005882Y008518D01*
X005824Y008524D01*
X005765Y008533D01*
X005708Y008547D01*
X005652Y008564D01*
X005597Y008585D01*
X005543Y008609D01*
X005491Y008637D01*
X005441Y008668D01*
X005393Y008702D01*
X005348Y008739D01*
X005305Y008780D01*
X005264Y008823D01*
X005227Y008868D01*
X005193Y008916D01*
X005162Y008966D01*
X005134Y009018D01*
X005110Y009072D01*
X005089Y009127D01*
X005072Y009183D01*
X005058Y009240D01*
X005049Y009299D01*
X005043Y009357D01*
X005041Y009416D01*
X005043Y009475D01*
X005049Y009533D01*
X005058Y009592D01*
X005072Y009649D01*
X005089Y009705D01*
X005110Y009760D01*
X005134Y009814D01*
X005162Y009866D01*
X005193Y009916D01*
X005227Y009964D01*
X005264Y010009D01*
X005305Y010052D01*
X005348Y010093D01*
X005393Y010130D01*
X005441Y010164D01*
X005491Y010195D01*
X005543Y010223D01*
X005597Y010247D01*
X005652Y010268D01*
X005708Y010285D01*
X005765Y010299D01*
X005824Y010308D01*
X005882Y010314D01*
X005941Y010316D01*
M02*
