G75*
G70*
%OFA0B0*%
%FSLAX24Y24*%
%IPPOS*%
%LPD*%
%AMOC8*
5,1,8,0,0,1.08239X$1,22.5*
%
%ADD10C,0.0000*%
%ADD11C,0.0050*%
%ADD12C,0.0040*%
%ADD13C,0.0080*%
%ADD14C,0.0060*%
%ADD15C,0.0030*%
D10*
X004166Y003416D02*
X020701Y003416D01*
X020071Y004990D02*
X020073Y005040D01*
X020079Y005090D01*
X020089Y005139D01*
X020103Y005187D01*
X020120Y005234D01*
X020141Y005279D01*
X020166Y005323D01*
X020194Y005364D01*
X020226Y005403D01*
X020260Y005440D01*
X020297Y005474D01*
X020337Y005504D01*
X020379Y005531D01*
X020423Y005555D01*
X020469Y005576D01*
X020516Y005592D01*
X020564Y005605D01*
X020614Y005614D01*
X020663Y005619D01*
X020714Y005620D01*
X020764Y005617D01*
X020813Y005610D01*
X020862Y005599D01*
X020910Y005584D01*
X020956Y005566D01*
X021001Y005544D01*
X021044Y005518D01*
X021085Y005489D01*
X021124Y005457D01*
X021160Y005422D01*
X021192Y005384D01*
X021222Y005344D01*
X021249Y005301D01*
X021272Y005257D01*
X021291Y005211D01*
X021307Y005163D01*
X021319Y005114D01*
X021327Y005065D01*
X021331Y005015D01*
X021331Y004965D01*
X021327Y004915D01*
X021319Y004866D01*
X021307Y004817D01*
X021291Y004769D01*
X021272Y004723D01*
X021249Y004679D01*
X021222Y004636D01*
X021192Y004596D01*
X021160Y004558D01*
X021124Y004523D01*
X021085Y004491D01*
X021044Y004462D01*
X021001Y004436D01*
X020956Y004414D01*
X020910Y004396D01*
X020862Y004381D01*
X020813Y004370D01*
X020764Y004363D01*
X020714Y004360D01*
X020663Y004361D01*
X020614Y004366D01*
X020564Y004375D01*
X020516Y004388D01*
X020469Y004404D01*
X020423Y004425D01*
X020379Y004449D01*
X020337Y004476D01*
X020297Y004506D01*
X020260Y004540D01*
X020226Y004577D01*
X020194Y004616D01*
X020166Y004657D01*
X020141Y004701D01*
X020120Y004746D01*
X020103Y004793D01*
X020089Y004841D01*
X020079Y004890D01*
X020073Y004940D01*
X020071Y004990D01*
X020701Y003415D02*
X020778Y003417D01*
X020855Y003423D01*
X020932Y003432D01*
X021008Y003445D01*
X021084Y003462D01*
X021158Y003483D01*
X021232Y003507D01*
X021304Y003535D01*
X021374Y003566D01*
X021443Y003601D01*
X021511Y003639D01*
X021576Y003680D01*
X021639Y003725D01*
X021700Y003773D01*
X021759Y003823D01*
X021815Y003876D01*
X021868Y003932D01*
X021918Y003991D01*
X021966Y004052D01*
X022011Y004115D01*
X022052Y004180D01*
X022090Y004248D01*
X022125Y004317D01*
X022156Y004387D01*
X022184Y004459D01*
X022208Y004533D01*
X022229Y004607D01*
X022246Y004683D01*
X022259Y004759D01*
X022268Y004836D01*
X022274Y004913D01*
X022276Y004990D01*
X022276Y021526D01*
X020071Y021526D02*
X020073Y021576D01*
X020079Y021626D01*
X020089Y021675D01*
X020103Y021723D01*
X020120Y021770D01*
X020141Y021815D01*
X020166Y021859D01*
X020194Y021900D01*
X020226Y021939D01*
X020260Y021976D01*
X020297Y022010D01*
X020337Y022040D01*
X020379Y022067D01*
X020423Y022091D01*
X020469Y022112D01*
X020516Y022128D01*
X020564Y022141D01*
X020614Y022150D01*
X020663Y022155D01*
X020714Y022156D01*
X020764Y022153D01*
X020813Y022146D01*
X020862Y022135D01*
X020910Y022120D01*
X020956Y022102D01*
X021001Y022080D01*
X021044Y022054D01*
X021085Y022025D01*
X021124Y021993D01*
X021160Y021958D01*
X021192Y021920D01*
X021222Y021880D01*
X021249Y021837D01*
X021272Y021793D01*
X021291Y021747D01*
X021307Y021699D01*
X021319Y021650D01*
X021327Y021601D01*
X021331Y021551D01*
X021331Y021501D01*
X021327Y021451D01*
X021319Y021402D01*
X021307Y021353D01*
X021291Y021305D01*
X021272Y021259D01*
X021249Y021215D01*
X021222Y021172D01*
X021192Y021132D01*
X021160Y021094D01*
X021124Y021059D01*
X021085Y021027D01*
X021044Y020998D01*
X021001Y020972D01*
X020956Y020950D01*
X020910Y020932D01*
X020862Y020917D01*
X020813Y020906D01*
X020764Y020899D01*
X020714Y020896D01*
X020663Y020897D01*
X020614Y020902D01*
X020564Y020911D01*
X020516Y020924D01*
X020469Y020940D01*
X020423Y020961D01*
X020379Y020985D01*
X020337Y021012D01*
X020297Y021042D01*
X020260Y021076D01*
X020226Y021113D01*
X020194Y021152D01*
X020166Y021193D01*
X020141Y021237D01*
X020120Y021282D01*
X020103Y021329D01*
X020089Y021377D01*
X020079Y021426D01*
X020073Y021476D01*
X020071Y021526D01*
X020701Y023101D02*
X020778Y023099D01*
X020855Y023093D01*
X020932Y023084D01*
X021008Y023071D01*
X021084Y023054D01*
X021158Y023033D01*
X021232Y023009D01*
X021304Y022981D01*
X021374Y022950D01*
X021443Y022915D01*
X021511Y022877D01*
X021576Y022836D01*
X021639Y022791D01*
X021700Y022743D01*
X021759Y022693D01*
X021815Y022640D01*
X021868Y022584D01*
X021918Y022525D01*
X021966Y022464D01*
X022011Y022401D01*
X022052Y022336D01*
X022090Y022268D01*
X022125Y022199D01*
X022156Y022129D01*
X022184Y022057D01*
X022208Y021983D01*
X022229Y021909D01*
X022246Y021833D01*
X022259Y021757D01*
X022268Y021680D01*
X022274Y021603D01*
X022276Y021526D01*
X020701Y023101D02*
X004166Y023101D01*
X003536Y021526D02*
X003538Y021576D01*
X003544Y021626D01*
X003554Y021675D01*
X003568Y021723D01*
X003585Y021770D01*
X003606Y021815D01*
X003631Y021859D01*
X003659Y021900D01*
X003691Y021939D01*
X003725Y021976D01*
X003762Y022010D01*
X003802Y022040D01*
X003844Y022067D01*
X003888Y022091D01*
X003934Y022112D01*
X003981Y022128D01*
X004029Y022141D01*
X004079Y022150D01*
X004128Y022155D01*
X004179Y022156D01*
X004229Y022153D01*
X004278Y022146D01*
X004327Y022135D01*
X004375Y022120D01*
X004421Y022102D01*
X004466Y022080D01*
X004509Y022054D01*
X004550Y022025D01*
X004589Y021993D01*
X004625Y021958D01*
X004657Y021920D01*
X004687Y021880D01*
X004714Y021837D01*
X004737Y021793D01*
X004756Y021747D01*
X004772Y021699D01*
X004784Y021650D01*
X004792Y021601D01*
X004796Y021551D01*
X004796Y021501D01*
X004792Y021451D01*
X004784Y021402D01*
X004772Y021353D01*
X004756Y021305D01*
X004737Y021259D01*
X004714Y021215D01*
X004687Y021172D01*
X004657Y021132D01*
X004625Y021094D01*
X004589Y021059D01*
X004550Y021027D01*
X004509Y020998D01*
X004466Y020972D01*
X004421Y020950D01*
X004375Y020932D01*
X004327Y020917D01*
X004278Y020906D01*
X004229Y020899D01*
X004179Y020896D01*
X004128Y020897D01*
X004079Y020902D01*
X004029Y020911D01*
X003981Y020924D01*
X003934Y020940D01*
X003888Y020961D01*
X003844Y020985D01*
X003802Y021012D01*
X003762Y021042D01*
X003725Y021076D01*
X003691Y021113D01*
X003659Y021152D01*
X003631Y021193D01*
X003606Y021237D01*
X003585Y021282D01*
X003568Y021329D01*
X003554Y021377D01*
X003544Y021426D01*
X003538Y021476D01*
X003536Y021526D01*
X002591Y021526D02*
X002593Y021603D01*
X002599Y021680D01*
X002608Y021757D01*
X002621Y021833D01*
X002638Y021909D01*
X002659Y021983D01*
X002683Y022057D01*
X002711Y022129D01*
X002742Y022199D01*
X002777Y022268D01*
X002815Y022336D01*
X002856Y022401D01*
X002901Y022464D01*
X002949Y022525D01*
X002999Y022584D01*
X003052Y022640D01*
X003108Y022693D01*
X003167Y022743D01*
X003228Y022791D01*
X003291Y022836D01*
X003356Y022877D01*
X003424Y022915D01*
X003493Y022950D01*
X003563Y022981D01*
X003635Y023009D01*
X003709Y023033D01*
X003783Y023054D01*
X003859Y023071D01*
X003935Y023084D01*
X004012Y023093D01*
X004089Y023099D01*
X004166Y023101D01*
X002591Y021526D02*
X002591Y004990D01*
X003536Y004990D02*
X003538Y005040D01*
X003544Y005090D01*
X003554Y005139D01*
X003568Y005187D01*
X003585Y005234D01*
X003606Y005279D01*
X003631Y005323D01*
X003659Y005364D01*
X003691Y005403D01*
X003725Y005440D01*
X003762Y005474D01*
X003802Y005504D01*
X003844Y005531D01*
X003888Y005555D01*
X003934Y005576D01*
X003981Y005592D01*
X004029Y005605D01*
X004079Y005614D01*
X004128Y005619D01*
X004179Y005620D01*
X004229Y005617D01*
X004278Y005610D01*
X004327Y005599D01*
X004375Y005584D01*
X004421Y005566D01*
X004466Y005544D01*
X004509Y005518D01*
X004550Y005489D01*
X004589Y005457D01*
X004625Y005422D01*
X004657Y005384D01*
X004687Y005344D01*
X004714Y005301D01*
X004737Y005257D01*
X004756Y005211D01*
X004772Y005163D01*
X004784Y005114D01*
X004792Y005065D01*
X004796Y005015D01*
X004796Y004965D01*
X004792Y004915D01*
X004784Y004866D01*
X004772Y004817D01*
X004756Y004769D01*
X004737Y004723D01*
X004714Y004679D01*
X004687Y004636D01*
X004657Y004596D01*
X004625Y004558D01*
X004589Y004523D01*
X004550Y004491D01*
X004509Y004462D01*
X004466Y004436D01*
X004421Y004414D01*
X004375Y004396D01*
X004327Y004381D01*
X004278Y004370D01*
X004229Y004363D01*
X004179Y004360D01*
X004128Y004361D01*
X004079Y004366D01*
X004029Y004375D01*
X003981Y004388D01*
X003934Y004404D01*
X003888Y004425D01*
X003844Y004449D01*
X003802Y004476D01*
X003762Y004506D01*
X003725Y004540D01*
X003691Y004577D01*
X003659Y004616D01*
X003631Y004657D01*
X003606Y004701D01*
X003585Y004746D01*
X003568Y004793D01*
X003554Y004841D01*
X003544Y004890D01*
X003538Y004940D01*
X003536Y004990D01*
X002591Y004990D02*
X002593Y004913D01*
X002599Y004836D01*
X002608Y004759D01*
X002621Y004683D01*
X002638Y004607D01*
X002659Y004533D01*
X002683Y004459D01*
X002711Y004387D01*
X002742Y004317D01*
X002777Y004248D01*
X002815Y004180D01*
X002856Y004115D01*
X002901Y004052D01*
X002949Y003991D01*
X002999Y003932D01*
X003052Y003876D01*
X003108Y003823D01*
X003167Y003773D01*
X003228Y003725D01*
X003291Y003680D01*
X003356Y003639D01*
X003424Y003601D01*
X003493Y003566D01*
X003563Y003535D01*
X003635Y003507D01*
X003709Y003483D01*
X003783Y003462D01*
X003859Y003445D01*
X003935Y003432D01*
X004012Y003423D01*
X004089Y003417D01*
X004166Y003415D01*
X005394Y004416D02*
X005396Y004443D01*
X005402Y004470D01*
X005411Y004496D01*
X005424Y004520D01*
X005440Y004543D01*
X005459Y004562D01*
X005481Y004579D01*
X005505Y004593D01*
X005530Y004603D01*
X005557Y004610D01*
X005584Y004613D01*
X005612Y004612D01*
X005639Y004607D01*
X005665Y004599D01*
X005689Y004587D01*
X005712Y004571D01*
X005733Y004553D01*
X005750Y004532D01*
X005765Y004508D01*
X005776Y004483D01*
X005784Y004457D01*
X005788Y004430D01*
X005788Y004402D01*
X005784Y004375D01*
X005776Y004349D01*
X005765Y004324D01*
X005750Y004300D01*
X005733Y004279D01*
X005712Y004261D01*
X005690Y004245D01*
X005665Y004233D01*
X005639Y004225D01*
X005612Y004220D01*
X005584Y004219D01*
X005557Y004222D01*
X005530Y004229D01*
X005505Y004239D01*
X005481Y004253D01*
X005459Y004270D01*
X005440Y004289D01*
X005424Y004312D01*
X005411Y004336D01*
X005402Y004362D01*
X005396Y004389D01*
X005394Y004416D01*
X006394Y004416D02*
X006396Y004443D01*
X006402Y004470D01*
X006411Y004496D01*
X006424Y004520D01*
X006440Y004543D01*
X006459Y004562D01*
X006481Y004579D01*
X006505Y004593D01*
X006530Y004603D01*
X006557Y004610D01*
X006584Y004613D01*
X006612Y004612D01*
X006639Y004607D01*
X006665Y004599D01*
X006689Y004587D01*
X006712Y004571D01*
X006733Y004553D01*
X006750Y004532D01*
X006765Y004508D01*
X006776Y004483D01*
X006784Y004457D01*
X006788Y004430D01*
X006788Y004402D01*
X006784Y004375D01*
X006776Y004349D01*
X006765Y004324D01*
X006750Y004300D01*
X006733Y004279D01*
X006712Y004261D01*
X006690Y004245D01*
X006665Y004233D01*
X006639Y004225D01*
X006612Y004220D01*
X006584Y004219D01*
X006557Y004222D01*
X006530Y004229D01*
X006505Y004239D01*
X006481Y004253D01*
X006459Y004270D01*
X006440Y004289D01*
X006424Y004312D01*
X006411Y004336D01*
X006402Y004362D01*
X006396Y004389D01*
X006394Y004416D01*
X007394Y004416D02*
X007396Y004443D01*
X007402Y004470D01*
X007411Y004496D01*
X007424Y004520D01*
X007440Y004543D01*
X007459Y004562D01*
X007481Y004579D01*
X007505Y004593D01*
X007530Y004603D01*
X007557Y004610D01*
X007584Y004613D01*
X007612Y004612D01*
X007639Y004607D01*
X007665Y004599D01*
X007689Y004587D01*
X007712Y004571D01*
X007733Y004553D01*
X007750Y004532D01*
X007765Y004508D01*
X007776Y004483D01*
X007784Y004457D01*
X007788Y004430D01*
X007788Y004402D01*
X007784Y004375D01*
X007776Y004349D01*
X007765Y004324D01*
X007750Y004300D01*
X007733Y004279D01*
X007712Y004261D01*
X007690Y004245D01*
X007665Y004233D01*
X007639Y004225D01*
X007612Y004220D01*
X007584Y004219D01*
X007557Y004222D01*
X007530Y004229D01*
X007505Y004239D01*
X007481Y004253D01*
X007459Y004270D01*
X007440Y004289D01*
X007424Y004312D01*
X007411Y004336D01*
X007402Y004362D01*
X007396Y004389D01*
X007394Y004416D01*
X008394Y004416D02*
X008396Y004443D01*
X008402Y004470D01*
X008411Y004496D01*
X008424Y004520D01*
X008440Y004543D01*
X008459Y004562D01*
X008481Y004579D01*
X008505Y004593D01*
X008530Y004603D01*
X008557Y004610D01*
X008584Y004613D01*
X008612Y004612D01*
X008639Y004607D01*
X008665Y004599D01*
X008689Y004587D01*
X008712Y004571D01*
X008733Y004553D01*
X008750Y004532D01*
X008765Y004508D01*
X008776Y004483D01*
X008784Y004457D01*
X008788Y004430D01*
X008788Y004402D01*
X008784Y004375D01*
X008776Y004349D01*
X008765Y004324D01*
X008750Y004300D01*
X008733Y004279D01*
X008712Y004261D01*
X008690Y004245D01*
X008665Y004233D01*
X008639Y004225D01*
X008612Y004220D01*
X008584Y004219D01*
X008557Y004222D01*
X008530Y004229D01*
X008505Y004239D01*
X008481Y004253D01*
X008459Y004270D01*
X008440Y004289D01*
X008424Y004312D01*
X008411Y004336D01*
X008402Y004362D01*
X008396Y004389D01*
X008394Y004416D01*
X020214Y007749D02*
X020216Y007775D01*
X020222Y007801D01*
X020232Y007826D01*
X020245Y007849D01*
X020261Y007869D01*
X020281Y007887D01*
X020303Y007902D01*
X020326Y007914D01*
X020352Y007922D01*
X020378Y007926D01*
X020404Y007926D01*
X020430Y007922D01*
X020456Y007914D01*
X020480Y007902D01*
X020501Y007887D01*
X020521Y007869D01*
X020537Y007849D01*
X020550Y007826D01*
X020560Y007801D01*
X020566Y007775D01*
X020568Y007749D01*
X020566Y007723D01*
X020560Y007697D01*
X020550Y007672D01*
X020537Y007649D01*
X020521Y007629D01*
X020501Y007611D01*
X020479Y007596D01*
X020456Y007584D01*
X020430Y007576D01*
X020404Y007572D01*
X020378Y007572D01*
X020352Y007576D01*
X020326Y007584D01*
X020302Y007596D01*
X020281Y007611D01*
X020261Y007629D01*
X020245Y007649D01*
X020232Y007672D01*
X020222Y007697D01*
X020216Y007723D01*
X020214Y007749D01*
X020214Y009482D02*
X020216Y009508D01*
X020222Y009534D01*
X020232Y009559D01*
X020245Y009582D01*
X020261Y009602D01*
X020281Y009620D01*
X020303Y009635D01*
X020326Y009647D01*
X020352Y009655D01*
X020378Y009659D01*
X020404Y009659D01*
X020430Y009655D01*
X020456Y009647D01*
X020480Y009635D01*
X020501Y009620D01*
X020521Y009602D01*
X020537Y009582D01*
X020550Y009559D01*
X020560Y009534D01*
X020566Y009508D01*
X020568Y009482D01*
X020566Y009456D01*
X020560Y009430D01*
X020550Y009405D01*
X020537Y009382D01*
X020521Y009362D01*
X020501Y009344D01*
X020479Y009329D01*
X020456Y009317D01*
X020430Y009309D01*
X020404Y009305D01*
X020378Y009305D01*
X020352Y009309D01*
X020326Y009317D01*
X020302Y009329D01*
X020281Y009344D01*
X020261Y009362D01*
X020245Y009382D01*
X020232Y009405D01*
X020222Y009430D01*
X020216Y009456D01*
X020214Y009482D01*
D11*
X020017Y010131D02*
X020962Y010131D01*
X022182Y010131D02*
X022458Y010131D01*
X022458Y007100D02*
X022182Y007100D01*
X020962Y007100D02*
X020017Y007100D01*
X019092Y007375D02*
X019092Y007769D01*
X019092Y009462D02*
X019092Y009856D01*
D12*
X018796Y009510D02*
X018336Y009510D01*
X018336Y009663D02*
X018336Y009356D01*
X018643Y009356D02*
X018796Y009510D01*
D13*
X020669Y009482D02*
X021220Y009482D01*
X021220Y007749D01*
X020669Y007749D01*
X020669Y007277D01*
X021299Y007277D01*
X022362Y007277D02*
X022362Y009954D01*
X021299Y009954D02*
X020669Y009954D01*
X020669Y009482D01*
D14*
X018241Y009716D02*
X018241Y009116D01*
X018239Y009099D01*
X018235Y009082D01*
X018228Y009066D01*
X018218Y009052D01*
X018205Y009039D01*
X018191Y009029D01*
X018175Y009022D01*
X018158Y009018D01*
X018141Y009016D01*
X017041Y009016D01*
X017024Y009018D01*
X017007Y009022D01*
X016991Y009029D01*
X016977Y009039D01*
X016964Y009052D01*
X016954Y009066D01*
X016947Y009082D01*
X016943Y009099D01*
X016941Y009116D01*
X016941Y009716D01*
X016943Y009733D01*
X016947Y009750D01*
X016954Y009766D01*
X016964Y009780D01*
X016977Y009793D01*
X016991Y009803D01*
X017007Y009810D01*
X017024Y009814D01*
X017041Y009816D01*
X018141Y009816D01*
X018158Y009814D01*
X018175Y009810D01*
X018191Y009803D01*
X018205Y009793D01*
X018218Y009780D01*
X018228Y009766D01*
X018235Y009750D01*
X018239Y009733D01*
X018241Y009716D01*
D15*
X017969Y008801D02*
X017873Y008801D01*
X017824Y008752D01*
X017873Y008656D02*
X017824Y008607D01*
X017824Y008559D01*
X017873Y008511D01*
X017969Y008511D01*
X018018Y008559D01*
X017969Y008656D02*
X017873Y008656D01*
X017969Y008656D02*
X018018Y008704D01*
X018018Y008752D01*
X017969Y008801D01*
X017723Y008559D02*
X017675Y008511D01*
X017626Y008511D01*
X017578Y008559D01*
X017578Y008801D01*
X017626Y008801D02*
X017530Y008801D01*
X017428Y008704D02*
X017332Y008801D01*
X017332Y008511D01*
X017428Y008511D02*
X017235Y008511D01*
M02*
