G75*
G70*
%OFA0B0*%
%FSLAX24Y24*%
%IPPOS*%
%LPD*%
%AMOC8*
5,1,8,0,0,1.08239X$1,22.5*
%
%ADD10C,0.0070*%
%ADD11C,0.0060*%
%ADD12C,0.0000*%
%ADD13R,0.0984X0.0787*%
%ADD14R,0.1299X0.0197*%
%ADD15C,0.0740*%
%ADD16R,0.0740X0.0740*%
%ADD17C,0.0630*%
%ADD18R,0.0600X0.0600*%
%ADD19C,0.0600*%
%ADD20C,0.0515*%
%ADD21C,0.0515*%
%ADD22R,0.0460X0.0630*%
%ADD23C,0.0160*%
%ADD24C,0.0140*%
%ADD25C,0.0120*%
%ADD26C,0.0200*%
%ADD27C,0.0320*%
%ADD28C,0.0100*%
%ADD29R,0.0356X0.0356*%
%ADD30R,0.0317X0.0317*%
%ADD31C,0.0240*%
D10*
X003001Y007094D02*
X003381Y007094D01*
X003254Y007157D02*
X003254Y007284D01*
X003191Y007347D01*
X003001Y007347D01*
X003064Y007571D02*
X003001Y007635D01*
X003064Y007571D02*
X003318Y007571D01*
X003254Y007508D02*
X003254Y007635D01*
X003254Y007784D02*
X003254Y007911D01*
X003318Y007848D02*
X003064Y007848D01*
X003001Y007911D01*
X003001Y008060D02*
X003001Y008251D01*
X003064Y008314D01*
X003191Y008314D01*
X003254Y008251D01*
X003254Y008060D01*
X002874Y008060D01*
X003001Y008475D02*
X003064Y008475D01*
X003064Y008538D01*
X003001Y008538D01*
X003001Y008475D01*
X003191Y008475D02*
X003254Y008475D01*
X003254Y008538D01*
X003191Y008538D01*
X003191Y008475D01*
X003001Y008682D02*
X003381Y008936D01*
X003001Y009096D02*
X003381Y009350D01*
X003191Y009511D02*
X003064Y009511D01*
X003001Y009574D01*
X003001Y009764D01*
X003001Y009925D02*
X003001Y010052D01*
X003001Y009988D02*
X003381Y009988D01*
X003381Y009925D01*
X003254Y009764D02*
X003254Y009574D01*
X003191Y009511D01*
X003254Y010201D02*
X003064Y010201D01*
X003001Y010265D01*
X003001Y010455D01*
X003254Y010455D01*
X003254Y010616D02*
X003254Y010806D01*
X003191Y010869D01*
X003064Y010869D01*
X003001Y010806D01*
X003001Y010616D01*
X003381Y010616D01*
X003191Y011030D02*
X003254Y011093D01*
X003254Y011284D01*
X003381Y011284D02*
X003001Y011284D01*
X003001Y011093D01*
X003064Y011030D01*
X003191Y011030D01*
X003191Y011444D02*
X003254Y011508D01*
X003254Y011634D01*
X003191Y011698D01*
X003128Y011698D01*
X003128Y011444D01*
X003191Y011444D02*
X003064Y011444D01*
X003001Y011508D01*
X003001Y011634D01*
X003001Y011859D02*
X003254Y011859D01*
X003128Y011859D02*
X003254Y011985D01*
X003254Y012049D01*
X003191Y012204D02*
X003064Y012204D01*
X003001Y012267D01*
X003001Y012394D01*
X003064Y012458D01*
X003191Y012458D01*
X003254Y012394D01*
X003254Y012267D01*
X003191Y012204D01*
X003254Y012618D02*
X003254Y012808D01*
X003191Y012872D01*
X003064Y012872D01*
X003001Y012808D01*
X003001Y012618D01*
X003381Y012618D01*
X003191Y013033D02*
X003064Y013033D01*
X003001Y013096D01*
X003001Y013223D01*
X003064Y013286D01*
X003191Y013286D01*
X003254Y013223D01*
X003254Y013096D01*
X003191Y013033D01*
X003254Y013447D02*
X003254Y013574D01*
X003318Y013510D02*
X003064Y013510D01*
X003001Y013574D01*
X003001Y013723D02*
X003001Y013850D01*
X003001Y013787D02*
X003254Y013787D01*
X003254Y013723D01*
X003381Y013787D02*
X003445Y013787D01*
X003191Y013999D02*
X003064Y013999D01*
X003001Y014063D01*
X003001Y014253D01*
X003064Y014414D02*
X003128Y014477D01*
X003128Y014667D01*
X003191Y014667D02*
X003001Y014667D01*
X003001Y014477D01*
X003064Y014414D01*
X003254Y014477D02*
X003254Y014604D01*
X003191Y014667D01*
X003064Y014828D02*
X003064Y014892D01*
X003001Y014892D01*
X003001Y014828D01*
X003064Y014828D01*
X003064Y015035D02*
X003001Y015099D01*
X003001Y015289D01*
X003064Y015450D02*
X003001Y015513D01*
X003001Y015640D01*
X003064Y015703D01*
X003191Y015703D01*
X003254Y015640D01*
X003254Y015513D01*
X003191Y015450D01*
X003064Y015450D01*
X003254Y015289D02*
X003254Y015099D01*
X003191Y015035D01*
X003064Y015035D01*
X003254Y014253D02*
X003254Y014063D01*
X003191Y013999D01*
X003254Y015864D02*
X003001Y015864D01*
X003001Y015991D02*
X003191Y015991D01*
X003254Y016054D01*
X003191Y016118D01*
X003001Y016118D01*
X003001Y016278D02*
X003001Y016342D01*
X003064Y016342D01*
X003064Y016278D01*
X003001Y016278D01*
X003001Y016486D02*
X003001Y016676D01*
X003064Y016739D01*
X003191Y016739D01*
X003254Y016676D01*
X003254Y016486D01*
X002874Y016486D01*
X003064Y016900D02*
X003001Y016963D01*
X003001Y017154D01*
X002937Y017154D02*
X002874Y017090D01*
X002874Y017027D01*
X002937Y017154D02*
X003254Y017154D01*
X003254Y016900D02*
X003064Y016900D01*
X003001Y017314D02*
X003381Y017568D01*
X003191Y017729D02*
X003064Y017729D01*
X003001Y017792D01*
X003001Y017982D01*
X003064Y018143D02*
X003191Y018143D01*
X003254Y018206D01*
X003254Y018397D01*
X003381Y018397D02*
X003001Y018397D01*
X003001Y018206D01*
X003064Y018143D01*
X003254Y017982D02*
X003254Y017792D01*
X003191Y017729D01*
X003254Y018557D02*
X003001Y018557D01*
X003128Y018557D02*
X003254Y018684D01*
X003254Y018748D01*
X003254Y018903D02*
X003254Y019093D01*
X003191Y019156D01*
X003064Y019156D01*
X003001Y019093D01*
X003001Y018903D01*
X003381Y018903D01*
X003191Y019317D02*
X003064Y019317D01*
X003001Y019380D01*
X003001Y019507D01*
X003064Y019571D01*
X003191Y019571D01*
X003254Y019507D01*
X003254Y019380D01*
X003191Y019317D01*
X003254Y019731D02*
X003254Y019858D01*
X003318Y019795D02*
X003064Y019795D01*
X003001Y019858D01*
X003191Y015991D02*
X003254Y015927D01*
X003254Y015864D01*
X003254Y007157D02*
X003191Y007094D01*
D11*
X021161Y016667D02*
X021334Y016840D01*
X021378Y016840D01*
X021421Y016797D01*
X021421Y016710D01*
X021378Y016667D01*
X021161Y016667D02*
X021161Y016840D01*
X021204Y016962D02*
X021161Y017005D01*
X021161Y017092D01*
X021204Y017135D01*
X021378Y017135D01*
X021204Y016962D01*
X021378Y016962D01*
X021421Y017005D01*
X021421Y017092D01*
X021378Y017135D01*
X021334Y017256D02*
X021421Y017343D01*
X021161Y017343D01*
X021161Y017256D02*
X021161Y017430D01*
X021204Y017551D02*
X021161Y017594D01*
X021161Y017681D01*
X021204Y017724D01*
X021248Y017724D01*
X021291Y017681D01*
X021291Y017638D01*
X021291Y017681D02*
X021334Y017724D01*
X021378Y017724D01*
X021421Y017681D01*
X021421Y017594D01*
X021378Y017551D01*
X021661Y017570D02*
X021704Y017526D01*
X021791Y017526D01*
X021834Y017570D01*
X021834Y017657D01*
X021791Y017700D01*
X021704Y017700D01*
X021661Y017657D01*
X021661Y017570D01*
X021704Y017405D02*
X021661Y017362D01*
X021661Y017232D01*
X021921Y017232D01*
X021921Y017362D01*
X021878Y017405D01*
X021834Y017405D01*
X021791Y017362D01*
X021791Y017232D01*
X021791Y017111D02*
X021748Y017067D01*
X021748Y016937D01*
X021748Y017024D02*
X021661Y017111D01*
X021791Y017111D02*
X021878Y017111D01*
X021921Y017067D01*
X021921Y016937D01*
X021661Y016937D01*
X021661Y016816D02*
X021661Y016686D01*
X021704Y016642D01*
X021791Y016642D01*
X021834Y016686D01*
X021834Y016816D01*
X021921Y016816D02*
X021661Y016816D01*
X021704Y016521D02*
X021661Y016478D01*
X021661Y016391D01*
X021704Y016348D01*
X021878Y016348D01*
X021921Y016391D01*
X021921Y016478D01*
X021878Y016521D01*
X021791Y017362D02*
X021748Y017405D01*
X021704Y017405D01*
X021834Y017821D02*
X021834Y017908D01*
X021878Y017864D02*
X021704Y017864D01*
X021661Y017908D01*
X021421Y017889D02*
X021421Y017976D01*
X021378Y018019D01*
X021204Y017846D01*
X021161Y017889D01*
X021161Y017976D01*
X021204Y018019D01*
X021378Y018019D01*
X021421Y018140D02*
X021291Y018140D01*
X021334Y018227D01*
X021334Y018270D01*
X021291Y018314D01*
X021204Y018314D01*
X021161Y018270D01*
X021161Y018184D01*
X021204Y018140D01*
X021421Y018140D02*
X021421Y018314D01*
X021378Y018435D02*
X021421Y018478D01*
X021421Y018565D01*
X021378Y018608D01*
X021204Y018435D01*
X021161Y018478D01*
X021161Y018565D01*
X021204Y018608D01*
X021378Y018608D01*
X021421Y018730D02*
X021421Y018903D01*
X021378Y018903D01*
X021204Y018730D01*
X021161Y018730D01*
X021204Y018435D02*
X021378Y018435D01*
X021661Y018399D02*
X021834Y018486D01*
X021834Y018607D02*
X021921Y018694D01*
X021661Y018694D01*
X021661Y018780D02*
X021661Y018607D01*
X021661Y018399D02*
X021834Y018312D01*
X021421Y017889D02*
X021378Y017846D01*
X021204Y017846D01*
X021661Y018901D02*
X021661Y018945D01*
X021704Y018945D01*
X021704Y018901D01*
X021661Y018901D01*
X021704Y019049D02*
X021661Y019092D01*
X021661Y019179D01*
X021704Y019222D01*
X021878Y019222D01*
X021704Y019049D01*
X021878Y019049D01*
X021921Y019092D01*
X021921Y019179D01*
X021878Y019222D01*
D12*
X022276Y021526D02*
X022276Y004990D01*
X020071Y004990D02*
X020073Y005040D01*
X020079Y005090D01*
X020089Y005139D01*
X020103Y005187D01*
X020120Y005234D01*
X020141Y005279D01*
X020166Y005323D01*
X020194Y005364D01*
X020226Y005403D01*
X020260Y005440D01*
X020297Y005474D01*
X020337Y005504D01*
X020379Y005531D01*
X020423Y005555D01*
X020469Y005576D01*
X020516Y005592D01*
X020564Y005605D01*
X020614Y005614D01*
X020663Y005619D01*
X020714Y005620D01*
X020764Y005617D01*
X020813Y005610D01*
X020862Y005599D01*
X020910Y005584D01*
X020956Y005566D01*
X021001Y005544D01*
X021044Y005518D01*
X021085Y005489D01*
X021124Y005457D01*
X021160Y005422D01*
X021192Y005384D01*
X021222Y005344D01*
X021249Y005301D01*
X021272Y005257D01*
X021291Y005211D01*
X021307Y005163D01*
X021319Y005114D01*
X021327Y005065D01*
X021331Y005015D01*
X021331Y004965D01*
X021327Y004915D01*
X021319Y004866D01*
X021307Y004817D01*
X021291Y004769D01*
X021272Y004723D01*
X021249Y004679D01*
X021222Y004636D01*
X021192Y004596D01*
X021160Y004558D01*
X021124Y004523D01*
X021085Y004491D01*
X021044Y004462D01*
X021001Y004436D01*
X020956Y004414D01*
X020910Y004396D01*
X020862Y004381D01*
X020813Y004370D01*
X020764Y004363D01*
X020714Y004360D01*
X020663Y004361D01*
X020614Y004366D01*
X020564Y004375D01*
X020516Y004388D01*
X020469Y004404D01*
X020423Y004425D01*
X020379Y004449D01*
X020337Y004476D01*
X020297Y004506D01*
X020260Y004540D01*
X020226Y004577D01*
X020194Y004616D01*
X020166Y004657D01*
X020141Y004701D01*
X020120Y004746D01*
X020103Y004793D01*
X020089Y004841D01*
X020079Y004890D01*
X020073Y004940D01*
X020071Y004990D01*
X020701Y003415D02*
X020778Y003417D01*
X020855Y003423D01*
X020932Y003432D01*
X021008Y003445D01*
X021084Y003462D01*
X021158Y003483D01*
X021232Y003507D01*
X021304Y003535D01*
X021374Y003566D01*
X021443Y003601D01*
X021511Y003639D01*
X021576Y003680D01*
X021639Y003725D01*
X021700Y003773D01*
X021759Y003823D01*
X021815Y003876D01*
X021868Y003932D01*
X021918Y003991D01*
X021966Y004052D01*
X022011Y004115D01*
X022052Y004180D01*
X022090Y004248D01*
X022125Y004317D01*
X022156Y004387D01*
X022184Y004459D01*
X022208Y004533D01*
X022229Y004607D01*
X022246Y004683D01*
X022259Y004759D01*
X022268Y004836D01*
X022274Y004913D01*
X022276Y004990D01*
X020701Y003416D02*
X004166Y003416D01*
X003536Y004990D02*
X003538Y005040D01*
X003544Y005090D01*
X003554Y005139D01*
X003568Y005187D01*
X003585Y005234D01*
X003606Y005279D01*
X003631Y005323D01*
X003659Y005364D01*
X003691Y005403D01*
X003725Y005440D01*
X003762Y005474D01*
X003802Y005504D01*
X003844Y005531D01*
X003888Y005555D01*
X003934Y005576D01*
X003981Y005592D01*
X004029Y005605D01*
X004079Y005614D01*
X004128Y005619D01*
X004179Y005620D01*
X004229Y005617D01*
X004278Y005610D01*
X004327Y005599D01*
X004375Y005584D01*
X004421Y005566D01*
X004466Y005544D01*
X004509Y005518D01*
X004550Y005489D01*
X004589Y005457D01*
X004625Y005422D01*
X004657Y005384D01*
X004687Y005344D01*
X004714Y005301D01*
X004737Y005257D01*
X004756Y005211D01*
X004772Y005163D01*
X004784Y005114D01*
X004792Y005065D01*
X004796Y005015D01*
X004796Y004965D01*
X004792Y004915D01*
X004784Y004866D01*
X004772Y004817D01*
X004756Y004769D01*
X004737Y004723D01*
X004714Y004679D01*
X004687Y004636D01*
X004657Y004596D01*
X004625Y004558D01*
X004589Y004523D01*
X004550Y004491D01*
X004509Y004462D01*
X004466Y004436D01*
X004421Y004414D01*
X004375Y004396D01*
X004327Y004381D01*
X004278Y004370D01*
X004229Y004363D01*
X004179Y004360D01*
X004128Y004361D01*
X004079Y004366D01*
X004029Y004375D01*
X003981Y004388D01*
X003934Y004404D01*
X003888Y004425D01*
X003844Y004449D01*
X003802Y004476D01*
X003762Y004506D01*
X003725Y004540D01*
X003691Y004577D01*
X003659Y004616D01*
X003631Y004657D01*
X003606Y004701D01*
X003585Y004746D01*
X003568Y004793D01*
X003554Y004841D01*
X003544Y004890D01*
X003538Y004940D01*
X003536Y004990D01*
X002591Y004990D02*
X002593Y004913D01*
X002599Y004836D01*
X002608Y004759D01*
X002621Y004683D01*
X002638Y004607D01*
X002659Y004533D01*
X002683Y004459D01*
X002711Y004387D01*
X002742Y004317D01*
X002777Y004248D01*
X002815Y004180D01*
X002856Y004115D01*
X002901Y004052D01*
X002949Y003991D01*
X002999Y003932D01*
X003052Y003876D01*
X003108Y003823D01*
X003167Y003773D01*
X003228Y003725D01*
X003291Y003680D01*
X003356Y003639D01*
X003424Y003601D01*
X003493Y003566D01*
X003563Y003535D01*
X003635Y003507D01*
X003709Y003483D01*
X003783Y003462D01*
X003859Y003445D01*
X003935Y003432D01*
X004012Y003423D01*
X004089Y003417D01*
X004166Y003415D01*
X005355Y004916D02*
X005357Y004946D01*
X005363Y004976D01*
X005372Y005005D01*
X005385Y005032D01*
X005402Y005057D01*
X005421Y005080D01*
X005444Y005101D01*
X005469Y005118D01*
X005495Y005132D01*
X005524Y005142D01*
X005553Y005149D01*
X005583Y005152D01*
X005614Y005151D01*
X005644Y005146D01*
X005673Y005137D01*
X005700Y005125D01*
X005726Y005110D01*
X005750Y005091D01*
X005771Y005069D01*
X005789Y005045D01*
X005804Y005018D01*
X005815Y004990D01*
X005823Y004961D01*
X005827Y004931D01*
X005827Y004901D01*
X005823Y004871D01*
X005815Y004842D01*
X005804Y004814D01*
X005789Y004787D01*
X005771Y004763D01*
X005750Y004741D01*
X005726Y004722D01*
X005700Y004707D01*
X005673Y004695D01*
X005644Y004686D01*
X005614Y004681D01*
X005583Y004680D01*
X005553Y004683D01*
X005524Y004690D01*
X005495Y004700D01*
X005469Y004714D01*
X005444Y004731D01*
X005421Y004752D01*
X005402Y004775D01*
X005385Y004800D01*
X005372Y004827D01*
X005363Y004856D01*
X005357Y004886D01*
X005355Y004916D01*
X006355Y004916D02*
X006357Y004946D01*
X006363Y004976D01*
X006372Y005005D01*
X006385Y005032D01*
X006402Y005057D01*
X006421Y005080D01*
X006444Y005101D01*
X006469Y005118D01*
X006495Y005132D01*
X006524Y005142D01*
X006553Y005149D01*
X006583Y005152D01*
X006614Y005151D01*
X006644Y005146D01*
X006673Y005137D01*
X006700Y005125D01*
X006726Y005110D01*
X006750Y005091D01*
X006771Y005069D01*
X006789Y005045D01*
X006804Y005018D01*
X006815Y004990D01*
X006823Y004961D01*
X006827Y004931D01*
X006827Y004901D01*
X006823Y004871D01*
X006815Y004842D01*
X006804Y004814D01*
X006789Y004787D01*
X006771Y004763D01*
X006750Y004741D01*
X006726Y004722D01*
X006700Y004707D01*
X006673Y004695D01*
X006644Y004686D01*
X006614Y004681D01*
X006583Y004680D01*
X006553Y004683D01*
X006524Y004690D01*
X006495Y004700D01*
X006469Y004714D01*
X006444Y004731D01*
X006421Y004752D01*
X006402Y004775D01*
X006385Y004800D01*
X006372Y004827D01*
X006363Y004856D01*
X006357Y004886D01*
X006355Y004916D01*
X007355Y004916D02*
X007357Y004946D01*
X007363Y004976D01*
X007372Y005005D01*
X007385Y005032D01*
X007402Y005057D01*
X007421Y005080D01*
X007444Y005101D01*
X007469Y005118D01*
X007495Y005132D01*
X007524Y005142D01*
X007553Y005149D01*
X007583Y005152D01*
X007614Y005151D01*
X007644Y005146D01*
X007673Y005137D01*
X007700Y005125D01*
X007726Y005110D01*
X007750Y005091D01*
X007771Y005069D01*
X007789Y005045D01*
X007804Y005018D01*
X007815Y004990D01*
X007823Y004961D01*
X007827Y004931D01*
X007827Y004901D01*
X007823Y004871D01*
X007815Y004842D01*
X007804Y004814D01*
X007789Y004787D01*
X007771Y004763D01*
X007750Y004741D01*
X007726Y004722D01*
X007700Y004707D01*
X007673Y004695D01*
X007644Y004686D01*
X007614Y004681D01*
X007583Y004680D01*
X007553Y004683D01*
X007524Y004690D01*
X007495Y004700D01*
X007469Y004714D01*
X007444Y004731D01*
X007421Y004752D01*
X007402Y004775D01*
X007385Y004800D01*
X007372Y004827D01*
X007363Y004856D01*
X007357Y004886D01*
X007355Y004916D01*
X008355Y004916D02*
X008357Y004946D01*
X008363Y004976D01*
X008372Y005005D01*
X008385Y005032D01*
X008402Y005057D01*
X008421Y005080D01*
X008444Y005101D01*
X008469Y005118D01*
X008495Y005132D01*
X008524Y005142D01*
X008553Y005149D01*
X008583Y005152D01*
X008614Y005151D01*
X008644Y005146D01*
X008673Y005137D01*
X008700Y005125D01*
X008726Y005110D01*
X008750Y005091D01*
X008771Y005069D01*
X008789Y005045D01*
X008804Y005018D01*
X008815Y004990D01*
X008823Y004961D01*
X008827Y004931D01*
X008827Y004901D01*
X008823Y004871D01*
X008815Y004842D01*
X008804Y004814D01*
X008789Y004787D01*
X008771Y004763D01*
X008750Y004741D01*
X008726Y004722D01*
X008700Y004707D01*
X008673Y004695D01*
X008644Y004686D01*
X008614Y004681D01*
X008583Y004680D01*
X008553Y004683D01*
X008524Y004690D01*
X008495Y004700D01*
X008469Y004714D01*
X008444Y004731D01*
X008421Y004752D01*
X008402Y004775D01*
X008385Y004800D01*
X008372Y004827D01*
X008363Y004856D01*
X008357Y004886D01*
X008355Y004916D01*
X002591Y004990D02*
X002591Y021526D01*
X003536Y021526D02*
X003538Y021576D01*
X003544Y021626D01*
X003554Y021675D01*
X003568Y021723D01*
X003585Y021770D01*
X003606Y021815D01*
X003631Y021859D01*
X003659Y021900D01*
X003691Y021939D01*
X003725Y021976D01*
X003762Y022010D01*
X003802Y022040D01*
X003844Y022067D01*
X003888Y022091D01*
X003934Y022112D01*
X003981Y022128D01*
X004029Y022141D01*
X004079Y022150D01*
X004128Y022155D01*
X004179Y022156D01*
X004229Y022153D01*
X004278Y022146D01*
X004327Y022135D01*
X004375Y022120D01*
X004421Y022102D01*
X004466Y022080D01*
X004509Y022054D01*
X004550Y022025D01*
X004589Y021993D01*
X004625Y021958D01*
X004657Y021920D01*
X004687Y021880D01*
X004714Y021837D01*
X004737Y021793D01*
X004756Y021747D01*
X004772Y021699D01*
X004784Y021650D01*
X004792Y021601D01*
X004796Y021551D01*
X004796Y021501D01*
X004792Y021451D01*
X004784Y021402D01*
X004772Y021353D01*
X004756Y021305D01*
X004737Y021259D01*
X004714Y021215D01*
X004687Y021172D01*
X004657Y021132D01*
X004625Y021094D01*
X004589Y021059D01*
X004550Y021027D01*
X004509Y020998D01*
X004466Y020972D01*
X004421Y020950D01*
X004375Y020932D01*
X004327Y020917D01*
X004278Y020906D01*
X004229Y020899D01*
X004179Y020896D01*
X004128Y020897D01*
X004079Y020902D01*
X004029Y020911D01*
X003981Y020924D01*
X003934Y020940D01*
X003888Y020961D01*
X003844Y020985D01*
X003802Y021012D01*
X003762Y021042D01*
X003725Y021076D01*
X003691Y021113D01*
X003659Y021152D01*
X003631Y021193D01*
X003606Y021237D01*
X003585Y021282D01*
X003568Y021329D01*
X003554Y021377D01*
X003544Y021426D01*
X003538Y021476D01*
X003536Y021526D01*
X002591Y021526D02*
X002593Y021603D01*
X002599Y021680D01*
X002608Y021757D01*
X002621Y021833D01*
X002638Y021909D01*
X002659Y021983D01*
X002683Y022057D01*
X002711Y022129D01*
X002742Y022199D01*
X002777Y022268D01*
X002815Y022336D01*
X002856Y022401D01*
X002901Y022464D01*
X002949Y022525D01*
X002999Y022584D01*
X003052Y022640D01*
X003108Y022693D01*
X003167Y022743D01*
X003228Y022791D01*
X003291Y022836D01*
X003356Y022877D01*
X003424Y022915D01*
X003493Y022950D01*
X003563Y022981D01*
X003635Y023009D01*
X003709Y023033D01*
X003783Y023054D01*
X003859Y023071D01*
X003935Y023084D01*
X004012Y023093D01*
X004089Y023099D01*
X004166Y023101D01*
X020701Y023101D01*
X020071Y021526D02*
X020073Y021576D01*
X020079Y021626D01*
X020089Y021675D01*
X020103Y021723D01*
X020120Y021770D01*
X020141Y021815D01*
X020166Y021859D01*
X020194Y021900D01*
X020226Y021939D01*
X020260Y021976D01*
X020297Y022010D01*
X020337Y022040D01*
X020379Y022067D01*
X020423Y022091D01*
X020469Y022112D01*
X020516Y022128D01*
X020564Y022141D01*
X020614Y022150D01*
X020663Y022155D01*
X020714Y022156D01*
X020764Y022153D01*
X020813Y022146D01*
X020862Y022135D01*
X020910Y022120D01*
X020956Y022102D01*
X021001Y022080D01*
X021044Y022054D01*
X021085Y022025D01*
X021124Y021993D01*
X021160Y021958D01*
X021192Y021920D01*
X021222Y021880D01*
X021249Y021837D01*
X021272Y021793D01*
X021291Y021747D01*
X021307Y021699D01*
X021319Y021650D01*
X021327Y021601D01*
X021331Y021551D01*
X021331Y021501D01*
X021327Y021451D01*
X021319Y021402D01*
X021307Y021353D01*
X021291Y021305D01*
X021272Y021259D01*
X021249Y021215D01*
X021222Y021172D01*
X021192Y021132D01*
X021160Y021094D01*
X021124Y021059D01*
X021085Y021027D01*
X021044Y020998D01*
X021001Y020972D01*
X020956Y020950D01*
X020910Y020932D01*
X020862Y020917D01*
X020813Y020906D01*
X020764Y020899D01*
X020714Y020896D01*
X020663Y020897D01*
X020614Y020902D01*
X020564Y020911D01*
X020516Y020924D01*
X020469Y020940D01*
X020423Y020961D01*
X020379Y020985D01*
X020337Y021012D01*
X020297Y021042D01*
X020260Y021076D01*
X020226Y021113D01*
X020194Y021152D01*
X020166Y021193D01*
X020141Y021237D01*
X020120Y021282D01*
X020103Y021329D01*
X020089Y021377D01*
X020079Y021426D01*
X020073Y021476D01*
X020071Y021526D01*
X020701Y023101D02*
X020778Y023099D01*
X020855Y023093D01*
X020932Y023084D01*
X021008Y023071D01*
X021084Y023054D01*
X021158Y023033D01*
X021232Y023009D01*
X021304Y022981D01*
X021374Y022950D01*
X021443Y022915D01*
X021511Y022877D01*
X021576Y022836D01*
X021639Y022791D01*
X021700Y022743D01*
X021759Y022693D01*
X021815Y022640D01*
X021868Y022584D01*
X021918Y022525D01*
X021966Y022464D01*
X022011Y022401D01*
X022052Y022336D01*
X022090Y022268D01*
X022125Y022199D01*
X022156Y022129D01*
X022184Y022057D01*
X022208Y021983D01*
X022229Y021909D01*
X022246Y021833D01*
X022259Y021757D01*
X022268Y021680D01*
X022274Y021603D01*
X022276Y021526D01*
X020214Y009482D02*
X020216Y009508D01*
X020222Y009534D01*
X020232Y009559D01*
X020245Y009582D01*
X020261Y009602D01*
X020281Y009620D01*
X020303Y009635D01*
X020326Y009647D01*
X020352Y009655D01*
X020378Y009659D01*
X020404Y009659D01*
X020430Y009655D01*
X020456Y009647D01*
X020480Y009635D01*
X020501Y009620D01*
X020521Y009602D01*
X020537Y009582D01*
X020550Y009559D01*
X020560Y009534D01*
X020566Y009508D01*
X020568Y009482D01*
X020566Y009456D01*
X020560Y009430D01*
X020550Y009405D01*
X020537Y009382D01*
X020521Y009362D01*
X020501Y009344D01*
X020479Y009329D01*
X020456Y009317D01*
X020430Y009309D01*
X020404Y009305D01*
X020378Y009305D01*
X020352Y009309D01*
X020326Y009317D01*
X020302Y009329D01*
X020281Y009344D01*
X020261Y009362D01*
X020245Y009382D01*
X020232Y009405D01*
X020222Y009430D01*
X020216Y009456D01*
X020214Y009482D01*
X020214Y007749D02*
X020216Y007775D01*
X020222Y007801D01*
X020232Y007826D01*
X020245Y007849D01*
X020261Y007869D01*
X020281Y007887D01*
X020303Y007902D01*
X020326Y007914D01*
X020352Y007922D01*
X020378Y007926D01*
X020404Y007926D01*
X020430Y007922D01*
X020456Y007914D01*
X020480Y007902D01*
X020501Y007887D01*
X020521Y007869D01*
X020537Y007849D01*
X020550Y007826D01*
X020560Y007801D01*
X020566Y007775D01*
X020568Y007749D01*
X020566Y007723D01*
X020560Y007697D01*
X020550Y007672D01*
X020537Y007649D01*
X020521Y007629D01*
X020501Y007611D01*
X020479Y007596D01*
X020456Y007584D01*
X020430Y007576D01*
X020404Y007572D01*
X020378Y007572D01*
X020352Y007576D01*
X020326Y007584D01*
X020302Y007596D01*
X020281Y007611D01*
X020261Y007629D01*
X020245Y007649D01*
X020232Y007672D01*
X020222Y007697D01*
X020216Y007723D01*
X020214Y007749D01*
D13*
X019407Y006864D03*
X021572Y006864D03*
X021572Y010368D03*
X019407Y010368D03*
D14*
X019170Y009246D03*
X019170Y008931D03*
X019170Y008616D03*
X019170Y008301D03*
X019170Y007986D03*
D15*
X019091Y004316D03*
X018091Y004316D03*
X017091Y004316D03*
X016091Y004316D03*
X015091Y004316D03*
X016091Y012416D03*
X016091Y013416D03*
X016091Y014416D03*
X016091Y015416D03*
X016091Y016416D03*
X016091Y017416D03*
X016091Y018416D03*
X017091Y018416D03*
X018091Y018416D03*
X018091Y017416D03*
X017091Y017416D03*
X017091Y016416D03*
X017091Y015416D03*
X018091Y015416D03*
X018091Y016416D03*
X018091Y014416D03*
X017091Y014416D03*
X017091Y013416D03*
X018091Y013416D03*
X018091Y012416D03*
X017091Y012416D03*
X016811Y020526D03*
X016811Y022306D03*
X019371Y022306D03*
X019371Y020526D03*
X009091Y017416D03*
X008091Y017416D03*
X007091Y017416D03*
X007091Y016416D03*
X007091Y015416D03*
X008091Y015416D03*
X008091Y016416D03*
X009091Y016416D03*
X009091Y015416D03*
X009091Y014416D03*
X008091Y014416D03*
X007091Y014416D03*
X007091Y013416D03*
X008091Y013416D03*
X009091Y013416D03*
X009091Y012416D03*
X008091Y012416D03*
X007091Y012416D03*
X008371Y020526D03*
X008371Y022306D03*
X005811Y022306D03*
X005811Y020526D03*
D16*
X016091Y011416D03*
X017091Y011416D03*
X018091Y011416D03*
D17*
X015391Y010416D03*
X015391Y009416D03*
X013091Y004116D03*
X012091Y004116D03*
X009891Y003916D03*
X009891Y004916D03*
X008591Y005916D03*
X007591Y005916D03*
X006591Y005916D03*
X005591Y005916D03*
X005591Y007916D03*
X006591Y007916D03*
X007591Y007916D03*
X008591Y007916D03*
X008091Y011416D03*
X007091Y011416D03*
X005991Y018816D03*
X004991Y018816D03*
D18*
X010591Y021416D03*
X014591Y021416D03*
D19*
X013591Y021416D03*
X012591Y021416D03*
X011591Y021416D03*
D20*
X011348Y018416D02*
X010833Y018416D01*
X010833Y017416D02*
X011348Y017416D01*
X011348Y016416D02*
X010833Y016416D01*
X010833Y015416D02*
X011348Y015416D01*
X011348Y014416D02*
X010833Y014416D01*
X010833Y013416D02*
X011348Y013416D01*
X011348Y012416D02*
X010833Y012416D01*
X010833Y011416D02*
X011348Y011416D01*
X011348Y010416D02*
X010833Y010416D01*
X010833Y009416D02*
X011348Y009416D01*
X011348Y008416D02*
X010833Y008416D01*
X010833Y007416D02*
X011348Y007416D01*
X011348Y006416D02*
X010833Y006416D01*
X010833Y005416D02*
X011348Y005416D01*
X013833Y005416D02*
X014348Y005416D01*
X014348Y006416D02*
X013833Y006416D01*
X013833Y007416D02*
X014348Y007416D01*
X014348Y008416D02*
X013833Y008416D01*
X013833Y009416D02*
X014348Y009416D01*
X014348Y010416D02*
X013833Y010416D01*
X013833Y011416D02*
X014348Y011416D01*
X014348Y012416D02*
X013833Y012416D01*
X013833Y013416D02*
X014348Y013416D01*
X014348Y014416D02*
X013833Y014416D01*
X013833Y015416D02*
X014348Y015416D01*
X014348Y016416D02*
X013833Y016416D01*
X013833Y017416D02*
X014348Y017416D01*
X014348Y018416D02*
X013833Y018416D01*
D21*
X014091Y019416D03*
X011572Y020316D03*
X011091Y019416D03*
X009991Y018416D03*
X009210Y020316D03*
X008091Y019416D03*
X006991Y018416D03*
X006141Y009416D03*
X008041Y009416D03*
X009891Y008916D03*
X009891Y005916D03*
X017091Y019416D03*
D22*
X017291Y009416D03*
X017891Y009416D03*
D23*
X003647Y003739D02*
X003341Y003916D01*
X003091Y004166D01*
X002914Y004472D01*
X002822Y004814D01*
X002811Y004990D01*
X002811Y006696D01*
X003582Y006696D01*
X003711Y006824D01*
X003711Y020007D01*
X003582Y020136D01*
X002811Y020136D01*
X002811Y021526D01*
X002822Y021703D01*
X002914Y022044D01*
X003091Y022351D01*
X003341Y022601D01*
X003647Y022778D01*
X003989Y022869D01*
X004166Y022881D01*
X020701Y022881D01*
X020878Y022869D01*
X021220Y022778D01*
X021526Y022601D01*
X021776Y022351D01*
X021953Y022044D01*
X022044Y021703D01*
X022056Y021526D01*
X022056Y019536D01*
X021500Y019536D01*
X021371Y019407D01*
X021371Y019236D01*
X021000Y019236D01*
X020871Y019107D01*
X017471Y019107D01*
X017471Y019120D02*
X017496Y019145D01*
X017568Y019321D01*
X017568Y019511D01*
X017496Y019686D01*
X017361Y019820D01*
X017186Y019893D01*
X016996Y019893D01*
X016868Y019840D01*
X016988Y019960D01*
X017145Y020025D01*
X017311Y020191D01*
X017401Y020408D01*
X017401Y020643D01*
X017311Y020860D01*
X017145Y021026D01*
X016928Y021116D01*
X016693Y021116D01*
X016477Y021026D01*
X016311Y020860D01*
X016221Y020643D01*
X016221Y020408D01*
X016311Y020191D01*
X016312Y020190D01*
X015858Y019736D01*
X014446Y019736D01*
X014361Y019820D01*
X014186Y019893D01*
X013996Y019893D01*
X013911Y019858D01*
X013911Y021000D01*
X014032Y021121D01*
X014071Y021216D01*
X014071Y021024D01*
X014200Y020896D01*
X014982Y020896D01*
X015111Y021024D01*
X015111Y021807D01*
X014982Y021936D01*
X014823Y021936D01*
X014772Y021987D01*
X014472Y022287D01*
X014354Y022336D01*
X013227Y022336D01*
X013110Y022287D01*
X013020Y022197D01*
X012910Y022087D01*
X012910Y022087D01*
X012820Y021997D01*
X012771Y021879D01*
X012771Y021862D01*
X012703Y021884D01*
X012629Y021896D01*
X012611Y021896D01*
X012611Y021436D01*
X012571Y021436D01*
X012571Y021896D01*
X012553Y021896D01*
X012478Y021884D01*
X012411Y021862D01*
X012411Y021879D01*
X012362Y021997D01*
X012062Y022297D01*
X011972Y022387D01*
X011854Y022436D01*
X010907Y022436D01*
X010858Y022456D01*
X010723Y022456D01*
X010598Y022404D01*
X010303Y022108D01*
X010251Y021983D01*
X010251Y021936D01*
X010200Y021936D01*
X010071Y021807D01*
X010071Y021736D01*
X009197Y021736D01*
X009080Y021687D01*
X008502Y021110D01*
X008488Y021116D01*
X008253Y021116D01*
X008037Y021026D01*
X007871Y020860D01*
X007781Y020643D01*
X007781Y020408D01*
X007871Y020191D01*
X008037Y020025D01*
X008253Y019936D01*
X008488Y019936D01*
X008705Y020025D01*
X008781Y020102D01*
X008805Y020045D01*
X008890Y019960D01*
X008890Y019867D01*
X008758Y019736D01*
X008446Y019736D01*
X008361Y019820D01*
X008186Y019893D01*
X007996Y019893D01*
X007820Y019820D01*
X007686Y019686D01*
X007613Y019511D01*
X007613Y019321D01*
X007686Y019145D01*
X007820Y019011D01*
X007996Y018938D01*
X008186Y018938D01*
X008361Y019011D01*
X008446Y019096D01*
X008954Y019096D01*
X009072Y019144D01*
X009162Y019234D01*
X009481Y019553D01*
X009530Y019671D01*
X009530Y019960D01*
X009614Y020045D01*
X009687Y020221D01*
X009687Y020411D01*
X009614Y020586D01*
X009480Y020720D01*
X009305Y020793D01*
X009115Y020793D01*
X009074Y020776D01*
X009393Y021096D01*
X010071Y021096D01*
X010071Y021024D01*
X010200Y020896D01*
X010982Y020896D01*
X011111Y021024D01*
X011111Y021216D01*
X011150Y021121D01*
X011211Y021060D01*
X011211Y020696D01*
X010915Y020696D01*
X010776Y020638D01*
X008769Y018631D01*
X008143Y018006D01*
X007973Y018006D01*
X007757Y017916D01*
X007591Y017750D01*
X007567Y017693D01*
X007561Y017704D01*
X007510Y017774D01*
X007449Y017835D01*
X007379Y017886D01*
X007302Y017925D01*
X007220Y017952D01*
X007147Y017964D01*
X007261Y018011D01*
X007396Y018145D01*
X007468Y018321D01*
X007468Y018511D01*
X007396Y018686D01*
X007261Y018820D01*
X007086Y018893D01*
X006896Y018893D01*
X006720Y018820D01*
X006696Y018796D01*
X006548Y018796D01*
X006526Y018818D01*
X006526Y018922D01*
X006444Y019119D01*
X006294Y019269D01*
X006097Y019351D01*
X005884Y019351D01*
X005688Y019269D01*
X005537Y019119D01*
X005468Y018950D01*
X005450Y019006D01*
X005414Y019075D01*
X005368Y019138D01*
X005313Y019193D01*
X005250Y019239D01*
X005181Y019274D01*
X005107Y019298D01*
X005030Y019311D01*
X004991Y019311D01*
X004991Y018816D01*
X004991Y018816D01*
X004991Y019311D01*
X004952Y019311D01*
X004875Y019298D01*
X004801Y019274D01*
X004731Y019239D01*
X004668Y019193D01*
X004613Y019138D01*
X004567Y019075D01*
X004532Y019006D01*
X004508Y018932D01*
X004496Y018855D01*
X004496Y018816D01*
X004991Y018816D01*
X004991Y018816D01*
X004991Y018321D01*
X005030Y018321D01*
X005107Y018333D01*
X005181Y018357D01*
X005250Y018392D01*
X005313Y018438D01*
X005368Y018493D01*
X005414Y018556D01*
X005450Y018626D01*
X005468Y018681D01*
X005537Y018513D01*
X005688Y018362D01*
X005884Y018281D01*
X005988Y018281D01*
X006176Y018093D01*
X006315Y018036D01*
X006696Y018036D01*
X006720Y018011D01*
X006896Y017938D01*
X006919Y017938D01*
X006880Y017925D01*
X006803Y017886D01*
X006733Y017835D01*
X006671Y017774D01*
X006620Y017704D01*
X006581Y017627D01*
X006554Y017544D01*
X006541Y017459D01*
X006541Y017434D01*
X007072Y017434D01*
X007072Y017397D01*
X006541Y017397D01*
X006541Y017372D01*
X006554Y017287D01*
X006581Y017204D01*
X006620Y017127D01*
X006671Y017057D01*
X006733Y016996D01*
X006803Y016945D01*
X006861Y016916D01*
X006803Y016886D01*
X006733Y016835D01*
X006671Y016774D01*
X006620Y016704D01*
X006581Y016627D01*
X006554Y016544D01*
X006541Y016459D01*
X006541Y016434D01*
X007072Y016434D01*
X007072Y016397D01*
X006541Y016397D01*
X006541Y016372D01*
X006554Y016287D01*
X006581Y016204D01*
X006620Y016127D01*
X006671Y016057D01*
X006733Y015996D01*
X006803Y015945D01*
X006861Y015916D01*
X006803Y015886D01*
X006733Y015835D01*
X006671Y015774D01*
X006620Y015704D01*
X006581Y015627D01*
X006554Y015544D01*
X006541Y015459D01*
X006541Y015434D01*
X007072Y015434D01*
X007072Y015397D01*
X006541Y015397D01*
X006541Y015372D01*
X006554Y015287D01*
X006581Y015204D01*
X006620Y015127D01*
X006671Y015057D01*
X006733Y014996D01*
X006803Y014945D01*
X006861Y014916D01*
X006803Y014886D01*
X006733Y014835D01*
X006671Y014774D01*
X006620Y014704D01*
X006581Y014627D01*
X006554Y014544D01*
X006541Y014459D01*
X006541Y014434D01*
X007072Y014434D01*
X007072Y014397D01*
X006541Y014397D01*
X006541Y014372D01*
X006554Y014287D01*
X006581Y014204D01*
X006620Y014127D01*
X006671Y014057D01*
X006733Y013996D01*
X006803Y013945D01*
X006861Y013916D01*
X006803Y013886D01*
X006733Y013835D01*
X006671Y013774D01*
X006620Y013704D01*
X006581Y013627D01*
X006554Y013544D01*
X006541Y013459D01*
X006541Y013434D01*
X007072Y013434D01*
X007072Y013397D01*
X006541Y013397D01*
X006541Y013372D01*
X006554Y013287D01*
X006581Y013204D01*
X006620Y013127D01*
X006671Y013057D01*
X006733Y012996D01*
X006803Y012945D01*
X006861Y012916D01*
X006803Y012886D01*
X006733Y012835D01*
X006671Y012774D01*
X006620Y012704D01*
X006581Y012627D01*
X006554Y012544D01*
X006541Y012459D01*
X006541Y012434D01*
X007072Y012434D01*
X007072Y012397D01*
X006541Y012397D01*
X006541Y012372D01*
X006554Y012287D01*
X006581Y012204D01*
X006620Y012127D01*
X006671Y012057D01*
X006733Y011996D01*
X006803Y011945D01*
X006880Y011906D01*
X006939Y011887D01*
X006901Y011874D01*
X006831Y011839D01*
X006768Y011793D01*
X006713Y011738D01*
X006667Y011675D01*
X006632Y011606D01*
X006608Y011532D01*
X006596Y011455D01*
X006596Y011416D01*
X007091Y011416D01*
X007091Y011416D01*
X007091Y011911D01*
X007109Y011911D01*
X007109Y012397D01*
X007072Y012397D01*
X007072Y011911D01*
X007091Y011911D01*
X007091Y011416D01*
X007091Y011416D01*
X007091Y010921D01*
X007130Y010921D01*
X007207Y010933D01*
X007281Y010957D01*
X007350Y010992D01*
X007413Y011038D01*
X007468Y011093D01*
X007514Y011156D01*
X007550Y011226D01*
X007568Y011281D01*
X007637Y011113D01*
X007694Y011056D01*
X007533Y010896D01*
X005315Y010896D01*
X005176Y010838D01*
X005069Y010731D01*
X004269Y009931D01*
X004211Y009791D01*
X004211Y006340D01*
X004269Y006200D01*
X004376Y006093D01*
X004876Y005593D01*
X005015Y005536D01*
X005214Y005536D01*
X005288Y005462D01*
X005484Y005381D01*
X005697Y005381D01*
X005894Y005462D01*
X006044Y005613D01*
X006091Y005725D01*
X006137Y005613D01*
X006288Y005462D01*
X006484Y005381D01*
X006697Y005381D01*
X006894Y005462D01*
X006967Y005536D01*
X007214Y005536D01*
X007288Y005462D01*
X007484Y005381D01*
X007697Y005381D01*
X007894Y005462D01*
X008044Y005613D01*
X008114Y005781D01*
X008132Y005726D01*
X008167Y005656D01*
X008213Y005593D01*
X008268Y005538D01*
X008331Y005492D01*
X008401Y005457D01*
X008475Y005433D01*
X008552Y005421D01*
X008591Y005421D01*
X008630Y005421D01*
X008707Y005433D01*
X008781Y005457D01*
X008850Y005492D01*
X008913Y005538D01*
X008968Y005593D01*
X009014Y005656D01*
X009050Y005726D01*
X009074Y005800D01*
X009086Y005877D01*
X009086Y005916D01*
X009086Y005955D01*
X009074Y006032D01*
X009050Y006106D01*
X009014Y006175D01*
X008968Y006238D01*
X008913Y006293D01*
X008850Y006339D01*
X008781Y006374D01*
X008707Y006398D01*
X008630Y006411D01*
X008591Y006411D01*
X008591Y005916D01*
X008591Y005916D01*
X009086Y005916D01*
X008591Y005916D01*
X008591Y005916D01*
X008591Y006411D01*
X008552Y006411D01*
X008475Y006398D01*
X008401Y006374D01*
X008331Y006339D01*
X008268Y006293D01*
X008213Y006238D01*
X008167Y006175D01*
X008132Y006106D01*
X008114Y006050D01*
X008044Y006219D01*
X007894Y006369D01*
X007697Y006451D01*
X007484Y006451D01*
X007288Y006369D01*
X007214Y006296D01*
X006967Y006296D01*
X006894Y006369D01*
X006697Y006451D01*
X006484Y006451D01*
X006288Y006369D01*
X006137Y006219D01*
X006091Y006106D01*
X006044Y006219D01*
X005894Y006369D01*
X005697Y006451D01*
X005484Y006451D01*
X005288Y006369D01*
X005231Y006313D01*
X004971Y006573D01*
X004971Y009558D01*
X005548Y010136D01*
X006408Y010136D01*
X006166Y009893D01*
X006046Y009893D01*
X005870Y009820D01*
X005736Y009686D01*
X005663Y009511D01*
X005663Y009419D01*
X005303Y009058D01*
X005251Y008933D01*
X005251Y008332D01*
X005137Y008219D01*
X005056Y008022D01*
X005056Y007809D01*
X005137Y007613D01*
X005288Y007462D01*
X005484Y007381D01*
X005697Y007381D01*
X005894Y007462D01*
X006044Y007613D01*
X006114Y007781D01*
X006132Y007726D01*
X006167Y007656D01*
X006213Y007593D01*
X006268Y007538D01*
X006331Y007492D01*
X006401Y007457D01*
X006475Y007433D01*
X006552Y007421D01*
X006591Y007421D01*
X006630Y007421D01*
X006707Y007433D01*
X006781Y007457D01*
X006850Y007492D01*
X006913Y007538D01*
X006968Y007593D01*
X007014Y007656D01*
X007050Y007726D01*
X007074Y007800D01*
X007086Y007877D01*
X007086Y007916D01*
X007086Y007955D01*
X007074Y008032D01*
X007050Y008106D01*
X007014Y008175D01*
X006968Y008238D01*
X006913Y008293D01*
X006850Y008339D01*
X006781Y008374D01*
X006707Y008398D01*
X006630Y008411D01*
X006591Y008411D01*
X006591Y007916D01*
X006591Y007916D01*
X007086Y007916D01*
X006591Y007916D01*
X006591Y007916D01*
X006591Y008411D01*
X006552Y008411D01*
X006475Y008398D01*
X006401Y008374D01*
X006331Y008339D01*
X006268Y008293D01*
X006213Y008238D01*
X006167Y008175D01*
X006132Y008106D01*
X006114Y008050D01*
X006044Y008219D01*
X005931Y008332D01*
X005931Y008725D01*
X006144Y008938D01*
X006236Y008938D01*
X006411Y009011D01*
X006546Y009145D01*
X006618Y009321D01*
X006618Y009441D01*
X006773Y009596D01*
X007599Y009596D01*
X007563Y009511D01*
X007563Y009321D01*
X007636Y009145D01*
X007770Y009011D01*
X007946Y008938D01*
X008037Y008938D01*
X008251Y008725D01*
X008251Y008332D01*
X008137Y008219D01*
X008068Y008050D01*
X008050Y008106D01*
X008014Y008175D01*
X007968Y008238D01*
X007913Y008293D01*
X007850Y008339D01*
X007781Y008374D01*
X007707Y008398D01*
X007630Y008411D01*
X007591Y008411D01*
X007591Y007916D01*
X007591Y007916D01*
X007591Y008411D01*
X007552Y008411D01*
X007475Y008398D01*
X007401Y008374D01*
X007331Y008339D01*
X007268Y008293D01*
X007213Y008238D01*
X007167Y008175D01*
X007132Y008106D01*
X007108Y008032D01*
X007096Y007955D01*
X007096Y007916D01*
X007591Y007916D01*
X007591Y007916D01*
X007591Y007421D01*
X007630Y007421D01*
X007707Y007433D01*
X007781Y007457D01*
X007850Y007492D01*
X007913Y007538D01*
X007968Y007593D01*
X008014Y007656D01*
X008050Y007726D01*
X008068Y007781D01*
X008137Y007613D01*
X008288Y007462D01*
X008484Y007381D01*
X008697Y007381D01*
X008894Y007462D01*
X009044Y007613D01*
X009126Y007809D01*
X009126Y008022D01*
X009044Y008219D01*
X008931Y008332D01*
X008931Y008933D01*
X008879Y009058D01*
X008862Y009076D01*
X009440Y009076D01*
X009413Y009011D01*
X009413Y008821D01*
X009486Y008645D01*
X009620Y008511D01*
X009796Y008438D01*
X009831Y008438D01*
X010176Y008093D01*
X010315Y008036D01*
X010538Y008036D01*
X010563Y008011D01*
X010738Y007938D01*
X011443Y007938D01*
X011619Y008011D01*
X011753Y008145D01*
X011826Y008321D01*
X011826Y008511D01*
X011753Y008686D01*
X011619Y008820D01*
X011443Y008893D01*
X010738Y008893D01*
X010563Y008820D01*
X010543Y008801D01*
X010368Y008976D01*
X010368Y009011D01*
X010341Y009076D01*
X010498Y009076D01*
X010563Y009011D01*
X010738Y008938D01*
X011443Y008938D01*
X011619Y009011D01*
X011753Y009145D01*
X011826Y009321D01*
X011826Y009511D01*
X011753Y009686D01*
X011619Y009820D01*
X011443Y009893D01*
X010738Y009893D01*
X010563Y009820D01*
X010498Y009756D01*
X009183Y009756D01*
X009523Y010096D01*
X010478Y010096D01*
X010563Y010011D01*
X010738Y009938D01*
X011443Y009938D01*
X011619Y010011D01*
X011753Y010145D01*
X011826Y010321D01*
X011826Y010511D01*
X011753Y010686D01*
X011619Y010820D01*
X011443Y010893D01*
X010738Y010893D01*
X010563Y010820D01*
X010478Y010736D01*
X009327Y010736D01*
X009210Y010687D01*
X008758Y010236D01*
X007948Y010236D01*
X008306Y010593D01*
X008413Y010700D01*
X008471Y010840D01*
X008471Y011036D01*
X009466Y011036D01*
X009606Y011093D01*
X010088Y011576D01*
X010425Y011576D01*
X010407Y011518D01*
X010396Y011450D01*
X010396Y011416D01*
X011091Y011416D01*
X011786Y011416D01*
X011786Y011450D01*
X011775Y011518D01*
X011756Y011576D01*
X012450Y011576D01*
X013402Y010623D01*
X013356Y010511D01*
X013356Y010321D01*
X013429Y010145D01*
X013563Y010011D01*
X013738Y009938D01*
X014443Y009938D01*
X014619Y010011D01*
X014644Y010036D01*
X015014Y010036D01*
X015088Y009962D01*
X015256Y009892D01*
X015201Y009874D01*
X015131Y009839D01*
X015068Y009793D01*
X015013Y009738D01*
X014967Y009675D01*
X014932Y009606D01*
X014908Y009532D01*
X014896Y009455D01*
X014896Y009416D01*
X015391Y009416D01*
X015886Y009416D01*
X015886Y009455D01*
X015874Y009532D01*
X015850Y009606D01*
X015814Y009675D01*
X015768Y009738D01*
X015713Y009793D01*
X015650Y009839D01*
X015581Y009874D01*
X015525Y009892D01*
X015694Y009962D01*
X015767Y010036D01*
X016211Y010036D01*
X016211Y009840D01*
X016269Y009700D01*
X016376Y009593D01*
X016733Y009236D01*
X015853Y009236D01*
X015874Y009300D01*
X015886Y009377D01*
X015886Y009416D01*
X015391Y009416D01*
X015391Y009416D01*
X015391Y009416D01*
X014896Y009416D01*
X014896Y009377D01*
X014907Y009306D01*
X014773Y009306D01*
X014775Y009313D01*
X014786Y009381D01*
X014786Y009416D01*
X014786Y009450D01*
X014775Y009518D01*
X014754Y009584D01*
X014722Y009645D01*
X014682Y009701D01*
X014633Y009749D01*
X014578Y009790D01*
X014516Y009821D01*
X014451Y009842D01*
X014383Y009853D01*
X014091Y009853D01*
X014091Y009416D01*
X014091Y009416D01*
X014786Y009416D01*
X014091Y009416D01*
X014091Y009416D01*
X014091Y009853D01*
X013799Y009853D01*
X013731Y009842D01*
X013665Y009821D01*
X013604Y009790D01*
X013548Y009749D01*
X013500Y009701D01*
X013459Y009645D01*
X013428Y009584D01*
X013407Y009518D01*
X013396Y009450D01*
X013396Y009416D01*
X014091Y009416D01*
X014091Y009416D01*
X013396Y009416D01*
X013396Y009381D01*
X013407Y009313D01*
X013409Y009306D01*
X013275Y009306D01*
X013250Y009316D01*
X013131Y009316D01*
X013021Y009270D01*
X012911Y009160D01*
X012911Y010108D01*
X012969Y010166D01*
X012969Y010665D01*
X012840Y010794D01*
X012341Y010794D01*
X012212Y010665D01*
X012212Y010166D01*
X012271Y010108D01*
X012271Y006088D01*
X011810Y006549D01*
X011753Y006686D01*
X011619Y006820D01*
X011443Y006893D01*
X010738Y006893D01*
X010563Y006820D01*
X010429Y006686D01*
X010356Y006511D01*
X010356Y006321D01*
X010429Y006145D01*
X010563Y006011D01*
X010738Y005938D01*
X011443Y005938D01*
X011495Y005959D01*
X012887Y004567D01*
X012831Y004539D01*
X012768Y004493D01*
X012713Y004438D01*
X012667Y004375D01*
X012632Y004306D01*
X012614Y004250D01*
X012544Y004419D01*
X012394Y004569D01*
X012197Y004651D01*
X011984Y004651D01*
X011957Y004639D01*
X011826Y004717D01*
X011558Y004986D01*
X011619Y005011D01*
X011753Y005145D01*
X011826Y005321D01*
X011826Y005511D01*
X011753Y005686D01*
X011619Y005820D01*
X011443Y005893D01*
X010738Y005893D01*
X010563Y005820D01*
X010429Y005686D01*
X010356Y005511D01*
X010356Y005321D01*
X010429Y005145D01*
X010563Y005011D01*
X010711Y004950D01*
X010711Y004840D01*
X010769Y004700D01*
X010876Y004593D01*
X011302Y004167D01*
X011330Y004129D01*
X011355Y004114D01*
X011376Y004093D01*
X011419Y004075D01*
X011565Y003988D01*
X011637Y003813D01*
X011788Y003662D01*
X011852Y003636D01*
X010299Y003636D01*
X010314Y003656D01*
X010350Y003726D01*
X010374Y003800D01*
X010386Y003877D01*
X010386Y003916D01*
X010386Y003955D01*
X010374Y004032D01*
X010350Y004106D01*
X010314Y004175D01*
X010268Y004238D01*
X010213Y004293D01*
X010150Y004339D01*
X010081Y004374D01*
X010025Y004392D01*
X010194Y004462D01*
X010344Y004613D01*
X010426Y004809D01*
X010426Y005022D01*
X010344Y005219D01*
X010271Y005292D01*
X010271Y005620D01*
X010296Y005645D01*
X010368Y005821D01*
X010368Y006011D01*
X010296Y006186D01*
X010161Y006320D01*
X009986Y006393D01*
X009796Y006393D01*
X009620Y006320D01*
X009486Y006186D01*
X009413Y006011D01*
X009413Y005821D01*
X009486Y005645D01*
X009511Y005620D01*
X009511Y005292D01*
X009437Y005219D01*
X009356Y005022D01*
X009356Y004809D01*
X009437Y004613D01*
X009588Y004462D01*
X009756Y004392D01*
X009701Y004374D01*
X009631Y004339D01*
X009568Y004293D01*
X009513Y004238D01*
X009467Y004175D01*
X009432Y004106D01*
X009408Y004032D01*
X009396Y003955D01*
X009396Y003916D01*
X009891Y003916D01*
X010386Y003916D01*
X009891Y003916D01*
X009891Y003916D01*
X009891Y003916D01*
X009396Y003916D01*
X009396Y003877D01*
X009408Y003800D01*
X009432Y003726D01*
X009467Y003656D01*
X009482Y003636D01*
X004166Y003636D01*
X003989Y003647D01*
X003647Y003739D01*
X003670Y003733D02*
X009430Y003733D01*
X009396Y003891D02*
X003383Y003891D01*
X003207Y004050D02*
X009414Y004050D01*
X009492Y004208D02*
X004498Y004208D01*
X004647Y004270D02*
X004886Y004509D01*
X005016Y004821D01*
X005016Y005159D01*
X005198Y005159D01*
X005204Y005174D02*
X005135Y005006D01*
X005135Y004825D01*
X005204Y004657D01*
X005332Y004529D01*
X005500Y004459D01*
X005682Y004459D01*
X005849Y004529D01*
X005978Y004657D01*
X006047Y004825D01*
X006047Y005006D01*
X005978Y005174D01*
X005849Y005302D01*
X005682Y005372D01*
X005500Y005372D01*
X005332Y005302D01*
X005204Y005174D01*
X005135Y005001D02*
X005016Y005001D01*
X005016Y005159D02*
X004886Y005472D01*
X004647Y005711D01*
X004335Y005840D01*
X003997Y005840D01*
X003684Y005711D01*
X003445Y005472D01*
X003316Y005159D01*
X002811Y005159D01*
X002811Y005001D02*
X003316Y005001D01*
X003316Y005159D02*
X003316Y004821D01*
X003445Y004509D01*
X003684Y004270D01*
X003997Y004140D01*
X004335Y004140D01*
X004647Y004270D01*
X004744Y004367D02*
X009686Y004367D01*
X009525Y004525D02*
X008840Y004525D01*
X008849Y004529D02*
X008978Y004657D01*
X009047Y004825D01*
X009047Y005006D01*
X008978Y005174D01*
X008849Y005302D01*
X008682Y005372D01*
X008500Y005372D01*
X008332Y005302D01*
X008204Y005174D01*
X008135Y005006D01*
X008135Y004825D01*
X008204Y004657D01*
X008332Y004529D01*
X008500Y004459D01*
X008682Y004459D01*
X008849Y004529D01*
X008989Y004684D02*
X009408Y004684D01*
X009356Y004842D02*
X009047Y004842D01*
X009047Y005001D02*
X009356Y005001D01*
X009413Y005159D02*
X008984Y005159D01*
X008812Y005318D02*
X009511Y005318D01*
X009511Y005476D02*
X008818Y005476D01*
X008591Y005476D02*
X008591Y005476D01*
X008591Y005421D02*
X008591Y005916D01*
X008591Y005916D01*
X008591Y005421D01*
X008591Y005635D02*
X008591Y005635D01*
X008591Y005793D02*
X008591Y005793D01*
X008591Y005952D02*
X008591Y005952D01*
X008591Y006110D02*
X008591Y006110D01*
X008591Y006269D02*
X008591Y006269D01*
X008938Y006269D02*
X009569Y006269D01*
X009455Y006110D02*
X009047Y006110D01*
X009086Y005952D02*
X009413Y005952D01*
X009425Y005793D02*
X009071Y005793D01*
X008998Y005635D02*
X009497Y005635D01*
X010285Y005635D02*
X010407Y005635D01*
X010357Y005793D02*
X010536Y005793D01*
X010368Y005952D02*
X010706Y005952D01*
X010464Y006110D02*
X010327Y006110D01*
X010377Y006269D02*
X010213Y006269D01*
X010356Y006427D02*
X007754Y006427D01*
X007994Y006269D02*
X008244Y006269D01*
X008134Y006110D02*
X008089Y006110D01*
X008053Y005635D02*
X008183Y005635D01*
X008363Y005476D02*
X007908Y005476D01*
X007849Y005302D02*
X007682Y005372D01*
X007500Y005372D01*
X007332Y005302D01*
X007204Y005174D01*
X007135Y005006D01*
X007135Y004825D01*
X007204Y004657D01*
X007332Y004529D01*
X007500Y004459D01*
X007682Y004459D01*
X007849Y004529D01*
X007978Y004657D01*
X008047Y004825D01*
X008047Y005006D01*
X007978Y005174D01*
X007849Y005302D01*
X007812Y005318D02*
X008369Y005318D01*
X008198Y005159D02*
X007984Y005159D01*
X008047Y005001D02*
X008135Y005001D01*
X008135Y004842D02*
X008047Y004842D01*
X007989Y004684D02*
X008193Y004684D01*
X008341Y004525D02*
X007840Y004525D01*
X007341Y004525D02*
X006840Y004525D01*
X006849Y004529D02*
X006978Y004657D01*
X007047Y004825D01*
X007047Y005006D01*
X006978Y005174D01*
X006849Y005302D01*
X006682Y005372D01*
X006500Y005372D01*
X006332Y005302D01*
X006204Y005174D01*
X006135Y005006D01*
X006135Y004825D01*
X006204Y004657D01*
X006332Y004529D01*
X006500Y004459D01*
X006682Y004459D01*
X006849Y004529D01*
X006989Y004684D02*
X007193Y004684D01*
X007135Y004842D02*
X007047Y004842D01*
X007047Y005001D02*
X007135Y005001D01*
X007198Y005159D02*
X006984Y005159D01*
X006812Y005318D02*
X007369Y005318D01*
X007274Y005476D02*
X006908Y005476D01*
X006369Y005318D02*
X005812Y005318D01*
X005908Y005476D02*
X006274Y005476D01*
X006128Y005635D02*
X006053Y005635D01*
X005984Y005159D02*
X006198Y005159D01*
X006135Y005001D02*
X006047Y005001D01*
X006047Y004842D02*
X006135Y004842D01*
X006193Y004684D02*
X005989Y004684D01*
X005840Y004525D02*
X006341Y004525D01*
X005341Y004525D02*
X004893Y004525D01*
X004958Y004684D02*
X005193Y004684D01*
X005135Y004842D02*
X005016Y004842D01*
X004950Y005318D02*
X005369Y005318D01*
X005274Y005476D02*
X004882Y005476D01*
X004834Y005635D02*
X004723Y005635D01*
X004676Y005793D02*
X004449Y005793D01*
X004517Y005952D02*
X002811Y005952D01*
X002811Y006110D02*
X004359Y006110D01*
X004376Y006093D02*
X004376Y006093D01*
X004240Y006269D02*
X002811Y006269D01*
X002811Y006427D02*
X004211Y006427D01*
X004211Y006586D02*
X002811Y006586D01*
X002811Y005793D02*
X003883Y005793D01*
X003608Y005635D02*
X002811Y005635D01*
X002811Y005476D02*
X003449Y005476D01*
X003381Y005318D02*
X002811Y005318D01*
X002821Y004842D02*
X003316Y004842D01*
X003373Y004684D02*
X002857Y004684D01*
X002900Y004525D02*
X003438Y004525D01*
X003587Y004367D02*
X002975Y004367D01*
X003066Y004208D02*
X003833Y004208D01*
X005117Y006427D02*
X005428Y006427D01*
X005754Y006427D02*
X006428Y006427D01*
X006187Y006269D02*
X005994Y006269D01*
X006089Y006110D02*
X006092Y006110D01*
X006754Y006427D02*
X007428Y006427D01*
X007552Y007421D02*
X007475Y007433D01*
X007401Y007457D01*
X007331Y007492D01*
X007268Y007538D01*
X007213Y007593D01*
X007167Y007656D01*
X007132Y007726D01*
X007108Y007800D01*
X007096Y007877D01*
X007096Y007916D01*
X007591Y007916D01*
X007591Y007916D01*
X007591Y007421D01*
X007552Y007421D01*
X007591Y007537D02*
X007591Y007537D01*
X007591Y007695D02*
X007591Y007695D01*
X007591Y007854D02*
X007591Y007854D01*
X007591Y008012D02*
X007591Y008012D01*
X007591Y008171D02*
X007591Y008171D01*
X007591Y008329D02*
X007591Y008329D01*
X007864Y008329D02*
X008248Y008329D01*
X008251Y008488D02*
X005931Y008488D01*
X005931Y008646D02*
X008251Y008646D01*
X008171Y008805D02*
X006011Y008805D01*
X006296Y008963D02*
X007886Y008963D01*
X007660Y009122D02*
X006522Y009122D01*
X006602Y009280D02*
X007580Y009280D01*
X007563Y009439D02*
X006618Y009439D01*
X006187Y009914D02*
X005327Y009914D01*
X005485Y010073D02*
X006345Y010073D01*
X005806Y009756D02*
X005168Y009756D01*
X005010Y009597D02*
X005699Y009597D01*
X005663Y009439D02*
X004971Y009439D01*
X004971Y009280D02*
X005524Y009280D01*
X005366Y009122D02*
X004971Y009122D01*
X004971Y008963D02*
X005263Y008963D01*
X005251Y008805D02*
X004971Y008805D01*
X004971Y008646D02*
X005251Y008646D01*
X005251Y008488D02*
X004971Y008488D01*
X004971Y008329D02*
X005248Y008329D01*
X005117Y008171D02*
X004971Y008171D01*
X004971Y008012D02*
X005056Y008012D01*
X005056Y007854D02*
X004971Y007854D01*
X004971Y007695D02*
X005103Y007695D01*
X005213Y007537D02*
X004971Y007537D01*
X004971Y007378D02*
X010356Y007378D01*
X010356Y007321D02*
X010429Y007145D01*
X010563Y007011D01*
X010738Y006938D01*
X011443Y006938D01*
X011619Y007011D01*
X011753Y007145D01*
X011826Y007321D01*
X011826Y007511D01*
X011753Y007686D01*
X011619Y007820D01*
X011443Y007893D01*
X010738Y007893D01*
X010563Y007820D01*
X010429Y007686D01*
X010356Y007511D01*
X010356Y007321D01*
X010398Y007220D02*
X004971Y007220D01*
X004971Y007061D02*
X010513Y007061D01*
X010487Y006744D02*
X004971Y006744D01*
X004971Y006586D02*
X010387Y006586D01*
X010367Y007537D02*
X008968Y007537D01*
X009079Y007695D02*
X010438Y007695D01*
X010643Y007854D02*
X009126Y007854D01*
X009126Y008012D02*
X010562Y008012D01*
X010098Y008171D02*
X009064Y008171D01*
X008934Y008329D02*
X009940Y008329D01*
X009676Y008488D02*
X008931Y008488D01*
X008931Y008646D02*
X009486Y008646D01*
X009420Y008805D02*
X008931Y008805D01*
X008918Y008963D02*
X009413Y008963D01*
X009183Y009756D02*
X010498Y009756D01*
X010501Y010073D02*
X009500Y010073D01*
X009342Y009914D02*
X012271Y009914D01*
X012271Y009756D02*
X011684Y009756D01*
X011790Y009597D02*
X012271Y009597D01*
X012271Y009439D02*
X011826Y009439D01*
X011809Y009280D02*
X012271Y009280D01*
X012271Y009122D02*
X011730Y009122D01*
X011504Y008963D02*
X012271Y008963D01*
X012271Y008805D02*
X011635Y008805D01*
X011770Y008646D02*
X012271Y008646D01*
X012271Y008488D02*
X011826Y008488D01*
X011826Y008329D02*
X012271Y008329D01*
X012271Y008171D02*
X011764Y008171D01*
X011620Y008012D02*
X012271Y008012D01*
X012271Y007854D02*
X011539Y007854D01*
X011744Y007695D02*
X012271Y007695D01*
X012271Y007537D02*
X011815Y007537D01*
X011826Y007378D02*
X012271Y007378D01*
X012271Y007220D02*
X011784Y007220D01*
X011669Y007061D02*
X012271Y007061D01*
X012271Y006903D02*
X004971Y006903D01*
X004211Y006903D02*
X003711Y006903D01*
X003711Y007061D02*
X004211Y007061D01*
X004211Y007220D02*
X003711Y007220D01*
X003711Y007378D02*
X004211Y007378D01*
X004211Y007537D02*
X003711Y007537D01*
X003711Y007695D02*
X004211Y007695D01*
X004211Y007854D02*
X003711Y007854D01*
X003711Y008012D02*
X004211Y008012D01*
X004211Y008171D02*
X003711Y008171D01*
X003711Y008329D02*
X004211Y008329D01*
X004211Y008488D02*
X003711Y008488D01*
X003711Y008646D02*
X004211Y008646D01*
X004211Y008805D02*
X003711Y008805D01*
X003711Y008963D02*
X004211Y008963D01*
X004211Y009122D02*
X003711Y009122D01*
X003711Y009280D02*
X004211Y009280D01*
X004211Y009439D02*
X003711Y009439D01*
X003711Y009597D02*
X004211Y009597D01*
X004211Y009756D02*
X003711Y009756D01*
X003711Y009914D02*
X004262Y009914D01*
X004410Y010073D02*
X003711Y010073D01*
X003711Y010231D02*
X004569Y010231D01*
X004727Y010390D02*
X003711Y010390D01*
X003711Y010548D02*
X004886Y010548D01*
X005044Y010707D02*
X003711Y010707D01*
X003711Y010865D02*
X005242Y010865D01*
X006608Y011300D02*
X006632Y011226D01*
X006667Y011156D01*
X006713Y011093D01*
X006768Y011038D01*
X006831Y010992D01*
X006901Y010957D01*
X006975Y010933D01*
X007052Y010921D01*
X007091Y010921D01*
X007091Y011416D01*
X007091Y011416D01*
X006596Y011416D01*
X006596Y011377D01*
X006608Y011300D01*
X006602Y011341D02*
X003711Y011341D01*
X003711Y011499D02*
X006603Y011499D01*
X006659Y011658D02*
X003711Y011658D01*
X003711Y011816D02*
X006800Y011816D01*
X006762Y011975D02*
X003711Y011975D01*
X003711Y012133D02*
X006617Y012133D01*
X006554Y012292D02*
X003711Y012292D01*
X003711Y012450D02*
X006541Y012450D01*
X006575Y012609D02*
X003711Y012609D01*
X003711Y012767D02*
X006666Y012767D01*
X006841Y012926D02*
X003711Y012926D01*
X003711Y013084D02*
X006652Y013084D01*
X006569Y013243D02*
X003711Y013243D01*
X003711Y013401D02*
X007072Y013401D01*
X007072Y013397D02*
X007109Y013397D01*
X007109Y012866D01*
X007109Y012434D01*
X007072Y012434D01*
X007072Y013397D01*
X007072Y013434D02*
X007072Y014397D01*
X007109Y014397D01*
X007109Y013866D01*
X007109Y013434D01*
X007072Y013434D01*
X007072Y013560D02*
X007109Y013560D01*
X007109Y013718D02*
X007072Y013718D01*
X007072Y013877D02*
X007109Y013877D01*
X007109Y014035D02*
X007072Y014035D01*
X007072Y014194D02*
X007109Y014194D01*
X007109Y014352D02*
X007072Y014352D01*
X007072Y014434D02*
X007072Y015397D01*
X007109Y015397D01*
X007109Y014866D01*
X007109Y014434D01*
X007072Y014434D01*
X007072Y014511D02*
X007109Y014511D01*
X007109Y014669D02*
X007072Y014669D01*
X007072Y014828D02*
X007109Y014828D01*
X007109Y014986D02*
X007072Y014986D01*
X007072Y015145D02*
X007109Y015145D01*
X007109Y015303D02*
X007072Y015303D01*
X007072Y015434D02*
X007072Y016397D01*
X007109Y016397D01*
X007109Y015866D01*
X007109Y015434D01*
X007072Y015434D01*
X007072Y015462D02*
X007109Y015462D01*
X007109Y015620D02*
X007072Y015620D01*
X007072Y015779D02*
X007109Y015779D01*
X007109Y015937D02*
X007072Y015937D01*
X007072Y016096D02*
X007109Y016096D01*
X007109Y016254D02*
X007072Y016254D01*
X007072Y016413D02*
X003711Y016413D01*
X003711Y016571D02*
X006563Y016571D01*
X006639Y016730D02*
X003711Y016730D01*
X003711Y016888D02*
X006807Y016888D01*
X006682Y017047D02*
X003711Y017047D01*
X003711Y017205D02*
X006581Y017205D01*
X006542Y017364D02*
X003711Y017364D01*
X003711Y017522D02*
X006551Y017522D01*
X006609Y017681D02*
X003711Y017681D01*
X003711Y017839D02*
X006738Y017839D01*
X006752Y017998D02*
X003711Y017998D01*
X003711Y018156D02*
X006113Y018156D01*
X005802Y018315D02*
X003711Y018315D01*
X003711Y018473D02*
X004633Y018473D01*
X004613Y018493D02*
X004668Y018438D01*
X004731Y018392D01*
X004801Y018357D01*
X004875Y018333D01*
X004952Y018321D01*
X004991Y018321D01*
X004991Y018816D01*
X004991Y018816D01*
X004496Y018816D01*
X004496Y018777D01*
X004508Y018700D01*
X004532Y018626D01*
X004567Y018556D01*
X004613Y018493D01*
X004530Y018632D02*
X003711Y018632D01*
X003711Y018790D02*
X004496Y018790D01*
X004514Y018949D02*
X003711Y018949D01*
X003711Y019107D02*
X004591Y019107D01*
X004784Y019266D02*
X003711Y019266D01*
X003711Y019424D02*
X007613Y019424D01*
X007636Y019266D02*
X006297Y019266D01*
X006449Y019107D02*
X007724Y019107D01*
X007970Y018949D02*
X006515Y018949D01*
X007292Y018790D02*
X008928Y018790D01*
X008769Y018632D02*
X007418Y018632D01*
X007468Y018473D02*
X008611Y018473D01*
X008769Y018631D02*
X008769Y018631D01*
X009086Y018949D02*
X008211Y018949D01*
X008452Y018315D02*
X007466Y018315D01*
X007400Y018156D02*
X008294Y018156D01*
X007954Y017998D02*
X007229Y017998D01*
X007444Y017839D02*
X007680Y017839D01*
X007109Y017397D02*
X007109Y016866D01*
X007109Y016434D01*
X007072Y016434D01*
X007072Y017397D01*
X007109Y017397D01*
X007109Y017364D02*
X007072Y017364D01*
X007072Y017205D02*
X007109Y017205D01*
X007109Y017047D02*
X007072Y017047D01*
X007072Y016888D02*
X007109Y016888D01*
X007109Y016730D02*
X007072Y016730D01*
X007072Y016571D02*
X007109Y016571D01*
X006565Y016254D02*
X003711Y016254D01*
X003711Y016096D02*
X006643Y016096D01*
X006818Y015937D02*
X003711Y015937D01*
X003711Y015779D02*
X006676Y015779D01*
X006579Y015620D02*
X003711Y015620D01*
X003711Y015462D02*
X006541Y015462D01*
X006552Y015303D02*
X003711Y015303D01*
X003711Y015145D02*
X006612Y015145D01*
X006746Y014986D02*
X003711Y014986D01*
X003711Y014828D02*
X006725Y014828D01*
X006603Y014669D02*
X003711Y014669D01*
X003711Y014511D02*
X006549Y014511D01*
X006544Y014352D02*
X003711Y014352D01*
X003711Y014194D02*
X006587Y014194D01*
X006693Y014035D02*
X003711Y014035D01*
X003711Y013877D02*
X006790Y013877D01*
X006631Y013718D02*
X003711Y013718D01*
X003711Y013560D02*
X006559Y013560D01*
X007072Y013243D02*
X007109Y013243D01*
X007109Y013084D02*
X007072Y013084D01*
X007072Y012926D02*
X007109Y012926D01*
X007109Y012767D02*
X007072Y012767D01*
X007072Y012609D02*
X007109Y012609D01*
X007109Y012450D02*
X007072Y012450D01*
X007072Y012292D02*
X007109Y012292D01*
X007109Y012133D02*
X007072Y012133D01*
X007072Y011975D02*
X007109Y011975D01*
X007091Y011816D02*
X007091Y011816D01*
X007091Y011658D02*
X007091Y011658D01*
X007091Y011499D02*
X007091Y011499D01*
X007091Y011341D02*
X007091Y011341D01*
X007091Y011182D02*
X007091Y011182D01*
X007091Y011024D02*
X007091Y011024D01*
X007393Y011024D02*
X007661Y011024D01*
X007608Y011182D02*
X007527Y011182D01*
X006788Y011024D02*
X003711Y011024D01*
X003711Y011182D02*
X006654Y011182D01*
X008102Y010390D02*
X008912Y010390D01*
X009071Y010548D02*
X008261Y010548D01*
X008416Y010707D02*
X009257Y010707D01*
X009695Y011182D02*
X010462Y011182D01*
X010459Y011186D02*
X010500Y011131D01*
X010548Y011082D01*
X010604Y011041D01*
X010665Y011010D01*
X010731Y010989D01*
X010799Y010978D01*
X011091Y010978D01*
X011383Y010978D01*
X011451Y010989D01*
X011516Y011010D01*
X011578Y011041D01*
X011633Y011082D01*
X011682Y011131D01*
X011722Y011186D01*
X011754Y011248D01*
X011775Y011313D01*
X011786Y011381D01*
X011786Y011416D01*
X011091Y011416D01*
X011091Y011416D01*
X011091Y011416D01*
X011091Y010978D01*
X011091Y011416D01*
X011091Y011416D01*
X010396Y011416D01*
X010396Y011381D01*
X010407Y011313D01*
X010428Y011248D01*
X010459Y011186D01*
X010402Y011341D02*
X009853Y011341D01*
X010012Y011499D02*
X010404Y011499D01*
X010639Y011024D02*
X008471Y011024D01*
X008471Y010865D02*
X010671Y010865D01*
X011091Y011024D02*
X011091Y011024D01*
X011091Y011182D02*
X011091Y011182D01*
X011091Y011341D02*
X011091Y011341D01*
X011543Y011024D02*
X013002Y011024D01*
X012843Y011182D02*
X011719Y011182D01*
X011779Y011341D02*
X012685Y011341D01*
X012526Y011499D02*
X011778Y011499D01*
X011511Y010865D02*
X013160Y010865D01*
X013319Y010707D02*
X012928Y010707D01*
X012969Y010548D02*
X013371Y010548D01*
X013356Y010390D02*
X012969Y010390D01*
X012969Y010231D02*
X013393Y010231D01*
X013501Y010073D02*
X012911Y010073D01*
X012911Y009914D02*
X015204Y009914D01*
X015031Y009756D02*
X014625Y009756D01*
X014747Y009597D02*
X014929Y009597D01*
X014896Y009439D02*
X014786Y009439D01*
X014091Y009439D02*
X014091Y009439D01*
X014091Y009597D02*
X014091Y009597D01*
X014091Y009756D02*
X014091Y009756D01*
X013557Y009756D02*
X012911Y009756D01*
X012911Y009597D02*
X013435Y009597D01*
X013396Y009439D02*
X012911Y009439D01*
X012911Y009280D02*
X013045Y009280D01*
X013191Y009016D02*
X012891Y008716D01*
X012891Y006016D01*
X013491Y005416D01*
X014091Y005416D01*
X014091Y006416D02*
X013391Y006416D01*
X013191Y006616D01*
X013191Y008616D01*
X012271Y010073D02*
X011681Y010073D01*
X011789Y010231D02*
X012212Y010231D01*
X012212Y010390D02*
X011826Y010390D01*
X011810Y010548D02*
X012212Y010548D01*
X012254Y010707D02*
X011733Y010707D01*
X013013Y011975D02*
X013650Y011975D01*
X013563Y012011D02*
X013738Y011938D01*
X014443Y011938D01*
X014619Y012011D01*
X014644Y012036D01*
X015636Y012036D01*
X015666Y012006D01*
X015630Y012006D01*
X015501Y011877D01*
X015501Y011796D01*
X014644Y011796D01*
X014619Y011820D01*
X014443Y011893D01*
X013738Y011893D01*
X013563Y011820D01*
X013429Y011686D01*
X013391Y011596D01*
X012895Y012092D01*
X012969Y012166D01*
X012969Y012665D01*
X012840Y012794D01*
X012565Y012794D01*
X012211Y013148D01*
X012211Y017679D01*
X012162Y017797D01*
X011771Y018188D01*
X011826Y018321D01*
X011826Y018511D01*
X011753Y018686D01*
X011619Y018820D01*
X011443Y018893D01*
X011411Y018893D01*
X011411Y019060D01*
X011446Y019096D01*
X011854Y019096D01*
X011972Y019144D01*
X012272Y019444D01*
X012362Y019534D01*
X012411Y019652D01*
X012411Y020969D01*
X012478Y020947D01*
X012553Y020936D01*
X012571Y020936D01*
X012571Y021396D01*
X012611Y021396D01*
X012611Y020936D01*
X012629Y020936D01*
X012703Y020947D01*
X012771Y020969D01*
X012771Y017752D01*
X012820Y017634D01*
X013220Y017234D01*
X013310Y017144D01*
X013427Y017096D01*
X013478Y017096D01*
X013563Y017011D01*
X013738Y016938D01*
X014443Y016938D01*
X014619Y017011D01*
X014644Y017036D01*
X015636Y017036D01*
X015756Y016916D01*
X015636Y016796D01*
X014644Y016796D01*
X014619Y016820D01*
X014443Y016893D01*
X013738Y016893D01*
X013563Y016820D01*
X013429Y016686D01*
X013356Y016511D01*
X013356Y016321D01*
X013429Y016145D01*
X013563Y016011D01*
X013738Y015938D01*
X014443Y015938D01*
X014619Y016011D01*
X014644Y016036D01*
X015636Y016036D01*
X015756Y015916D01*
X015636Y015796D01*
X014644Y015796D01*
X014619Y015820D01*
X014443Y015893D01*
X013738Y015893D01*
X013563Y015820D01*
X013429Y015686D01*
X013356Y015511D01*
X013356Y015321D01*
X013429Y015145D01*
X012211Y015145D01*
X012211Y015303D02*
X013363Y015303D01*
X013356Y015462D02*
X012211Y015462D01*
X012211Y015620D02*
X013401Y015620D01*
X013521Y015779D02*
X012211Y015779D01*
X012211Y015937D02*
X015735Y015937D01*
X015729Y016888D02*
X014455Y016888D01*
X013726Y016888D02*
X012211Y016888D01*
X012211Y016730D02*
X013472Y016730D01*
X013381Y016571D02*
X012211Y016571D01*
X012211Y016413D02*
X013356Y016413D01*
X013383Y016254D02*
X012211Y016254D01*
X012211Y016096D02*
X013478Y016096D01*
X013527Y017047D02*
X012211Y017047D01*
X012211Y017205D02*
X013249Y017205D01*
X013090Y017364D02*
X012211Y017364D01*
X012211Y017522D02*
X012932Y017522D01*
X012800Y017681D02*
X012210Y017681D01*
X012120Y017839D02*
X012771Y017839D01*
X012771Y017998D02*
X011961Y017998D01*
X011803Y018156D02*
X012771Y018156D01*
X012771Y018315D02*
X011823Y018315D01*
X011826Y018473D02*
X012771Y018473D01*
X012771Y018632D02*
X011776Y018632D01*
X011649Y018790D02*
X012771Y018790D01*
X012771Y018949D02*
X011411Y018949D01*
X011882Y019107D02*
X012771Y019107D01*
X012771Y019266D02*
X012093Y019266D01*
X012252Y019424D02*
X012771Y019424D01*
X012771Y019583D02*
X012382Y019583D01*
X012411Y019741D02*
X012771Y019741D01*
X012771Y019900D02*
X012411Y019900D01*
X012411Y020058D02*
X012771Y020058D01*
X012771Y020217D02*
X012411Y020217D01*
X012411Y020375D02*
X012771Y020375D01*
X012771Y020534D02*
X012411Y020534D01*
X012411Y020692D02*
X012771Y020692D01*
X012771Y020851D02*
X012411Y020851D01*
X012571Y021009D02*
X012611Y021009D01*
X012611Y021168D02*
X012571Y021168D01*
X012571Y021326D02*
X012611Y021326D01*
X012611Y021485D02*
X012571Y021485D01*
X012571Y021643D02*
X012611Y021643D01*
X012611Y021802D02*
X012571Y021802D01*
X012377Y021960D02*
X012804Y021960D01*
X012941Y022119D02*
X012240Y022119D01*
X012082Y022277D02*
X013100Y022277D01*
X014051Y021168D02*
X014071Y021168D01*
X014086Y021009D02*
X013920Y021009D01*
X013911Y020851D02*
X016307Y020851D01*
X016241Y020692D02*
X013911Y020692D01*
X013911Y020534D02*
X016221Y020534D01*
X016235Y020375D02*
X013911Y020375D01*
X013911Y020217D02*
X016300Y020217D01*
X016181Y020058D02*
X013911Y020058D01*
X013911Y019900D02*
X016022Y019900D01*
X015864Y019741D02*
X014441Y019741D01*
X015095Y021009D02*
X016460Y021009D01*
X017162Y021009D02*
X019020Y021009D01*
X019037Y021026D02*
X018871Y020860D01*
X018781Y020643D01*
X018781Y020408D01*
X018871Y020191D01*
X019037Y020025D01*
X019253Y019936D01*
X019488Y019936D01*
X019705Y020025D01*
X019871Y020191D01*
X019961Y020408D01*
X019961Y020643D01*
X019871Y020860D01*
X019705Y021026D01*
X019488Y021116D01*
X019253Y021116D01*
X019037Y021026D01*
X018867Y020851D02*
X017315Y020851D01*
X017380Y020692D02*
X018801Y020692D01*
X018781Y020534D02*
X017401Y020534D01*
X017387Y020375D02*
X018795Y020375D01*
X018860Y020217D02*
X017321Y020217D01*
X017178Y020058D02*
X019004Y020058D01*
X019738Y020058D02*
X022056Y020058D01*
X022056Y019900D02*
X016927Y019900D01*
X017441Y019741D02*
X022056Y019741D01*
X022056Y019583D02*
X017538Y019583D01*
X017568Y019424D02*
X021388Y019424D01*
X021371Y019266D02*
X017546Y019266D01*
X017471Y019120D02*
X017471Y018870D01*
X017591Y018750D01*
X017615Y018693D01*
X017620Y018704D01*
X017671Y018774D01*
X017733Y018835D01*
X017803Y018886D01*
X017880Y018925D01*
X017962Y018952D01*
X018048Y018966D01*
X018072Y018966D01*
X018072Y018434D01*
X018109Y018434D01*
X018109Y018966D01*
X018134Y018966D01*
X018220Y018952D01*
X018302Y018925D01*
X018379Y018886D01*
X018449Y018835D01*
X018510Y018774D01*
X018561Y018704D01*
X018601Y018627D01*
X018627Y018544D01*
X018641Y018459D01*
X018641Y018434D01*
X018109Y018434D01*
X018109Y018397D01*
X018109Y017866D01*
X018109Y017434D01*
X018072Y017434D01*
X018072Y018397D01*
X018109Y018397D01*
X018641Y018397D01*
X018641Y018372D01*
X018627Y018287D01*
X018601Y018204D01*
X018561Y018127D01*
X018510Y018057D01*
X018449Y017996D01*
X018379Y017945D01*
X018321Y017916D01*
X018379Y017886D01*
X018449Y017835D01*
X018510Y017774D01*
X018561Y017704D01*
X018601Y017627D01*
X018627Y017544D01*
X018641Y017459D01*
X018641Y017434D01*
X018109Y017434D01*
X018109Y017397D01*
X018109Y016866D01*
X018109Y016434D01*
X018072Y016434D01*
X018072Y017397D01*
X018109Y017397D01*
X018641Y017397D01*
X018641Y017372D01*
X018627Y017287D01*
X018601Y017204D01*
X018561Y017127D01*
X018510Y017057D01*
X018449Y016996D01*
X018379Y016945D01*
X018321Y016916D01*
X018379Y016886D01*
X018449Y016835D01*
X018510Y016774D01*
X018561Y016704D01*
X018601Y016627D01*
X018627Y016544D01*
X018641Y016459D01*
X018641Y016434D01*
X018109Y016434D01*
X018109Y016397D01*
X018109Y015866D01*
X018109Y015434D01*
X018072Y015434D01*
X018072Y016397D01*
X018109Y016397D01*
X018641Y016397D01*
X018641Y016372D01*
X018627Y016287D01*
X018601Y016204D01*
X018561Y016127D01*
X018510Y016057D01*
X018449Y015996D01*
X018379Y015945D01*
X018321Y015916D01*
X018379Y015886D01*
X018449Y015835D01*
X018510Y015774D01*
X018561Y015704D01*
X018601Y015627D01*
X018627Y015544D01*
X018641Y015459D01*
X018641Y015434D01*
X018109Y015434D01*
X018109Y015397D01*
X018109Y014866D01*
X018109Y014434D01*
X018072Y014434D01*
X018072Y015397D01*
X018109Y015397D01*
X018641Y015397D01*
X018641Y015372D01*
X018627Y015287D01*
X018601Y015204D01*
X018561Y015127D01*
X018510Y015057D01*
X018449Y014996D01*
X018379Y014945D01*
X018321Y014916D01*
X018379Y014886D01*
X018449Y014835D01*
X018510Y014774D01*
X018561Y014704D01*
X018601Y014627D01*
X018627Y014544D01*
X018641Y014459D01*
X018641Y014434D01*
X018109Y014434D01*
X018109Y014397D01*
X018109Y013966D01*
X018109Y013434D01*
X018072Y013434D01*
X018072Y014397D01*
X018109Y014397D01*
X018641Y014397D01*
X018641Y014372D01*
X018627Y014287D01*
X018601Y014204D01*
X018561Y014127D01*
X018510Y014057D01*
X018449Y013996D01*
X018379Y013945D01*
X018321Y013916D01*
X018379Y013886D01*
X018449Y013835D01*
X018510Y013774D01*
X018561Y013704D01*
X018601Y013627D01*
X018627Y013544D01*
X018641Y013459D01*
X018641Y013434D01*
X018109Y013434D01*
X018109Y013397D01*
X018109Y012866D01*
X018109Y012434D01*
X018072Y012434D01*
X018072Y013397D01*
X018109Y013397D01*
X018641Y013397D01*
X018641Y013372D01*
X018627Y013287D01*
X018601Y013204D01*
X018561Y013127D01*
X018510Y013057D01*
X018449Y012996D01*
X018379Y012945D01*
X018321Y012916D01*
X018379Y012886D01*
X018449Y012835D01*
X018510Y012774D01*
X018561Y012704D01*
X018601Y012627D01*
X018627Y012544D01*
X018641Y012459D01*
X018641Y012434D01*
X018109Y012434D01*
X018109Y012397D01*
X018109Y011866D01*
X018109Y011434D01*
X018072Y011434D01*
X018072Y012397D01*
X018109Y012397D01*
X018641Y012397D01*
X018641Y012372D01*
X018627Y012287D01*
X018601Y012204D01*
X018561Y012127D01*
X018510Y012057D01*
X018449Y011996D01*
X018407Y011966D01*
X018485Y011966D01*
X018530Y011953D01*
X018571Y011930D01*
X018605Y011896D01*
X018629Y011855D01*
X018641Y011809D01*
X018641Y011434D01*
X018109Y011434D01*
X018109Y011397D01*
X018109Y010866D01*
X018485Y010866D01*
X018530Y010878D01*
X018571Y010902D01*
X018605Y010935D01*
X018629Y010976D01*
X018641Y011022D01*
X018641Y011397D01*
X018109Y011397D01*
X018072Y011397D01*
X018072Y010866D01*
X017697Y010866D01*
X017651Y010878D01*
X017621Y010895D01*
X017552Y010826D01*
X017465Y010826D01*
X017413Y010700D01*
X017306Y010593D01*
X016971Y010258D01*
X016971Y010073D01*
X017093Y009951D01*
X018212Y009951D01*
X018341Y009822D01*
X018341Y009566D01*
X019234Y009566D01*
X019238Y009564D01*
X019911Y009564D01*
X019994Y009481D01*
X019994Y009561D01*
X020054Y009707D01*
X020166Y009818D01*
X020312Y009879D01*
X020470Y009879D01*
X020616Y009818D01*
X020728Y009707D01*
X020788Y009561D01*
X020788Y009403D01*
X020728Y009257D01*
X020616Y009145D01*
X020470Y009085D01*
X020312Y009085D01*
X020166Y009145D01*
X020054Y009257D01*
X020040Y009291D01*
X020040Y008111D01*
X020000Y008071D01*
X020000Y007986D01*
X019915Y007986D01*
X019915Y007986D01*
X020000Y007986D01*
X020000Y007864D01*
X019988Y007818D01*
X019964Y007777D01*
X019930Y007743D01*
X019889Y007720D01*
X019844Y007707D01*
X019170Y007707D01*
X019170Y007982D01*
X019170Y007982D01*
X019170Y007707D01*
X018497Y007707D01*
X018451Y007720D01*
X018410Y007743D01*
X018377Y007777D01*
X018353Y007818D01*
X018341Y007864D01*
X018341Y007986D01*
X018426Y007986D01*
X018426Y007986D01*
X018341Y007986D01*
X018341Y008071D01*
X018301Y008111D01*
X018301Y008296D01*
X015563Y008296D01*
X018959Y004900D01*
X018973Y004906D01*
X019208Y004906D01*
X019425Y004816D01*
X019591Y004650D01*
X019681Y004433D01*
X019681Y004198D01*
X019591Y003981D01*
X019425Y003815D01*
X019208Y003726D01*
X018973Y003726D01*
X018757Y003815D01*
X018591Y003981D01*
X018425Y003815D01*
X018208Y003726D01*
X017973Y003726D01*
X017757Y003815D01*
X017591Y003981D01*
X017425Y003815D01*
X017208Y003726D01*
X016973Y003726D01*
X016757Y003815D01*
X016591Y003981D01*
X016425Y003815D01*
X016208Y003726D01*
X015973Y003726D01*
X015757Y003815D01*
X015591Y003981D01*
X015567Y004039D01*
X015561Y004027D01*
X015510Y003957D01*
X015449Y003896D01*
X015379Y003845D01*
X015302Y003806D01*
X015220Y003779D01*
X015134Y003766D01*
X015109Y003766D01*
X015109Y004297D01*
X015072Y004297D01*
X015072Y003766D01*
X015048Y003766D01*
X014962Y003779D01*
X014880Y003806D01*
X014803Y003845D01*
X014733Y003896D01*
X014671Y003957D01*
X014620Y004027D01*
X014581Y004104D01*
X014554Y004187D01*
X014553Y004196D01*
X013579Y004196D01*
X013586Y004155D01*
X013586Y004116D01*
X013091Y004116D01*
X013091Y004116D01*
X013586Y004116D01*
X013586Y004077D01*
X013574Y004000D01*
X013550Y003926D01*
X013514Y003856D01*
X013468Y003793D01*
X013413Y003738D01*
X013350Y003692D01*
X013281Y003657D01*
X013215Y003636D01*
X020701Y003636D01*
X020878Y003647D01*
X021220Y003739D01*
X021526Y003916D01*
X021776Y004166D01*
X021953Y004472D01*
X022044Y004814D01*
X022056Y004990D01*
X022056Y006290D01*
X021652Y006290D01*
X021652Y006784D01*
X022056Y006784D01*
X022056Y006944D01*
X021652Y006944D01*
X021492Y006944D01*
X021492Y007437D01*
X021056Y007437D01*
X021010Y007425D01*
X020969Y007401D01*
X020936Y007368D01*
X020912Y007327D01*
X020900Y007281D01*
X020900Y006944D01*
X021492Y006944D01*
X021492Y006784D01*
X020900Y006784D01*
X020900Y006446D01*
X020912Y006400D01*
X020936Y006359D01*
X020969Y006326D01*
X021010Y006302D01*
X021056Y006290D01*
X021492Y006290D01*
X021492Y006784D01*
X021652Y006784D01*
X021652Y006944D01*
X021652Y007437D01*
X022056Y007437D01*
X022056Y009794D01*
X021652Y009794D01*
X021652Y010288D01*
X021492Y010288D01*
X020900Y010288D01*
X020900Y009950D01*
X020912Y009904D01*
X020936Y009863D01*
X020969Y009830D01*
X021010Y009806D01*
X021056Y009794D01*
X021492Y009794D01*
X021492Y010288D01*
X021492Y010448D01*
X021492Y010941D01*
X021056Y010941D01*
X021010Y010929D01*
X020969Y010905D01*
X020936Y010872D01*
X020912Y010831D01*
X020900Y010785D01*
X020900Y010448D01*
X021492Y010448D01*
X021652Y010448D01*
X021652Y010941D01*
X022056Y010941D01*
X022056Y015996D01*
X021500Y015996D01*
X021371Y016124D01*
X021371Y016296D01*
X021000Y016296D01*
X020871Y016424D01*
X020871Y019107D01*
X020871Y018949D02*
X018230Y018949D01*
X018109Y018949D02*
X018072Y018949D01*
X017951Y018949D02*
X017471Y018949D01*
X017551Y018790D02*
X017688Y018790D01*
X018072Y018790D02*
X018109Y018790D01*
X018109Y018632D02*
X018072Y018632D01*
X018072Y018473D02*
X018109Y018473D01*
X018109Y018315D02*
X018072Y018315D01*
X018072Y018156D02*
X018109Y018156D01*
X018109Y017998D02*
X018072Y017998D01*
X018072Y017839D02*
X018109Y017839D01*
X018109Y017681D02*
X018072Y017681D01*
X018072Y017522D02*
X018109Y017522D01*
X018109Y017364D02*
X018072Y017364D01*
X018072Y017205D02*
X018109Y017205D01*
X018109Y017047D02*
X018072Y017047D01*
X018072Y016888D02*
X018109Y016888D01*
X018109Y016730D02*
X018072Y016730D01*
X018072Y016571D02*
X018109Y016571D01*
X018109Y016413D02*
X020883Y016413D01*
X020871Y016571D02*
X018619Y016571D01*
X018543Y016730D02*
X020871Y016730D01*
X020871Y016888D02*
X018375Y016888D01*
X018500Y017047D02*
X020871Y017047D01*
X020871Y017205D02*
X018601Y017205D01*
X018639Y017364D02*
X020871Y017364D01*
X020871Y017522D02*
X018631Y017522D01*
X018573Y017681D02*
X020871Y017681D01*
X020871Y017839D02*
X018444Y017839D01*
X018451Y017998D02*
X020871Y017998D01*
X020871Y018156D02*
X018576Y018156D01*
X018632Y018315D02*
X020871Y018315D01*
X020871Y018473D02*
X018639Y018473D01*
X018598Y018632D02*
X020871Y018632D01*
X020871Y018790D02*
X018494Y018790D01*
X019881Y020217D02*
X022056Y020217D01*
X022056Y020375D02*
X019947Y020375D01*
X019961Y020534D02*
X022056Y020534D01*
X022056Y020692D02*
X020909Y020692D01*
X020870Y020676D02*
X021182Y020805D01*
X021422Y021044D01*
X021551Y021357D01*
X021551Y021695D01*
X021422Y022007D01*
X021182Y022246D01*
X020870Y022376D01*
X020532Y022376D01*
X020220Y022246D01*
X019981Y022007D01*
X019851Y021695D01*
X019851Y021357D01*
X019981Y021044D01*
X020220Y020805D01*
X020532Y020676D01*
X020870Y020676D01*
X020493Y020692D02*
X019940Y020692D01*
X019875Y020851D02*
X020174Y020851D01*
X020016Y021009D02*
X019722Y021009D01*
X019929Y021168D02*
X015111Y021168D01*
X015111Y021326D02*
X019864Y021326D01*
X019851Y021485D02*
X015111Y021485D01*
X015111Y021643D02*
X019851Y021643D01*
X019895Y021802D02*
X019593Y021802D01*
X019582Y021796D02*
X019659Y021835D01*
X019729Y021886D01*
X019790Y021947D01*
X019841Y022017D01*
X019881Y022094D01*
X019907Y022177D01*
X019921Y022262D01*
X019921Y022287D01*
X019389Y022287D01*
X019389Y021756D01*
X019414Y021756D01*
X019500Y021769D01*
X019582Y021796D01*
X019389Y021802D02*
X019352Y021802D01*
X019352Y021756D02*
X019352Y022287D01*
X018821Y022287D01*
X018821Y022262D01*
X018834Y022177D01*
X018861Y022094D01*
X018900Y022017D01*
X018951Y021947D01*
X019013Y021886D01*
X019083Y021835D01*
X019160Y021796D01*
X019242Y021769D01*
X019328Y021756D01*
X019352Y021756D01*
X019352Y021960D02*
X019389Y021960D01*
X019389Y022119D02*
X019352Y022119D01*
X019352Y022277D02*
X019389Y022277D01*
X019389Y022287D02*
X019352Y022287D01*
X019352Y022324D01*
X018821Y022324D01*
X018821Y022349D01*
X018834Y022434D01*
X018861Y022517D01*
X018900Y022594D01*
X018951Y022664D01*
X019013Y022725D01*
X019083Y022776D01*
X019160Y022815D01*
X019242Y022842D01*
X019328Y022856D01*
X019352Y022856D01*
X019352Y022324D01*
X019389Y022324D01*
X019389Y022856D01*
X019414Y022856D01*
X019500Y022842D01*
X019582Y022815D01*
X019659Y022776D01*
X019729Y022725D01*
X019790Y022664D01*
X019841Y022594D01*
X021532Y022594D01*
X021691Y022436D02*
X019907Y022436D01*
X019907Y022434D02*
X019881Y022517D01*
X019841Y022594D01*
X019907Y022434D02*
X019921Y022349D01*
X019921Y022324D01*
X019389Y022324D01*
X019389Y022287D01*
X019389Y022436D02*
X019352Y022436D01*
X019352Y022594D02*
X019389Y022594D01*
X019389Y022753D02*
X019352Y022753D01*
X019050Y022753D02*
X017131Y022753D01*
X017099Y022776D02*
X017022Y022815D01*
X016940Y022842D01*
X016854Y022856D01*
X016829Y022856D01*
X016829Y022324D01*
X016792Y022324D01*
X016792Y022287D01*
X016261Y022287D01*
X016261Y022262D01*
X016274Y022177D01*
X016301Y022094D01*
X016340Y022017D01*
X016391Y021947D01*
X016453Y021886D01*
X016523Y021835D01*
X016600Y021796D01*
X016682Y021769D01*
X016768Y021756D01*
X016792Y021756D01*
X016792Y022287D01*
X016829Y022287D01*
X016829Y021756D01*
X016854Y021756D01*
X016940Y021769D01*
X017022Y021796D01*
X017099Y021835D01*
X017169Y021886D01*
X017230Y021947D01*
X017281Y022017D01*
X017321Y022094D01*
X017347Y022177D01*
X017361Y022262D01*
X017361Y022287D01*
X016829Y022287D01*
X016829Y022324D01*
X017361Y022324D01*
X017361Y022349D01*
X017347Y022434D01*
X017321Y022517D01*
X017281Y022594D01*
X018901Y022594D01*
X018835Y022436D02*
X017347Y022436D01*
X017361Y022277D02*
X018821Y022277D01*
X018853Y022119D02*
X017328Y022119D01*
X017240Y021960D02*
X018942Y021960D01*
X019148Y021802D02*
X017033Y021802D01*
X016829Y021802D02*
X016792Y021802D01*
X016792Y021960D02*
X016829Y021960D01*
X016829Y022119D02*
X016792Y022119D01*
X016792Y022277D02*
X016829Y022277D01*
X016792Y022324D02*
X016261Y022324D01*
X016261Y022349D01*
X016274Y022434D01*
X016301Y022517D01*
X016340Y022594D01*
X016391Y022664D01*
X016453Y022725D01*
X016523Y022776D01*
X016600Y022815D01*
X016682Y022842D01*
X016768Y022856D01*
X016792Y022856D01*
X016792Y022324D01*
X016792Y022436D02*
X016829Y022436D01*
X016829Y022594D02*
X016792Y022594D01*
X016792Y022753D02*
X016829Y022753D01*
X017099Y022776D02*
X017169Y022725D01*
X017230Y022664D01*
X017281Y022594D01*
X016490Y022753D02*
X008691Y022753D01*
X008659Y022776D02*
X008582Y022815D01*
X008500Y022842D01*
X008414Y022856D01*
X008389Y022856D01*
X008389Y022324D01*
X008352Y022324D01*
X008352Y022287D01*
X007821Y022287D01*
X007821Y022262D01*
X007834Y022177D01*
X007861Y022094D01*
X007900Y022017D01*
X007951Y021947D01*
X008013Y021886D01*
X008083Y021835D01*
X008160Y021796D01*
X008242Y021769D01*
X008328Y021756D01*
X008352Y021756D01*
X008352Y022287D01*
X008389Y022287D01*
X008389Y021756D01*
X008414Y021756D01*
X008500Y021769D01*
X008582Y021796D01*
X008659Y021835D01*
X008729Y021886D01*
X008790Y021947D01*
X008841Y022017D01*
X008881Y022094D01*
X008907Y022177D01*
X008921Y022262D01*
X008921Y022287D01*
X008389Y022287D01*
X008389Y022324D01*
X008921Y022324D01*
X008921Y022349D01*
X008907Y022434D01*
X008881Y022517D01*
X008841Y022594D01*
X016341Y022594D01*
X016275Y022436D02*
X010907Y022436D01*
X010675Y022436D02*
X008907Y022436D01*
X008921Y022277D02*
X010472Y022277D01*
X010313Y022119D02*
X008888Y022119D01*
X008800Y021960D02*
X010251Y021960D01*
X010071Y021802D02*
X008593Y021802D01*
X008389Y021802D02*
X008352Y021802D01*
X008352Y021960D02*
X008389Y021960D01*
X008389Y022119D02*
X008352Y022119D01*
X008352Y022277D02*
X008389Y022277D01*
X008352Y022324D02*
X007821Y022324D01*
X007821Y022349D01*
X007834Y022434D01*
X007861Y022517D01*
X007900Y022594D01*
X007951Y022664D01*
X008013Y022725D01*
X008083Y022776D01*
X008160Y022815D01*
X008242Y022842D01*
X008328Y022856D01*
X008352Y022856D01*
X008352Y022324D01*
X008352Y022436D02*
X008389Y022436D01*
X008389Y022594D02*
X008352Y022594D01*
X008352Y022753D02*
X008389Y022753D01*
X008659Y022776D02*
X008729Y022725D01*
X008790Y022664D01*
X008841Y022594D01*
X008050Y022753D02*
X006131Y022753D01*
X006099Y022776D02*
X006022Y022815D01*
X005940Y022842D01*
X005854Y022856D01*
X005829Y022856D01*
X005829Y022324D01*
X005792Y022324D01*
X005792Y022287D01*
X005261Y022287D01*
X005261Y022262D01*
X005274Y022177D01*
X005301Y022094D01*
X005340Y022017D01*
X005391Y021947D01*
X005453Y021886D01*
X005523Y021835D01*
X005600Y021796D01*
X005682Y021769D01*
X005768Y021756D01*
X005792Y021756D01*
X005792Y022287D01*
X005829Y022287D01*
X005829Y021756D01*
X005854Y021756D01*
X005940Y021769D01*
X006022Y021796D01*
X006099Y021835D01*
X006169Y021886D01*
X006230Y021947D01*
X006281Y022017D01*
X006321Y022094D01*
X006347Y022177D01*
X006361Y022262D01*
X006361Y022287D01*
X005829Y022287D01*
X005829Y022324D01*
X006361Y022324D01*
X006361Y022349D01*
X006347Y022434D01*
X006321Y022517D01*
X006281Y022594D01*
X007901Y022594D01*
X007835Y022436D02*
X006347Y022436D01*
X006361Y022277D02*
X007821Y022277D01*
X007853Y022119D02*
X006328Y022119D01*
X006240Y021960D02*
X007942Y021960D01*
X008148Y021802D02*
X006033Y021802D01*
X005829Y021802D02*
X005792Y021802D01*
X005792Y021960D02*
X005829Y021960D01*
X005829Y022119D02*
X005792Y022119D01*
X005792Y022277D02*
X005829Y022277D01*
X005792Y022324D02*
X005261Y022324D01*
X005261Y022349D01*
X005274Y022434D01*
X005301Y022517D01*
X005340Y022594D01*
X005391Y022664D01*
X005453Y022725D01*
X005523Y022776D01*
X005600Y022815D01*
X005682Y022842D01*
X005768Y022856D01*
X005792Y022856D01*
X005792Y022324D01*
X005792Y022436D02*
X005829Y022436D01*
X005829Y022594D02*
X005792Y022594D01*
X005792Y022753D02*
X005829Y022753D01*
X006099Y022776D02*
X006169Y022725D01*
X006230Y022664D01*
X006281Y022594D01*
X005490Y022753D02*
X003604Y022753D01*
X003334Y022594D02*
X005341Y022594D01*
X005275Y022436D02*
X003176Y022436D01*
X003048Y022277D02*
X003758Y022277D01*
X003684Y022246D02*
X003997Y022376D01*
X004335Y022376D01*
X004647Y022246D01*
X004886Y022007D01*
X005016Y021695D01*
X005016Y021357D01*
X004886Y021044D01*
X004647Y020805D01*
X004335Y020676D01*
X003997Y020676D01*
X003684Y020805D01*
X003445Y021044D01*
X003316Y021357D01*
X003316Y021695D01*
X003445Y022007D01*
X003684Y022246D01*
X003556Y022119D02*
X002957Y022119D01*
X002891Y021960D02*
X003426Y021960D01*
X003360Y021802D02*
X002849Y021802D01*
X002818Y021643D02*
X003316Y021643D01*
X003316Y021485D02*
X002811Y021485D01*
X002811Y021326D02*
X003328Y021326D01*
X003394Y021168D02*
X002811Y021168D01*
X002811Y021009D02*
X003480Y021009D01*
X003639Y020851D02*
X002811Y020851D01*
X002811Y020692D02*
X003957Y020692D01*
X004374Y020692D02*
X005241Y020692D01*
X005221Y020643D02*
X005221Y020408D01*
X005311Y020191D01*
X005477Y020025D01*
X005693Y019936D01*
X005928Y019936D01*
X006145Y020025D01*
X006311Y020191D01*
X006401Y020408D01*
X006401Y020643D01*
X006311Y020860D01*
X006145Y021026D01*
X005928Y021116D01*
X005693Y021116D01*
X005477Y021026D01*
X005311Y020860D01*
X005221Y020643D01*
X005221Y020534D02*
X002811Y020534D01*
X002811Y020375D02*
X005235Y020375D01*
X005300Y020217D02*
X002811Y020217D01*
X003659Y020058D02*
X005444Y020058D01*
X006178Y020058D02*
X008004Y020058D01*
X007860Y020217D02*
X006321Y020217D01*
X006387Y020375D02*
X007795Y020375D01*
X007781Y020534D02*
X006401Y020534D01*
X006380Y020692D02*
X007801Y020692D01*
X007867Y020851D02*
X006315Y020851D01*
X006162Y021009D02*
X008020Y021009D01*
X008560Y021168D02*
X004937Y021168D01*
X005003Y021326D02*
X008719Y021326D01*
X008877Y021485D02*
X005016Y021485D01*
X005016Y021643D02*
X009036Y021643D01*
X009307Y021009D02*
X010086Y021009D01*
X009636Y020534D02*
X010671Y020534D01*
X010513Y020375D02*
X009687Y020375D01*
X009686Y020217D02*
X010354Y020217D01*
X010196Y020058D02*
X009620Y020058D01*
X009530Y019900D02*
X010037Y019900D01*
X009879Y019741D02*
X009530Y019741D01*
X009493Y019583D02*
X009720Y019583D01*
X009562Y019424D02*
X009352Y019424D01*
X009403Y019266D02*
X009193Y019266D01*
X009245Y019107D02*
X008982Y019107D01*
X008764Y019741D02*
X008441Y019741D01*
X008738Y020058D02*
X008800Y020058D01*
X008890Y019900D02*
X003711Y019900D01*
X003711Y019741D02*
X007741Y019741D01*
X007643Y019583D02*
X003711Y019583D01*
X004692Y020851D02*
X005307Y020851D01*
X005460Y021009D02*
X004851Y021009D01*
X004971Y021802D02*
X005588Y021802D01*
X005382Y021960D02*
X004906Y021960D01*
X004775Y022119D02*
X005293Y022119D01*
X005261Y022277D02*
X004573Y022277D01*
X004991Y019266D02*
X004991Y019266D01*
X004991Y019107D02*
X004991Y019107D01*
X004991Y018949D02*
X004991Y018949D01*
X004991Y018790D02*
X004991Y018790D01*
X004991Y018632D02*
X004991Y018632D01*
X004991Y018473D02*
X004991Y018473D01*
X005348Y018473D02*
X005577Y018473D01*
X005488Y018632D02*
X005451Y018632D01*
X005391Y019107D02*
X005533Y019107D01*
X005684Y019266D02*
X005198Y019266D01*
X009148Y020851D02*
X011211Y020851D01*
X011211Y021009D02*
X011095Y021009D01*
X011111Y021168D02*
X011131Y021168D01*
X010907Y020692D02*
X009508Y020692D01*
X014482Y022277D02*
X016261Y022277D01*
X016293Y022119D02*
X014640Y022119D01*
X014799Y021960D02*
X016382Y021960D01*
X016588Y021802D02*
X015111Y021802D01*
X019691Y022753D02*
X021263Y022753D01*
X021108Y022277D02*
X021818Y022277D01*
X021910Y022119D02*
X021310Y022119D01*
X021441Y021960D02*
X021975Y021960D01*
X022018Y021802D02*
X021507Y021802D01*
X021551Y021643D02*
X022048Y021643D01*
X022056Y021485D02*
X021551Y021485D01*
X021538Y021326D02*
X022056Y021326D01*
X022056Y021168D02*
X021473Y021168D01*
X021386Y021009D02*
X022056Y021009D01*
X022056Y020851D02*
X021228Y020851D01*
X019961Y021960D02*
X019800Y021960D01*
X019888Y022119D02*
X020092Y022119D01*
X019921Y022277D02*
X020294Y022277D01*
X021371Y016254D02*
X018617Y016254D01*
X018538Y016096D02*
X021400Y016096D01*
X022056Y015937D02*
X018363Y015937D01*
X018506Y015779D02*
X022056Y015779D01*
X022056Y015620D02*
X018603Y015620D01*
X018640Y015462D02*
X022056Y015462D01*
X022056Y015303D02*
X018630Y015303D01*
X018570Y015145D02*
X022056Y015145D01*
X022056Y014986D02*
X018435Y014986D01*
X018457Y014828D02*
X022056Y014828D01*
X022056Y014669D02*
X018579Y014669D01*
X018633Y014511D02*
X022056Y014511D01*
X022056Y014352D02*
X018638Y014352D01*
X018595Y014194D02*
X022056Y014194D01*
X022056Y014035D02*
X018488Y014035D01*
X018392Y013877D02*
X022056Y013877D01*
X022056Y013718D02*
X018551Y013718D01*
X018622Y013560D02*
X022056Y013560D01*
X022056Y013401D02*
X018109Y013401D01*
X018109Y013243D02*
X018072Y013243D01*
X018072Y013084D02*
X018109Y013084D01*
X018109Y012926D02*
X018072Y012926D01*
X018072Y012767D02*
X018109Y012767D01*
X018109Y012609D02*
X018072Y012609D01*
X018072Y012450D02*
X018109Y012450D01*
X018109Y012292D02*
X018072Y012292D01*
X018072Y012133D02*
X018109Y012133D01*
X018109Y011975D02*
X018072Y011975D01*
X018072Y011816D02*
X018109Y011816D01*
X018109Y011658D02*
X018072Y011658D01*
X018072Y011499D02*
X018109Y011499D01*
X018109Y011341D02*
X018072Y011341D01*
X018072Y011182D02*
X018109Y011182D01*
X018109Y011024D02*
X018072Y011024D01*
X017591Y010865D02*
X018767Y010865D01*
X018770Y010872D02*
X018747Y010831D01*
X018734Y010785D01*
X018734Y010448D01*
X019327Y010448D01*
X019327Y010941D01*
X018891Y010941D01*
X018845Y010929D01*
X018804Y010905D01*
X018770Y010872D01*
X018734Y010707D02*
X017416Y010707D01*
X017261Y010548D02*
X018734Y010548D01*
X018734Y010288D02*
X018734Y009950D01*
X018747Y009904D01*
X018770Y009863D01*
X018804Y009830D01*
X018845Y009806D01*
X018891Y009794D01*
X019327Y009794D01*
X019327Y010288D01*
X019487Y010288D01*
X019487Y010448D01*
X020079Y010448D01*
X020079Y010785D01*
X020066Y010831D01*
X020043Y010872D01*
X020009Y010905D01*
X019968Y010929D01*
X019922Y010941D01*
X019487Y010941D01*
X019487Y010448D01*
X019327Y010448D01*
X019327Y010288D01*
X018734Y010288D01*
X018734Y010231D02*
X016971Y010231D01*
X016971Y010073D02*
X018734Y010073D01*
X018744Y009914D02*
X018248Y009914D01*
X018341Y009756D02*
X020103Y009756D01*
X020009Y009830D02*
X020043Y009863D01*
X020066Y009904D01*
X020079Y009950D01*
X020079Y010288D01*
X019487Y010288D01*
X019487Y009794D01*
X019922Y009794D01*
X019968Y009806D01*
X020009Y009830D01*
X020069Y009914D02*
X020909Y009914D01*
X020900Y010073D02*
X020079Y010073D01*
X020079Y010231D02*
X020900Y010231D01*
X020900Y010548D02*
X020079Y010548D01*
X020079Y010707D02*
X020900Y010707D01*
X020932Y010865D02*
X020047Y010865D01*
X019487Y010865D02*
X019327Y010865D01*
X019327Y010707D02*
X019487Y010707D01*
X019487Y010548D02*
X019327Y010548D01*
X019327Y010390D02*
X017102Y010390D01*
X016211Y009914D02*
X015578Y009914D01*
X015751Y009756D02*
X016246Y009756D01*
X016372Y009597D02*
X015852Y009597D01*
X015886Y009439D02*
X016530Y009439D01*
X016689Y009280D02*
X015867Y009280D01*
X015688Y008171D02*
X018301Y008171D01*
X018341Y008012D02*
X015847Y008012D01*
X016005Y007854D02*
X018343Y007854D01*
X018804Y007401D02*
X018770Y007368D01*
X018747Y007327D01*
X018734Y007281D01*
X018734Y006944D01*
X019327Y006944D01*
X019327Y007437D01*
X018891Y007437D01*
X018845Y007425D01*
X018804Y007401D01*
X018781Y007378D02*
X016481Y007378D01*
X016639Y007220D02*
X018734Y007220D01*
X018734Y007061D02*
X016798Y007061D01*
X016956Y006903D02*
X019327Y006903D01*
X019327Y006944D02*
X019327Y006784D01*
X019487Y006784D01*
X019487Y006944D01*
X020079Y006944D01*
X020079Y007281D01*
X020066Y007327D01*
X020043Y007368D01*
X020009Y007401D01*
X019968Y007425D01*
X019922Y007437D01*
X019487Y007437D01*
X019487Y006944D01*
X019327Y006944D01*
X019327Y007061D02*
X019487Y007061D01*
X019487Y006903D02*
X021492Y006903D01*
X021492Y007061D02*
X021652Y007061D01*
X021652Y006903D02*
X022056Y006903D01*
X021652Y006744D02*
X021492Y006744D01*
X021492Y006586D02*
X021652Y006586D01*
X021652Y006427D02*
X021492Y006427D01*
X022056Y006269D02*
X017590Y006269D01*
X017432Y006427D02*
X018740Y006427D01*
X018734Y006446D02*
X018747Y006400D01*
X018770Y006359D01*
X018804Y006326D01*
X018845Y006302D01*
X018891Y006290D01*
X019327Y006290D01*
X019327Y006784D01*
X018734Y006784D01*
X018734Y006446D01*
X018734Y006586D02*
X017273Y006586D01*
X017115Y006744D02*
X018734Y006744D01*
X019327Y006744D02*
X019487Y006744D01*
X019487Y006784D02*
X019487Y006290D01*
X019922Y006290D01*
X019968Y006302D01*
X020009Y006326D01*
X020043Y006359D01*
X020066Y006400D01*
X020079Y006446D01*
X020079Y006784D01*
X019487Y006784D01*
X019487Y006586D02*
X019327Y006586D01*
X019327Y006427D02*
X019487Y006427D01*
X020074Y006427D02*
X020905Y006427D01*
X020900Y006586D02*
X020079Y006586D01*
X020079Y006744D02*
X020900Y006744D01*
X020900Y007061D02*
X020079Y007061D01*
X020079Y007220D02*
X020900Y007220D01*
X020946Y007378D02*
X020532Y007378D01*
X020470Y007352D02*
X020616Y007413D01*
X020728Y007524D01*
X020788Y007670D01*
X020788Y007828D01*
X020728Y007974D01*
X020616Y008086D01*
X020470Y008147D01*
X020312Y008147D01*
X020166Y008086D01*
X020054Y007974D01*
X019994Y007828D01*
X019994Y007670D01*
X020054Y007524D01*
X020166Y007413D01*
X020312Y007352D01*
X020470Y007352D01*
X020249Y007378D02*
X020032Y007378D01*
X020049Y007537D02*
X016322Y007537D01*
X016164Y007695D02*
X019994Y007695D01*
X019997Y007854D02*
X020004Y007854D01*
X020000Y008012D02*
X020092Y008012D01*
X020040Y008171D02*
X022056Y008171D01*
X022056Y008329D02*
X020040Y008329D01*
X020040Y008488D02*
X022056Y008488D01*
X022056Y008646D02*
X020040Y008646D01*
X020040Y008805D02*
X022056Y008805D01*
X022056Y008963D02*
X020040Y008963D01*
X020040Y009122D02*
X020222Y009122D01*
X020044Y009280D02*
X020040Y009280D01*
X020009Y009597D02*
X018341Y009597D01*
X019327Y009914D02*
X019487Y009914D01*
X019487Y010073D02*
X019327Y010073D01*
X019327Y010231D02*
X019487Y010231D01*
X019487Y010390D02*
X021492Y010390D01*
X021492Y010548D02*
X021652Y010548D01*
X021652Y010707D02*
X021492Y010707D01*
X021492Y010865D02*
X021652Y010865D01*
X022056Y011024D02*
X018641Y011024D01*
X018641Y011182D02*
X022056Y011182D01*
X022056Y011341D02*
X018641Y011341D01*
X018641Y011499D02*
X022056Y011499D01*
X022056Y011658D02*
X018641Y011658D01*
X018639Y011816D02*
X022056Y011816D01*
X022056Y011975D02*
X018420Y011975D01*
X018564Y012133D02*
X022056Y012133D01*
X022056Y012292D02*
X018628Y012292D01*
X018641Y012450D02*
X022056Y012450D01*
X022056Y012609D02*
X018606Y012609D01*
X018515Y012767D02*
X022056Y012767D01*
X022056Y012926D02*
X018341Y012926D01*
X018530Y013084D02*
X022056Y013084D01*
X022056Y013243D02*
X018613Y013243D01*
X018109Y013560D02*
X018072Y013560D01*
X018072Y013718D02*
X018109Y013718D01*
X018109Y013877D02*
X018072Y013877D01*
X018072Y014035D02*
X018109Y014035D01*
X018109Y014194D02*
X018072Y014194D01*
X018072Y014352D02*
X018109Y014352D01*
X018109Y014511D02*
X018072Y014511D01*
X018072Y014669D02*
X018109Y014669D01*
X018109Y014828D02*
X018072Y014828D01*
X018072Y014986D02*
X018109Y014986D01*
X018109Y015145D02*
X018072Y015145D01*
X018072Y015303D02*
X018109Y015303D01*
X018109Y015462D02*
X018072Y015462D01*
X018072Y015620D02*
X018109Y015620D01*
X018109Y015779D02*
X018072Y015779D01*
X018072Y015937D02*
X018109Y015937D01*
X018109Y016096D02*
X018072Y016096D01*
X018072Y016254D02*
X018109Y016254D01*
X015756Y014916D02*
X015636Y014796D01*
X014644Y014796D01*
X014619Y014820D01*
X014443Y014893D01*
X013738Y014893D01*
X013563Y014820D01*
X013429Y014686D01*
X013356Y014511D01*
X012211Y014511D01*
X012211Y014669D02*
X013422Y014669D01*
X013356Y014511D02*
X013356Y014321D01*
X013429Y014145D01*
X013563Y014011D01*
X013738Y013938D01*
X014443Y013938D01*
X014619Y014011D01*
X014644Y014036D01*
X015636Y014036D01*
X015756Y013916D01*
X015636Y013796D01*
X014644Y013796D01*
X014619Y013820D01*
X014443Y013893D01*
X013738Y013893D01*
X013563Y013820D01*
X013429Y013686D01*
X013356Y013511D01*
X013356Y013321D01*
X013429Y013145D01*
X013563Y013011D01*
X013738Y012938D01*
X014443Y012938D01*
X014619Y013011D01*
X014644Y013036D01*
X015636Y013036D01*
X015756Y012916D01*
X015636Y012796D01*
X014644Y012796D01*
X014619Y012820D01*
X014443Y012893D01*
X013738Y012893D01*
X013563Y012820D01*
X013429Y012686D01*
X013356Y012511D01*
X013356Y012321D01*
X013429Y012145D01*
X013563Y012011D01*
X013441Y012133D02*
X012936Y012133D01*
X012969Y012292D02*
X013368Y012292D01*
X013356Y012450D02*
X012969Y012450D01*
X012969Y012609D02*
X013396Y012609D01*
X013510Y012767D02*
X012867Y012767D01*
X012433Y012926D02*
X015746Y012926D01*
X015717Y013877D02*
X014483Y013877D01*
X014643Y014035D02*
X015637Y014035D01*
X015668Y014828D02*
X014601Y014828D01*
X014559Y014986D02*
X015686Y014986D01*
X015636Y015036D02*
X015756Y014916D01*
X015636Y015036D02*
X014644Y015036D01*
X014619Y015011D01*
X014443Y014938D01*
X013738Y014938D01*
X013563Y015011D01*
X013429Y015145D01*
X013622Y014986D02*
X012211Y014986D01*
X012211Y014828D02*
X013580Y014828D01*
X013356Y014352D02*
X012211Y014352D01*
X012211Y014194D02*
X013408Y014194D01*
X013539Y014035D02*
X012211Y014035D01*
X012211Y013877D02*
X013699Y013877D01*
X013461Y013718D02*
X012211Y013718D01*
X012211Y013560D02*
X013376Y013560D01*
X013356Y013401D02*
X012211Y013401D01*
X012211Y013243D02*
X013388Y013243D01*
X013490Y013084D02*
X012275Y013084D01*
X013171Y011816D02*
X013559Y011816D01*
X013417Y011658D02*
X013330Y011658D01*
X014531Y011975D02*
X015599Y011975D01*
X015501Y011816D02*
X014623Y011816D01*
X017591Y007986D02*
X017591Y007916D01*
X017591Y007986D02*
X019170Y007986D01*
X019170Y007854D02*
X019170Y007854D01*
X019327Y007378D02*
X019487Y007378D01*
X019487Y007220D02*
X019327Y007220D01*
X020690Y008012D02*
X022056Y008012D01*
X022056Y007854D02*
X020778Y007854D01*
X020788Y007695D02*
X022056Y007695D01*
X022056Y007537D02*
X020733Y007537D01*
X021492Y007378D02*
X021652Y007378D01*
X021652Y007220D02*
X021492Y007220D01*
X022056Y006110D02*
X017749Y006110D01*
X017907Y005952D02*
X022056Y005952D01*
X022056Y005793D02*
X020984Y005793D01*
X020870Y005840D02*
X021182Y005711D01*
X021422Y005472D01*
X021551Y005159D01*
X022056Y005159D01*
X022056Y005001D02*
X021551Y005001D01*
X021551Y005159D02*
X021551Y004821D01*
X021422Y004509D01*
X021182Y004270D01*
X020870Y004140D01*
X020532Y004140D01*
X020220Y004270D01*
X019981Y004509D01*
X019851Y004821D01*
X019851Y005159D01*
X018700Y005159D01*
X018858Y005001D02*
X019851Y005001D01*
X019851Y005159D02*
X019981Y005472D01*
X020220Y005711D01*
X020532Y005840D01*
X020870Y005840D01*
X021259Y005635D02*
X022056Y005635D01*
X022056Y005476D02*
X021417Y005476D01*
X021485Y005318D02*
X022056Y005318D01*
X022046Y004842D02*
X021551Y004842D01*
X021494Y004684D02*
X022009Y004684D01*
X021967Y004525D02*
X021428Y004525D01*
X021279Y004367D02*
X021892Y004367D01*
X021800Y004208D02*
X021033Y004208D01*
X021197Y003733D02*
X019225Y003733D01*
X018957Y003733D02*
X018225Y003733D01*
X017957Y003733D02*
X017225Y003733D01*
X016957Y003733D02*
X016225Y003733D01*
X015957Y003733D02*
X013406Y003733D01*
X013532Y003891D02*
X014739Y003891D01*
X014609Y004050D02*
X013581Y004050D01*
X012812Y004525D02*
X012438Y004525D01*
X012566Y004367D02*
X012663Y004367D01*
X012770Y004684D02*
X011883Y004684D01*
X011702Y004842D02*
X012612Y004842D01*
X012453Y005001D02*
X011594Y005001D01*
X011759Y005159D02*
X012295Y005159D01*
X012136Y005318D02*
X011825Y005318D01*
X011826Y005476D02*
X011978Y005476D01*
X011819Y005635D02*
X011774Y005635D01*
X011661Y005793D02*
X011646Y005793D01*
X011502Y005952D02*
X011476Y005952D01*
X011932Y006427D02*
X012271Y006427D01*
X012271Y006269D02*
X012090Y006269D01*
X012249Y006110D02*
X012271Y006110D01*
X012271Y006586D02*
X011795Y006586D01*
X011695Y006744D02*
X012271Y006744D01*
X010588Y005001D02*
X010426Y005001D01*
X010423Y005159D02*
X010369Y005159D01*
X010357Y005318D02*
X010271Y005318D01*
X010271Y005476D02*
X010356Y005476D01*
X010426Y004842D02*
X010711Y004842D01*
X010785Y004684D02*
X010374Y004684D01*
X010257Y004525D02*
X010944Y004525D01*
X011102Y004367D02*
X010096Y004367D01*
X010290Y004208D02*
X011261Y004208D01*
X011462Y004050D02*
X010368Y004050D01*
X010386Y003891D02*
X011605Y003891D01*
X011717Y003733D02*
X010352Y003733D01*
X008213Y007537D02*
X007911Y007537D01*
X008034Y007695D02*
X008103Y007695D01*
X008117Y008171D02*
X008016Y008171D01*
X007318Y008329D02*
X006864Y008329D01*
X007016Y008171D02*
X007165Y008171D01*
X007105Y008012D02*
X007077Y008012D01*
X007082Y007854D02*
X007100Y007854D01*
X007148Y007695D02*
X007034Y007695D01*
X006911Y007537D02*
X007270Y007537D01*
X006591Y007537D02*
X006591Y007537D01*
X006591Y007421D02*
X006591Y007916D01*
X006591Y007916D01*
X006591Y007421D01*
X006591Y007695D02*
X006591Y007695D01*
X006591Y007854D02*
X006591Y007854D01*
X006591Y008012D02*
X006591Y008012D01*
X006591Y008171D02*
X006591Y008171D01*
X006591Y008329D02*
X006591Y008329D01*
X006318Y008329D02*
X005934Y008329D01*
X006064Y008171D02*
X006165Y008171D01*
X006148Y007695D02*
X006079Y007695D01*
X005968Y007537D02*
X006270Y007537D01*
X004211Y006744D02*
X003630Y006744D01*
X010381Y008963D02*
X010678Y008963D01*
X010547Y008805D02*
X010539Y008805D01*
X015072Y004208D02*
X015109Y004208D01*
X015109Y004050D02*
X015072Y004050D01*
X015072Y003891D02*
X015109Y003891D01*
X015442Y003891D02*
X015681Y003891D01*
X016501Y003891D02*
X016681Y003891D01*
X017501Y003891D02*
X017681Y003891D01*
X018501Y003891D02*
X018681Y003891D01*
X019361Y004842D02*
X019851Y004842D01*
X019908Y004684D02*
X019557Y004684D01*
X019643Y004525D02*
X019974Y004525D01*
X020123Y004367D02*
X019681Y004367D01*
X019681Y004208D02*
X020369Y004208D01*
X019619Y004050D02*
X021660Y004050D01*
X021483Y003891D02*
X019501Y003891D01*
X019917Y005318D02*
X018541Y005318D01*
X018383Y005476D02*
X019985Y005476D01*
X020143Y005635D02*
X018224Y005635D01*
X018066Y005793D02*
X020418Y005793D01*
X020559Y009122D02*
X022056Y009122D01*
X022056Y009280D02*
X020737Y009280D01*
X020788Y009439D02*
X022056Y009439D01*
X022056Y009597D02*
X020773Y009597D01*
X020679Y009756D02*
X022056Y009756D01*
X021652Y009914D02*
X021492Y009914D01*
X021492Y010073D02*
X021652Y010073D01*
X021652Y010231D02*
X021492Y010231D01*
D24*
X016091Y015416D02*
X016591Y015916D01*
X016591Y018816D01*
X015091Y009016D02*
X013191Y009016D01*
X013391Y008816D02*
X014991Y008816D01*
X015191Y008616D01*
X013391Y008816D02*
X013191Y008616D01*
D25*
X015091Y009016D02*
X015191Y008916D01*
X015691Y008916D01*
X021572Y006864D02*
X021791Y006883D01*
D26*
X019170Y008616D02*
X015191Y008616D01*
X014991Y008416D02*
X019091Y004316D01*
X018091Y004316D02*
X014991Y007416D01*
X014091Y007416D01*
X014091Y008416D02*
X014991Y008416D01*
X015691Y008916D02*
X019155Y008916D01*
X019170Y008931D01*
X019170Y009246D02*
X018061Y009246D01*
X017891Y009416D01*
X016591Y005316D02*
X014891Y005316D01*
X014491Y004916D01*
X013491Y004916D01*
X012591Y005816D01*
X012591Y010416D01*
X011091Y010416D02*
X009391Y010416D01*
X008891Y009916D01*
X006641Y009916D01*
X006141Y009416D01*
X011091Y006416D02*
X011491Y006416D01*
X013391Y004516D01*
X014491Y004516D01*
X014891Y004916D01*
X015991Y004916D01*
X016091Y004816D01*
X016091Y004316D01*
X017091Y004316D02*
X017091Y004816D01*
X016591Y005316D01*
X012591Y012416D02*
X012491Y012416D01*
X011891Y013016D01*
X011891Y017616D01*
X011091Y018416D01*
X011091Y019416D01*
X011791Y019416D01*
X012091Y019716D01*
X012091Y021816D01*
X011791Y022116D01*
X010791Y022116D01*
X010591Y021916D02*
X010591Y021416D01*
X009261Y021416D01*
X008371Y020526D01*
X009210Y020316D02*
X009210Y019735D01*
X008891Y019416D01*
X008091Y019416D01*
X013091Y017816D02*
X013491Y017416D01*
X014091Y017416D01*
X014091Y018416D02*
X013591Y018916D01*
X013591Y021416D01*
X013091Y021816D02*
X013291Y022016D01*
X014291Y022016D01*
X014591Y021716D01*
X014591Y021416D01*
X013091Y021816D02*
X013091Y017816D01*
X014091Y019416D02*
X015991Y019416D01*
X016811Y020236D01*
X016811Y020526D01*
X015991Y019416D02*
X016591Y018816D01*
D27*
X017091Y018416D02*
X017091Y019416D01*
X017091Y018416D02*
X017091Y017416D01*
X017091Y016416D01*
X017091Y015416D01*
X017091Y014416D01*
X017091Y013416D01*
X017091Y012416D01*
X017091Y011416D01*
X017091Y010916D01*
X016591Y010416D01*
X016591Y009916D01*
X017091Y009416D01*
X017291Y009416D01*
X016591Y010416D02*
X015391Y010416D01*
X014091Y010416D01*
X014091Y011416D02*
X016091Y011416D01*
X016091Y012416D02*
X014091Y012416D01*
X014091Y013416D02*
X016091Y013416D01*
X016091Y014416D02*
X014091Y014416D01*
X014091Y015416D02*
X016091Y015416D01*
X016091Y016416D02*
X014091Y016416D01*
X014091Y017416D02*
X016091Y017416D01*
X016091Y018416D02*
X014091Y018416D01*
X011591Y020335D02*
X011572Y020316D01*
X010991Y020316D01*
X009091Y018416D01*
X008091Y017416D01*
X008091Y016416D01*
X008091Y015416D01*
X008091Y014416D01*
X008091Y013416D01*
X008091Y012416D01*
X008091Y011416D01*
X009391Y011416D01*
X009891Y011916D01*
X009091Y012416D02*
X011091Y012416D01*
X011091Y013416D02*
X009091Y013416D01*
X009091Y014416D02*
X011091Y014416D01*
X011091Y015416D02*
X009091Y015416D01*
X009091Y016416D02*
X011091Y016416D01*
X011091Y017416D02*
X009091Y017416D01*
X009091Y018416D02*
X009991Y018416D01*
X011591Y020335D02*
X011591Y021416D01*
X006991Y018416D02*
X006391Y018416D01*
X005991Y018816D01*
X007091Y017416D02*
X007091Y016416D01*
X007091Y015416D01*
X007091Y014416D01*
X007091Y013416D01*
X007091Y012416D01*
X007091Y011416D01*
X008091Y011416D02*
X008091Y010916D01*
X007691Y010516D01*
X005391Y010516D01*
X004591Y009716D01*
X004591Y006416D01*
X005091Y005916D01*
X005591Y005916D01*
X006591Y005916D02*
X007591Y005916D01*
X009891Y005916D02*
X009891Y004916D01*
X011091Y004916D02*
X011091Y005416D01*
X011091Y004916D02*
X011591Y004416D01*
X012091Y004116D01*
X011091Y008416D02*
X010391Y008416D01*
X009891Y008916D01*
X018091Y011416D02*
X018091Y012416D01*
X018091Y013416D01*
X018091Y014416D01*
X018091Y015416D01*
X018091Y016416D01*
X018091Y017416D01*
X018091Y018416D01*
D28*
X021572Y010368D02*
X021772Y010272D01*
D29*
X004091Y016416D03*
X004091Y017416D03*
D30*
X004091Y015416D03*
X004091Y014416D03*
X004091Y013416D03*
X004091Y012416D03*
X009591Y010916D03*
X012091Y009416D03*
X013091Y009416D03*
X012591Y010416D03*
X012591Y012416D03*
X016591Y007916D03*
X017591Y007916D03*
X018591Y007416D03*
X021591Y011416D03*
X021591Y012416D03*
X021591Y013416D03*
X021591Y014416D03*
X021591Y015416D03*
X008591Y003916D03*
X007591Y003916D03*
X006591Y003916D03*
X005591Y003916D03*
X007091Y006916D03*
D31*
X008591Y007916D02*
X008591Y008866D01*
X008041Y009416D01*
X011091Y009416D01*
X009891Y011916D02*
X012591Y011916D01*
X014091Y010416D01*
X009891Y011916D02*
X009841Y011916D01*
X006141Y009416D02*
X005591Y008866D01*
X005591Y007916D01*
X010591Y021916D02*
X010791Y022116D01*
M02*
