%
M48
M72
T01C0.0197
T02C0.0236
T03C0.0315
T04C0.0354
T05C0.0394
T06C0.0400
T07C0.1260
%
T01
X5591Y3916
X6591Y3916
X7591Y3916
X8591Y3916
X7091Y6916
X9591Y10916
X12091Y9416
X13091Y9416
X12591Y10416
X12591Y12416
X16591Y7916
X17591Y7916
X18091Y6916
X21591Y11416
X21591Y12416
X21591Y13416
X21591Y14416
X21591Y15416
X4091Y15416
X4091Y14416
X4091Y13416
X4091Y12416
T02
X4091Y16416
X4091Y17416
T03
X4991Y18816
X5991Y18816
X6991Y18416
X8091Y19416
X9210Y20316
X9991Y18416
X11091Y18416
X11091Y19416
X11572Y20316
X14091Y19416
X14091Y18416
X14091Y17416
X14091Y16416
X14091Y15416
X14091Y14416
X14091Y13416
X14091Y12416
X14091Y11416
X14091Y10416
X14091Y9416
X14091Y8416
X14091Y7416
X14091Y6416
X14091Y5416
X13091Y4116
X12091Y4116
X11091Y5416
X11091Y6416
X11091Y7416
X11091Y8416
X11091Y9416
X11091Y10416
X11091Y11416
X11091Y12416
X11091Y13416
X11091Y14416
X11091Y15416
X11091Y16416
X11091Y17416
X8091Y11416
X7091Y11416
X8041Y9416
X7591Y7916
X8591Y7916
X9891Y8916
X9891Y5916
X9891Y4916
X9891Y3916
X8591Y5916
X7591Y5916
X6591Y5916
X5591Y5916
X5591Y7916
X6591Y7916
X6141Y9416
X15391Y9416
X15391Y10416
X17091Y19416
T04
X20391Y9482
X20391Y7749
T05
X19091Y4316
X18091Y4316
X17091Y4316
X16091Y4316
X15091Y4316
X8591Y4416
X7591Y4416
X6591Y4416
X5591Y4416
X7091Y12416
X7091Y13416
X7091Y14416
X7091Y15416
X7091Y16416
X7091Y17416
X8091Y17416
X9091Y17416
X9091Y16416
X9091Y15416
X8091Y15416
X8091Y16416
X8091Y14416
X9091Y14416
X9091Y13416
X8091Y13416
X8091Y12416
X9091Y12416
X16091Y12416
X16091Y13416
X16091Y14416
X16091Y15416
X16091Y16416
X16091Y17416
X16091Y18416
X17091Y18416
X18091Y18416
X18091Y17416
X17091Y17416
X17091Y16416
X17091Y15416
X18091Y15416
X18091Y16416
X18091Y14416
X17091Y14416
X17091Y13416
X18091Y13416
X18091Y12416
X17091Y12416
X17091Y11416
X18091Y11416
X16091Y11416
X16811Y20526
X16811Y22306
X19371Y22306
X19371Y20526
X8371Y20526
X8371Y22306
X5811Y22306
X5811Y20526
T06
X10591Y21416
X11591Y21416
X12591Y21416
X13591Y21416
X14591Y21416
T07
X4166Y4990
X4166Y21526
X20701Y21526
X20701Y4990
M30
